M48
;Layer_Color=9474304
;FILE_FORMAT=2:5
INCH,LZ
;TYPE=PLATED
T1F00S00C0.01181
T2F00S00C0.02362
T3F00S00C0.04016
T4F00S00C0.04331
T5F00S00C0.05118
T6F00S00C0.19685
;TYPE=NON_PLATED
T7F00S00C0.03900
T8F00S00C0.09350
%
T01
X0653Y015975
X0663062Y0156438
X0652537Y0182013
X0597Y0178
X0578Y0168
X0613Y015975
X0616563Y0156438
X0601449Y0234
X0601246Y0238273
X0495519Y0211
X0495Y019
X0476819
X0479Y0186
X0492924Y0170163
X0509Y0163
X0470823Y0160011
X0472774Y015627
X0651Y0553
X0649Y0597
X0564
Y0553
X0394Y0637
X0361Y0638
X0346Y0677
X0345Y071
Y0715
Y072
Y0725
Y073
Y0735
Y074
Y0745
X036Y0721
X0397Y0719
X0396927Y0714927
X0397Y0724
X041Y0725
Y073
X0409808Y0735
X040991Y074009
X041Y0745
Y0749069
Y072
Y0715
X0416Y067
X0564Y0697
X0571Y071
Y0715
X0570958Y0720042
X0571Y0725
Y073
Y0735
Y074
Y0745
X0622
X0622568Y0740638
X0623Y0736
Y0731
X0623075Y0725094
X0621124Y072096
X0623Y0716
X0622883Y0710893
X0595Y0704
X0583Y0699
X0582747Y0695
X0592Y0677173
X0596Y0677
X0600073Y0677073
X0604Y0677
X0564Y0632
X0622Y0752
X0625Y0748
Y0742819
X062521Y0737819
Y0732819
X0625Y0727819
X0625181Y0722819
X062521Y0717819
X0625Y0712819
X0641181Y067
X0641Y065
X0649Y0633
X0654176Y0677749
T02
X0532Y0185
X0439Y0173
X0416968Y0164291
X0433Y022
X0263399Y0289399
X026Y037
X0304Y075
X0326
X0373Y0747
X0384Y0754587
X0383Y0713
X0389Y0702
X0459Y07
X0464131Y0694061
X0454Y075
X0448Y0745
X0442Y074
X0436Y0735
X0535Y075
X0557
X0599Y0754587
X059875Y0715
X0541Y07155
Y071
X0653Y0694
X0654Y0725
X0677Y0721
Y0715
T03
X07Y01644
Y01744
Y01844
Y01944
Y02044
X0674259Y0289798
X0667188Y0282727
X0592763Y0289798
X0585692Y0282727
X0511267Y0289798
X0504196Y0282727
X0539213Y0199882
Y0189882
X0433228Y0194882
X0429771Y0289798
X04227Y0282727
X0348275Y0289798
X0341204Y0282727
X0332812Y0304675
X0325741Y0297604
Y0216895
X0332812Y0223966
X0341204Y0363435
X0348275Y0370506
X0332812Y0385384
X0325741Y0378313
Y0459021
X0332812Y0466092
X0341204Y0444144
X0348275Y0451215
X04227Y0444144
X0429771Y0451215
Y0370506
X04227Y0363435
X0504196
X0511267Y0370506
Y0451215
X0504196Y0444144
X0585692
X0592763Y0451215
Y0370506
X0585692Y0363435
X0667188
X0674259Y0370506
Y0451215
X0667188Y0444144
Y0524853
X0674259Y0531923
Y0612632
X0667188Y0605561
X0592763Y0612632
X0585692Y0605561
Y0524853
X0592763Y0531923
X0511267
X0504196Y0524853
Y0605561
X0511267Y0612632
X0429771
X04227Y0605561
Y0524853
X0429771Y0531923
X0348275Y0531923
X0341204Y0524853
X0332812Y0546801
X0325741Y053973
Y0620439
X0341204Y0605561
X0348275Y0612632
X0332812Y062751
X0341204Y068627
X0348275Y0693341
X04227Y068627
X0429771Y0693341
X0504196Y0686467
X0511267Y0693538
X0585692Y068627
X0592763Y0693341
X0667188Y068627
X0674259Y0693341
X07Y0707
Y0717
Y0727
Y0737
Y0747
T04
X0555472Y0203819
X0565472
X0575472
X0585472
X0595472
X0416968
X0406968
X0396969
X0386968
X0376969
X0272638Y020437
Y019437
Y018437
Y017437
Y016437
Y0707047
Y0717047
Y0727047
Y0737047
Y0747047
T05
X0315158Y0185228
X0334842
T06
X070374Y0253346
X0622244
X0540748
X0459252
X0377756
X029626
Y0334055
Y0414764
X0377756
Y0334055
X0459252
Y0414764
X0540748
Y0334055
X0622244
Y0414764
X070374
Y0334055
Y0495472
Y0576181
X0622244
Y0495472
X0540748
Y0576181
X0459252
Y0495472
X0377756Y0495472
Y0576181
X029626
Y0495472
Y065689
X0377756
X0459252
X0540748Y0657087
X0622244Y065689
X070374
T07
X0672Y01925
X0692Y01885
Y01965
T08
X0672Y01825
X06845
Y02025
X0672
M30
