G04*
G04 #@! TF.GenerationSoftware,Altium Limited,Altium Designer,20.2.3 (150)*
G04*
G04 Layer_Physical_Order=2*
G04 Layer_Color=16711680*
%FSLAX25Y25*%
%MOIN*%
G70*
G04*
G04 #@! TF.SameCoordinates,4877317F-2E7F-43E9-A464-E33F9C0CD60A*
G04*
G04*
G04 #@! TF.FilePolarity,Positive*
G04*
G01*
G75*
%ADD15R,0.06102X0.05906*%
%ADD16R,0.05906X0.06102*%
%ADD19R,0.05315X0.02362*%
%ADD20R,0.05315X0.01575*%
%ADD27R,0.07874X0.02362*%
%ADD28C,0.06181*%
%ADD29P,0.08741X4X270.0*%
%ADD43C,0.02500*%
%ADD44C,0.01000*%
%ADD45C,0.19685*%
%ADD46C,0.07677*%
%ADD47R,0.07677X0.07677*%
%ADD48C,0.03900*%
%ADD49C,0.09350*%
%ADD50C,0.06102*%
%ADD51R,0.06102X0.06102*%
%ADD52C,0.06496*%
%ADD53R,0.06496X0.06496*%
%ADD54R,0.06496X0.06496*%
%ADD55C,0.05984*%
%ADD56C,0.02362*%
%ADD57C,0.05000*%
%ADD58R,0.04921X0.06102*%
%ADD59R,0.05906X0.05906*%
%ADD60C,0.03100*%
%ADD61R,0.05118X0.06102*%
G36*
X743292Y154346D02*
X707289D01*
X707250Y154448D01*
X707206Y154846D01*
X707699Y155176D01*
X712262Y159738D01*
X712648Y160317D01*
X712784Y161000D01*
X712784Y161000D01*
Y173400D01*
X712784Y173400D01*
X712648Y174083D01*
X712262Y174662D01*
X703457Y183466D01*
X703460Y183473D01*
X703582Y184400D01*
X703460Y185327D01*
X703102Y186191D01*
X702533Y186933D01*
X701791Y187502D01*
X700927Y187860D01*
X700000Y187982D01*
X699073Y187860D01*
X698209Y187502D01*
X697467Y186933D01*
X697442Y186900D01*
X696968Y187060D01*
Y189408D01*
X696891Y189798D01*
X696670Y190129D01*
X693817Y192981D01*
X693487Y193202D01*
X693276Y193754D01*
X693310Y193867D01*
X693480Y193937D01*
X694093Y194407D01*
X694563Y195020D01*
X694859Y195734D01*
X694960Y196500D01*
X694859Y197266D01*
X694563Y197980D01*
X694093Y198593D01*
X693480Y199063D01*
X692766Y199359D01*
X692000Y199460D01*
X691234Y199359D01*
X690520Y199063D01*
X689907Y198593D01*
X689437Y197980D01*
X689141Y197266D01*
X689057Y197218D01*
X689000Y197241D01*
X687764D01*
X687595Y197741D01*
X688536Y198464D01*
X689443Y199646D01*
X690014Y201023D01*
X690208Y202500D01*
X690014Y203977D01*
X689443Y205354D01*
X688536Y206536D01*
X687354Y207443D01*
X685977Y208014D01*
X684500Y208208D01*
X683023Y208014D01*
X681646Y207443D01*
X680464Y206536D01*
X679846Y205731D01*
X679319Y205866D01*
X679283Y206049D01*
X679062Y206380D01*
X673721Y211721D01*
X673390Y211942D01*
X673000Y212020D01*
X496860D01*
X496731Y212212D01*
X496175Y212584D01*
X495519Y212714D01*
X494863Y212584D01*
X494307Y212212D01*
X493936Y211656D01*
X493805Y211000D01*
X493936Y210344D01*
X494307Y209788D01*
X494863Y209416D01*
X495519Y209286D01*
X496175Y209416D01*
X496731Y209788D01*
X496860Y209980D01*
X672578D01*
X674375Y208183D01*
X674092Y207759D01*
X673477Y208014D01*
X672000Y208208D01*
X670523Y208014D01*
X669146Y207443D01*
X667964Y206536D01*
X667057Y205354D01*
X666486Y203977D01*
X666292Y202500D01*
X666486Y201023D01*
X667057Y199646D01*
X667964Y198464D01*
X669146Y197557D01*
X669394Y197454D01*
X669295Y196954D01*
X666459D01*
X666069Y196876D01*
X665738Y196655D01*
X652810Y183728D01*
X652525Y183784D01*
X644643D01*
Y201098D01*
X645917D01*
Y208201D01*
X639799D01*
Y201098D01*
X641074D01*
Y182000D01*
Y176902D01*
X639799D01*
Y172323D01*
X637261Y169784D01*
X628695D01*
X628201Y169799D01*
X628201Y170284D01*
Y176902D01*
X626926D01*
Y195000D01*
Y201098D01*
X628201D01*
Y208201D01*
X622083D01*
Y201098D01*
X623357D01*
Y196020D01*
X540320D01*
X540221Y196520D01*
X540974Y196832D01*
X541703Y197391D01*
X542263Y198121D01*
X542615Y198970D01*
X542735Y199882D01*
X542615Y200794D01*
X542263Y201643D01*
X541703Y202373D01*
X540974Y202932D01*
X540124Y203284D01*
X539213Y203404D01*
X538301Y203284D01*
X537452Y202932D01*
X536722Y202373D01*
X536162Y201643D01*
X535810Y200794D01*
X535690Y199882D01*
X535810Y198970D01*
X536162Y198121D01*
X536722Y197391D01*
X537452Y196832D01*
X538205Y196520D01*
X538105Y196020D01*
X500000D01*
X499610Y195942D01*
X499279Y195721D01*
X495227Y191669D01*
X495000Y191714D01*
X494344Y191584D01*
X493788Y191212D01*
X493416Y190656D01*
X493286Y190000D01*
X493416Y189344D01*
X493788Y188788D01*
X494344Y188416D01*
X495000Y188286D01*
X495656Y188416D01*
X496212Y188788D01*
X496584Y189344D01*
X496714Y190000D01*
X496669Y190227D01*
X500422Y193980D01*
X623357D01*
Y176902D01*
X622083D01*
X622083Y169799D01*
X621589Y169784D01*
X543739D01*
X533784Y179739D01*
Y182588D01*
X534140Y182860D01*
X534621Y183487D01*
X534923Y184217D01*
X535026Y185000D01*
X534923Y185783D01*
X534621Y186513D01*
X534140Y187140D01*
X533513Y187620D01*
X532783Y187923D01*
X532000Y188026D01*
X531217Y187923D01*
X530487Y187620D01*
X529860Y187140D01*
X529380Y186513D01*
X529077Y185783D01*
X528974Y185000D01*
X529077Y184217D01*
X529380Y183487D01*
X529860Y182860D01*
X530216Y182588D01*
Y179000D01*
X530351Y178317D01*
X530738Y177738D01*
X541738Y166738D01*
X541738Y166738D01*
X541795Y166701D01*
X541643Y166201D01*
X498328D01*
X494593Y169936D01*
X494638Y170163D01*
X494508Y170819D01*
X494136Y171375D01*
X493580Y171746D01*
X492924Y171877D01*
X492269Y171746D01*
X491712Y171375D01*
X491341Y170819D01*
X491210Y170163D01*
X491341Y169507D01*
X491712Y168951D01*
X492269Y168579D01*
X492924Y168449D01*
X493151Y168494D01*
X497185Y164460D01*
X497516Y164239D01*
X497906Y164162D01*
X507224D01*
X507460Y163721D01*
X507416Y163656D01*
X507286Y163000D01*
X507416Y162344D01*
X507623Y162034D01*
X507356Y161534D01*
X471569D01*
X471479Y161594D01*
X470823Y161725D01*
X470167Y161594D01*
X470077Y161534D01*
X450008D01*
X449326Y161398D01*
X449303Y161383D01*
X418928D01*
X418758Y161883D01*
X419108Y162152D01*
X419381Y162507D01*
X430291D01*
X430974Y162643D01*
X431553Y163030D01*
X438556Y170033D01*
X439000Y169974D01*
X439783Y170077D01*
X440513Y170379D01*
X441140Y170860D01*
X441620Y171487D01*
X441923Y172217D01*
X442026Y173000D01*
X441923Y173783D01*
X441620Y174513D01*
X441140Y175140D01*
X440513Y175620D01*
X439783Y175923D01*
X439000Y176026D01*
X438217Y175923D01*
X437487Y175620D01*
X436860Y175140D01*
X436379Y174513D01*
X436077Y173783D01*
X435974Y173000D01*
X436033Y172556D01*
X429552Y166076D01*
X419381D01*
X419108Y166431D01*
X418481Y166912D01*
X417752Y167214D01*
X416968Y167317D01*
X416185Y167214D01*
X415456Y166912D01*
X414829Y166431D01*
X414348Y165804D01*
X414046Y165075D01*
X413943Y164291D01*
X414046Y163508D01*
X414348Y162778D01*
X414829Y162152D01*
X415179Y161883D01*
X415009Y161383D01*
X287605D01*
X284784Y164204D01*
Y184008D01*
X284648Y184691D01*
X284262Y185270D01*
X284262Y185270D01*
X276245Y193286D01*
X276289Y193392D01*
X276418Y194370D01*
X276289Y195349D01*
X275912Y196260D01*
X275311Y197043D01*
X274528Y197644D01*
X273616Y198022D01*
X272638Y198151D01*
X271659Y198022D01*
X270748Y197644D01*
X269965Y197043D01*
X269364Y196260D01*
X268986Y195349D01*
X268857Y194370D01*
X268986Y193392D01*
X269364Y192480D01*
X269965Y191697D01*
X270748Y191096D01*
X271659Y190718D01*
X272638Y190590D01*
X273616Y190718D01*
X273722Y190762D01*
X281216Y183269D01*
Y163464D01*
X281351Y162782D01*
X281738Y162203D01*
X285157Y158784D01*
X284950Y158284D01*
X283703D01*
X279420Y162568D01*
Y176440D01*
X279284Y177123D01*
X278898Y177702D01*
X278898Y177702D01*
X275415Y181184D01*
X275311Y181697D01*
X275912Y182480D01*
X276289Y183392D01*
X276418Y184370D01*
X276289Y185348D01*
X275912Y186260D01*
X275311Y187043D01*
X274528Y187644D01*
X273616Y188022D01*
X272638Y188151D01*
X271659Y188022D01*
X270748Y187644D01*
X269965Y187043D01*
X269364Y186260D01*
X268986Y185348D01*
X268857Y184370D01*
X268986Y183392D01*
X269364Y182480D01*
X269965Y181697D01*
X270748Y181096D01*
X271618Y180736D01*
Y180674D01*
X271754Y179991D01*
X272141Y179412D01*
X272968Y178585D01*
X272747Y178136D01*
X272638Y178150D01*
X271659Y178022D01*
X270748Y177644D01*
X269965Y177043D01*
X269364Y176260D01*
X268986Y175348D01*
X268857Y174370D01*
X268986Y173392D01*
X269364Y172480D01*
X269965Y171697D01*
X270748Y171096D01*
X271659Y170719D01*
X272638Y170590D01*
X273616Y170719D01*
X274528Y171096D01*
X275311Y171697D01*
X275378Y171784D01*
X275851Y171624D01*
Y167116D01*
X275378Y166956D01*
X275311Y167043D01*
X274528Y167644D01*
X273638Y168013D01*
Y164370D01*
Y160727D01*
X274528Y161096D01*
X275311Y161697D01*
X275370Y161773D01*
X275891Y161631D01*
X275987Y161146D01*
X276374Y160567D01*
X281703Y155238D01*
X282282Y154851D01*
X282309Y154846D01*
X282260Y154346D01*
X256708D01*
Y368801D01*
X257208Y368900D01*
X257380Y368487D01*
X257860Y367860D01*
X258487Y367379D01*
X259217Y367077D01*
X260000Y366974D01*
X260783Y367077D01*
X261513Y367379D01*
X262140Y367860D01*
X262412Y368216D01*
X340253D01*
X340445Y367754D01*
X339372Y366681D01*
X341204Y364849D01*
X343036Y366681D01*
X341963Y367754D01*
X342154Y368216D01*
X345507D01*
X345714Y367945D01*
X346464Y367370D01*
X347338Y367008D01*
X348275Y366885D01*
X349212Y367008D01*
X350086Y367370D01*
X350836Y367945D01*
X351411Y368695D01*
X351773Y369569D01*
X351896Y370506D01*
X351773Y371444D01*
X351411Y372317D01*
X350836Y373067D01*
X350086Y373643D01*
X349212Y374004D01*
X348275Y374128D01*
X347338Y374004D01*
X346464Y373643D01*
X345714Y373067D01*
X345139Y372317D01*
X344918Y371784D01*
X262412D01*
X262140Y372140D01*
X261513Y372621D01*
X260783Y372923D01*
X260000Y373026D01*
X259217Y372923D01*
X258487Y372621D01*
X257860Y372140D01*
X257380Y371513D01*
X257208Y371100D01*
X256708Y371199D01*
Y759040D01*
X743292D01*
X743292Y154346D01*
D02*
G37*
%LPC*%
G36*
X385927Y757621D02*
X385244Y757485D01*
X385090Y757382D01*
X384783Y757510D01*
X384000Y757613D01*
X383217Y757510D01*
X382910Y757382D01*
X382756Y757485D01*
X382073Y757621D01*
X301911D01*
X301229Y757485D01*
X300650Y757098D01*
X300650Y757098D01*
X274064Y730513D01*
X273616Y730699D01*
X272638Y730828D01*
X271659Y730699D01*
X270748Y730321D01*
X269965Y729720D01*
X269364Y728937D01*
X268986Y728026D01*
X268857Y727047D01*
X268986Y726069D01*
X269364Y725157D01*
X269965Y724374D01*
X270748Y723773D01*
X271659Y723396D01*
X272638Y723267D01*
X273616Y723396D01*
X274528Y723773D01*
X275311Y724374D01*
X275912Y725157D01*
X276289Y726069D01*
X276418Y727047D01*
X276328Y727730D01*
X302650Y754052D01*
X329216D01*
Y751382D01*
X328716Y751283D01*
X328621Y751513D01*
X328140Y752140D01*
X327513Y752621D01*
X326783Y752923D01*
X326000Y753026D01*
X325217Y752923D01*
X324487Y752621D01*
X323860Y752140D01*
X323379Y751513D01*
X323294Y751306D01*
X321996D01*
Y752551D01*
X315409D01*
X315091Y752551D01*
X314591Y752551D01*
X312457D01*
Y749000D01*
Y745449D01*
X314591D01*
X314910Y745449D01*
X315409Y745449D01*
X321996D01*
Y747737D01*
X324021D01*
X324487Y747379D01*
X325217Y747077D01*
X326000Y746974D01*
X326783Y747077D01*
X327513Y747379D01*
X328140Y747860D01*
X328621Y748487D01*
X328716Y748717D01*
X329216Y748618D01*
Y665587D01*
X329351Y664904D01*
X329738Y664325D01*
X343035Y651028D01*
Y648972D01*
X338738Y644675D01*
X338351Y644096D01*
X338216Y643413D01*
Y636449D01*
X338351Y635766D01*
X338738Y635187D01*
X342187Y631738D01*
X342766Y631352D01*
X343449Y631216D01*
X343449Y631216D01*
X410515D01*
X411198Y631352D01*
X411776Y631738D01*
X416262Y636224D01*
X416262Y636224D01*
X416648Y636802D01*
X416784Y637485D01*
Y643445D01*
X416648Y644128D01*
X416262Y644707D01*
X411996Y648972D01*
Y653551D01*
X410820D01*
Y656449D01*
X411996D01*
Y663551D01*
X406075D01*
Y656449D01*
X407251D01*
Y653551D01*
X406075D01*
Y646449D01*
X409473D01*
X411870Y644051D01*
X411663Y643551D01*
X406075D01*
Y637891D01*
X404454Y636270D01*
X404351D01*
X403925Y636449D01*
X403925Y636770D01*
Y643551D01*
X401984D01*
Y646449D01*
X403925D01*
Y653551D01*
X399414D01*
X397555Y655410D01*
Y656325D01*
X398004Y656449D01*
Y656449D01*
X403925D01*
Y663551D01*
X401984D01*
Y666449D01*
X403925D01*
Y673551D01*
X399446D01*
X385299Y687698D01*
Y706720D01*
X385222Y707110D01*
X385001Y707441D01*
X382926Y709516D01*
X383155Y709995D01*
X383783Y710077D01*
X384513Y710380D01*
X385140Y710860D01*
X385444Y711257D01*
X389169D01*
X389516Y711188D01*
X390035Y711291D01*
X392673D01*
Y714906D01*
X395139D01*
X395237Y714807D01*
X395344Y714271D01*
X395715Y713715D01*
X396271Y713344D01*
X396927Y713213D01*
X397583Y713344D01*
X398139Y713715D01*
X398511Y714271D01*
X398641Y714927D01*
X398511Y715583D01*
X398139Y716139D01*
X397583Y716511D01*
X396927Y716641D01*
X396393Y716535D01*
X396282Y716646D01*
X395951Y716867D01*
X395561Y716945D01*
X392673D01*
Y717465D01*
X396116D01*
X396236Y717489D01*
X396344Y717416D01*
X397000Y717286D01*
X397656Y717416D01*
X398212Y717788D01*
X398584Y718344D01*
X398714Y719000D01*
X398584Y719656D01*
X398212Y720212D01*
X397656Y720584D01*
X397000Y720714D01*
X396344Y720584D01*
X395788Y720212D01*
X395416Y719656D01*
X395386Y719504D01*
X392673D01*
Y720889D01*
X394566Y722782D01*
X395798D01*
X396344Y722416D01*
X397000Y722286D01*
X397656Y722416D01*
X398212Y722788D01*
X398584Y723344D01*
X398714Y724000D01*
X398680Y724171D01*
X399141Y724417D01*
X408331Y715227D01*
X408286Y715000D01*
X408416Y714344D01*
X408788Y713788D01*
X409344Y713416D01*
X410000Y713286D01*
X410656Y713416D01*
X411212Y713788D01*
X411584Y714344D01*
X411714Y715000D01*
X411584Y715656D01*
X411212Y716212D01*
X410656Y716584D01*
X410000Y716714D01*
X409773Y716669D01*
X397001Y729441D01*
X396670Y729662D01*
X396280Y729740D01*
X392673D01*
Y730260D01*
X398298D01*
X408331Y720227D01*
X408286Y720000D01*
X408416Y719344D01*
X408788Y718788D01*
X409344Y718416D01*
X410000Y718286D01*
X410656Y718416D01*
X411212Y718788D01*
X411584Y719344D01*
X411714Y720000D01*
X411584Y720656D01*
X411212Y721212D01*
X410656Y721584D01*
X410000Y721714D01*
X409773Y721669D01*
X399441Y732000D01*
X399111Y732222D01*
X398721Y732299D01*
X392673D01*
Y732819D01*
X400739D01*
X408331Y725227D01*
X408286Y725000D01*
X408416Y724344D01*
X408788Y723788D01*
X409344Y723416D01*
X410000Y723286D01*
X410656Y723416D01*
X411212Y723788D01*
X411584Y724344D01*
X411714Y725000D01*
X411584Y725656D01*
X411212Y726212D01*
X410656Y726584D01*
X410000Y726714D01*
X409773Y726669D01*
X401882Y734559D01*
X401552Y734781D01*
X401161Y734858D01*
X392673D01*
Y735378D01*
X403180D01*
X408331Y730227D01*
X408286Y730000D01*
X408416Y729344D01*
X408788Y728788D01*
X409344Y728416D01*
X410000Y728286D01*
X410656Y728416D01*
X411212Y728788D01*
X411584Y729344D01*
X411714Y730000D01*
X411584Y730656D01*
X411212Y731212D01*
X410656Y731584D01*
X410000Y731714D01*
X409773Y731669D01*
X404323Y737119D01*
X403993Y737340D01*
X403602Y737417D01*
X392673D01*
Y737937D01*
X405429D01*
X408139Y735227D01*
X408094Y735000D01*
X408224Y734344D01*
X408596Y733788D01*
X409152Y733416D01*
X409808Y733286D01*
X410464Y733416D01*
X411020Y733788D01*
X411391Y734344D01*
X411522Y735000D01*
X411391Y735656D01*
X411020Y736212D01*
X410464Y736584D01*
X409808Y736714D01*
X409581Y736669D01*
X406572Y739678D01*
X406241Y739899D01*
X405851Y739976D01*
X392673D01*
Y740496D01*
X407693D01*
X408220Y739969D01*
X408327Y739434D01*
X408698Y738878D01*
X409254Y738506D01*
X409910Y738376D01*
X410566Y738506D01*
X411122Y738878D01*
X411494Y739434D01*
X411624Y740090D01*
X411494Y740746D01*
X411122Y741302D01*
X410566Y741673D01*
X409910Y741804D01*
X409376Y741697D01*
X408837Y742237D01*
X408506Y742458D01*
X408116Y742535D01*
X392673D01*
Y743055D01*
X408706D01*
X409096Y743133D01*
X409427Y743354D01*
X409466Y743392D01*
X410000Y743286D01*
X410656Y743416D01*
X411212Y743788D01*
X411584Y744344D01*
X411714Y745000D01*
X411584Y745656D01*
X411212Y746212D01*
X410656Y746584D01*
X410000Y746714D01*
X409751Y747174D01*
X409925Y747370D01*
X410000Y747355D01*
X410656Y747485D01*
X411212Y747857D01*
X411584Y748413D01*
X411714Y749069D01*
X411584Y749725D01*
X411212Y750281D01*
X410656Y750653D01*
X410000Y750783D01*
X409344Y750653D01*
X408788Y750281D01*
X408416Y749725D01*
X408286Y749069D01*
X408331Y748842D01*
X407536Y748047D01*
X392673D01*
Y748709D01*
X386358D01*
Y745346D01*
Y742787D01*
Y740228D01*
Y737669D01*
Y735110D01*
Y732551D01*
Y729992D01*
Y727433D01*
Y724874D01*
Y722315D01*
Y719756D01*
Y714826D01*
X385381D01*
X385140Y715140D01*
X384513Y715621D01*
X383783Y715923D01*
X383000Y716026D01*
X382217Y715923D01*
X381487Y715621D01*
X380860Y715140D01*
X380380Y714513D01*
X380077Y713783D01*
X379995Y713155D01*
X379516Y712926D01*
X370965Y721477D01*
X370634Y721698D01*
X370244Y721775D01*
X369642D01*
Y724874D01*
Y727433D01*
Y729992D01*
Y732551D01*
Y735110D01*
Y737669D01*
Y740228D01*
Y742787D01*
Y745229D01*
X370577D01*
X370860Y744860D01*
X371487Y744380D01*
X372217Y744077D01*
X373000Y743974D01*
X373783Y744077D01*
X374513Y744380D01*
X375140Y744860D01*
X375621Y745487D01*
X375923Y746217D01*
X376026Y747000D01*
X375923Y747783D01*
X375621Y748513D01*
X375140Y749140D01*
X374513Y749620D01*
X373783Y749923D01*
X373000Y750026D01*
X372217Y749923D01*
X371487Y749620D01*
X370860Y749140D01*
X370598Y748798D01*
X366553D01*
X366484Y748812D01*
X365966Y748709D01*
X363327D01*
Y745020D01*
X346710D01*
X346584Y745656D01*
X346212Y746212D01*
X345656Y746584D01*
X345000Y746714D01*
X344344Y746584D01*
X343788Y746212D01*
X343416Y745656D01*
X343286Y745000D01*
X343416Y744344D01*
X343788Y743788D01*
X344344Y743416D01*
X345000Y743286D01*
X345450Y743375D01*
X345546Y743279D01*
X345877Y743058D01*
X346267Y742980D01*
X346559D01*
X346608Y742480D01*
X346494Y742458D01*
X346163Y742237D01*
X345534Y741608D01*
X345000Y741714D01*
X344344Y741584D01*
X343788Y741212D01*
X343416Y740656D01*
X343286Y740000D01*
X343416Y739344D01*
X343788Y738788D01*
X344344Y738416D01*
X345000Y738286D01*
X345656Y738416D01*
X346212Y738788D01*
X346584Y739344D01*
X346690Y739880D01*
X347307Y740496D01*
X363327D01*
Y739976D01*
X348957D01*
X348567Y739899D01*
X348236Y739678D01*
X345227Y736669D01*
X345000Y736714D01*
X344344Y736584D01*
X343788Y736212D01*
X343416Y735656D01*
X343286Y735000D01*
X343416Y734344D01*
X343788Y733788D01*
X344344Y733416D01*
X345000Y733286D01*
X345656Y733416D01*
X346212Y733788D01*
X346584Y734344D01*
X346714Y735000D01*
X346669Y735227D01*
X349379Y737937D01*
X363327D01*
Y737417D01*
X351398D01*
X351008Y737340D01*
X350677Y737119D01*
X345227Y731669D01*
X345000Y731714D01*
X344344Y731584D01*
X343788Y731212D01*
X343416Y730656D01*
X343286Y730000D01*
X343416Y729344D01*
X343788Y728788D01*
X344344Y728416D01*
X345000Y728286D01*
X345656Y728416D01*
X346212Y728788D01*
X346584Y729344D01*
X346714Y730000D01*
X346669Y730227D01*
X351820Y735378D01*
X363327D01*
Y734858D01*
X353839D01*
X353448Y734781D01*
X353118Y734559D01*
X345227Y726669D01*
X345000Y726714D01*
X344344Y726584D01*
X343788Y726212D01*
X343416Y725656D01*
X343286Y725000D01*
X343416Y724344D01*
X343788Y723788D01*
X344344Y723416D01*
X345000Y723286D01*
X345656Y723416D01*
X346212Y723788D01*
X346584Y724344D01*
X346714Y725000D01*
X346669Y725227D01*
X354261Y732819D01*
X363327D01*
Y732012D01*
X355992D01*
X355602Y731934D01*
X355271Y731713D01*
X345227Y721669D01*
X345000Y721714D01*
X344344Y721584D01*
X343788Y721212D01*
X343416Y720656D01*
X343286Y720000D01*
X343416Y719344D01*
X343788Y718788D01*
X344344Y718416D01*
X345000Y718286D01*
X345656Y718416D01*
X346212Y718788D01*
X346584Y719344D01*
X346714Y720000D01*
X346669Y720227D01*
X356415Y729973D01*
X363327D01*
Y729453D01*
X358433D01*
X358043Y729375D01*
X357712Y729154D01*
X345227Y716669D01*
X345000Y716714D01*
X344344Y716584D01*
X343788Y716212D01*
X343416Y715656D01*
X343286Y715000D01*
X343416Y714344D01*
X343788Y713788D01*
X344344Y713416D01*
X345000Y713286D01*
X345656Y713416D01*
X346212Y713788D01*
X346584Y714344D01*
X346714Y715000D01*
X346669Y715227D01*
X358855Y727414D01*
X363327D01*
Y726894D01*
X360874D01*
X360484Y726816D01*
X360153Y726595D01*
X345227Y711669D01*
X345000Y711714D01*
X344344Y711584D01*
X343788Y711212D01*
X343416Y710656D01*
X343286Y710000D01*
X343416Y709344D01*
X343788Y708788D01*
X344344Y708416D01*
X345000Y708286D01*
X345656Y708416D01*
X346212Y708788D01*
X346584Y709344D01*
X346714Y710000D01*
X346669Y710227D01*
X357859Y721417D01*
X358320Y721171D01*
X358286Y721000D01*
X358416Y720344D01*
X358788Y719788D01*
X359344Y719416D01*
X360000Y719286D01*
X360656Y719416D01*
X361212Y719788D01*
X361584Y720344D01*
X361714Y721000D01*
X361669Y721227D01*
X362827Y722385D01*
X363007Y722360D01*
X363327Y722178D01*
Y717197D01*
Y714638D01*
Y711291D01*
X365465D01*
Y683462D01*
X355554Y673551D01*
X351075D01*
Y666449D01*
X353016D01*
Y663551D01*
X351075D01*
Y656449D01*
X356996D01*
Y663551D01*
X355055D01*
Y666449D01*
X356996D01*
Y672109D01*
X359026Y674139D01*
X359488Y673948D01*
Y657454D01*
X355586Y653551D01*
X351106D01*
Y646449D01*
X353047D01*
Y643551D01*
X351106D01*
Y636968D01*
X349879D01*
X348957Y637891D01*
Y643551D01*
X343398Y643551D01*
X343368Y643551D01*
X343161Y644051D01*
X345559Y646449D01*
X348957D01*
Y653551D01*
X347765D01*
Y656449D01*
X348925D01*
Y663551D01*
X343004D01*
Y656813D01*
X342504Y656606D01*
X332784Y666326D01*
Y754052D01*
X381045D01*
X381077Y753803D01*
X381380Y753074D01*
X381860Y752447D01*
X382487Y751966D01*
X383217Y751664D01*
X384000Y751561D01*
X384783Y751664D01*
X385513Y751966D01*
X386140Y752447D01*
X386620Y753074D01*
X386923Y753803D01*
X386955Y754052D01*
X560980D01*
Y746422D01*
X557279Y742721D01*
X557058Y742390D01*
X556980Y742000D01*
Y666555D01*
X557058Y666165D01*
X557279Y665834D01*
X561004Y662109D01*
Y656449D01*
X562945D01*
Y653551D01*
X561004D01*
Y647891D01*
X557834Y644721D01*
X557613Y644390D01*
X557536Y644000D01*
Y586000D01*
X557613Y585610D01*
X557834Y585279D01*
X561004Y582109D01*
Y576449D01*
X562945D01*
Y573551D01*
X561004D01*
Y566449D01*
X566925D01*
Y573551D01*
X564984D01*
Y576449D01*
X566925D01*
Y583551D01*
X562446D01*
X559575Y586422D01*
Y643578D01*
X562446Y646449D01*
X566925D01*
Y653551D01*
X564984D01*
Y656449D01*
X566925D01*
Y663551D01*
X562446D01*
X559020Y666977D01*
Y741578D01*
X562721Y745279D01*
X562942Y745610D01*
X563020Y746000D01*
Y754052D01*
X596044D01*
X596077Y753803D01*
X596380Y753074D01*
X596860Y752447D01*
X597487Y751966D01*
X598217Y751664D01*
X599000Y751561D01*
X599783Y751664D01*
X600513Y751966D01*
X601140Y752447D01*
X601620Y753074D01*
X601923Y753803D01*
X601956Y754052D01*
X620963D01*
X621024Y753969D01*
X620903Y753289D01*
X620788Y753212D01*
X620416Y752656D01*
X620286Y752000D01*
X620416Y751344D01*
X620788Y750788D01*
X621344Y750416D01*
X622000Y750286D01*
X622656Y750416D01*
X623212Y750788D01*
X623341Y750980D01*
X626318D01*
X627059Y750239D01*
Y748993D01*
X626595Y748688D01*
X626559Y748693D01*
X626212Y749212D01*
X625656Y749584D01*
X625000Y749714D01*
X624344Y749584D01*
X623788Y749212D01*
X623659Y749020D01*
X622000D01*
X621610Y748942D01*
X621279Y748721D01*
X620605Y748047D01*
X612673D01*
Y748709D01*
X606358D01*
Y745346D01*
Y742787D01*
Y740228D01*
Y737669D01*
Y735110D01*
Y732551D01*
Y729992D01*
Y727020D01*
X594784D01*
Y743479D01*
X594784Y743479D01*
X594649Y744162D01*
X594262Y744740D01*
X594262Y744740D01*
X590782Y748220D01*
X590203Y748607D01*
X589520Y748743D01*
X586831D01*
X586484Y748812D01*
X585965Y748709D01*
X583327D01*
Y745094D01*
X574716D01*
X574090Y745721D01*
X573759Y745942D01*
X573369Y746020D01*
X572341D01*
X572212Y746212D01*
X571656Y746584D01*
X571000Y746714D01*
X570344Y746584D01*
X569788Y746212D01*
X569416Y745656D01*
X569286Y745000D01*
X569416Y744344D01*
X569788Y743788D01*
X570344Y743416D01*
X571000Y743286D01*
X571656Y743416D01*
X572212Y743788D01*
X572341Y743980D01*
X572946D01*
X573573Y743354D01*
X573904Y743133D01*
X574294Y743055D01*
X583327D01*
Y742535D01*
X581516D01*
X581126Y742458D01*
X580795Y742237D01*
X579578Y741020D01*
X572341D01*
X572212Y741212D01*
X571656Y741584D01*
X571000Y741714D01*
X570344Y741584D01*
X569788Y741212D01*
X569416Y740656D01*
X569286Y740000D01*
X569416Y739344D01*
X569788Y738788D01*
X570344Y738416D01*
X571000Y738286D01*
X571656Y738416D01*
X572212Y738788D01*
X572341Y738980D01*
X579831D01*
X580052Y738535D01*
X580056Y738498D01*
X577578Y736020D01*
X572341D01*
X572212Y736212D01*
X571656Y736584D01*
X571000Y736714D01*
X570344Y736584D01*
X569788Y736212D01*
X569416Y735656D01*
X569286Y735000D01*
X569416Y734344D01*
X569788Y733788D01*
X570344Y733416D01*
X571000Y733286D01*
X571656Y733416D01*
X572212Y733788D01*
X572341Y733980D01*
X577831D01*
X578052Y733535D01*
X578056Y733498D01*
X575578Y731020D01*
X572341D01*
X572212Y731212D01*
X571656Y731584D01*
X571000Y731714D01*
X570344Y731584D01*
X569788Y731212D01*
X569416Y730656D01*
X569286Y730000D01*
X569416Y729344D01*
X569788Y728788D01*
X570344Y728416D01*
X571000Y728286D01*
X571656Y728416D01*
X572212Y728788D01*
X572341Y728980D01*
X575831D01*
X576052Y728535D01*
X576056Y728498D01*
X573578Y726020D01*
X572341D01*
X572212Y726212D01*
X571656Y726584D01*
X571000Y726714D01*
X570344Y726584D01*
X569788Y726212D01*
X569416Y725656D01*
X569286Y725000D01*
X569416Y724344D01*
X569788Y723788D01*
X570344Y723416D01*
X571000Y723286D01*
X571656Y723416D01*
X572212Y723788D01*
X572341Y723980D01*
X573831D01*
X574052Y723535D01*
X574056Y723498D01*
X571955Y721397D01*
X571614Y721626D01*
X570958Y721756D01*
X570302Y721626D01*
X569746Y721254D01*
X569374Y720698D01*
X569244Y720042D01*
X569374Y719386D01*
X569746Y718830D01*
X570302Y718459D01*
X570958Y718328D01*
X571560Y718448D01*
X571779Y718314D01*
X572004Y718118D01*
X571980Y718000D01*
Y717544D01*
X571126Y716689D01*
X571000Y716714D01*
X570344Y716584D01*
X569788Y716212D01*
X569416Y715656D01*
X569286Y715000D01*
X569416Y714344D01*
X569788Y713788D01*
X570344Y713416D01*
X571000Y713286D01*
X571656Y713416D01*
X572212Y713788D01*
X572480Y714190D01*
X572980Y714038D01*
Y713422D01*
X571227Y711669D01*
X571000Y711714D01*
X570344Y711584D01*
X569788Y711212D01*
X569416Y710656D01*
X569286Y710000D01*
X569416Y709344D01*
X569788Y708788D01*
X570344Y708416D01*
X571000Y708286D01*
X571656Y708416D01*
X572212Y708788D01*
X572584Y709344D01*
X572714Y710000D01*
X572669Y710227D01*
X574302Y711860D01*
X574802Y711653D01*
Y674971D01*
X573381Y673551D01*
X569075D01*
Y666449D01*
X571016D01*
Y663551D01*
X569075D01*
Y656449D01*
X574996D01*
Y663551D01*
X573055D01*
Y666449D01*
X574996D01*
Y671862D01*
X575016Y671961D01*
Y672302D01*
X575840Y673126D01*
X576302Y672934D01*
Y656334D01*
X573519Y653551D01*
X569075D01*
Y646449D01*
X570980D01*
Y643551D01*
X569075D01*
Y636449D01*
X574996D01*
Y643551D01*
X573020D01*
Y646449D01*
X574996D01*
Y652145D01*
X577340Y654488D01*
X577802Y654297D01*
Y597767D01*
X573586Y593551D01*
X569075D01*
Y586449D01*
X571016D01*
Y583551D01*
X569075D01*
Y576449D01*
X574996D01*
Y583551D01*
X573055D01*
Y586449D01*
X574996D01*
Y592078D01*
X578840Y595922D01*
X579302Y595730D01*
Y578708D01*
X574145Y573551D01*
X569075D01*
Y566449D01*
X571016D01*
Y563551D01*
X569075D01*
Y556449D01*
X574996D01*
Y563551D01*
X573055D01*
Y566449D01*
X574996D01*
Y571519D01*
X581042Y577565D01*
X581263Y577896D01*
X581341Y578286D01*
Y604181D01*
X581803Y604373D01*
X585692Y600483D01*
X590770Y605561D01*
X585692Y610639D01*
X581803Y606750D01*
X581341Y606941D01*
Y684890D01*
X581803Y685081D01*
X582446Y684438D01*
X584278Y686270D01*
X582446Y688102D01*
X581803Y687458D01*
X581341Y687650D01*
Y693316D01*
X581841Y693583D01*
X582091Y693416D01*
X582747Y693286D01*
X583403Y693416D01*
X583959Y693788D01*
X584330Y694344D01*
X584461Y695000D01*
X584458Y695016D01*
X585854Y696412D01*
X590089D01*
X590250Y695938D01*
X590202Y695902D01*
X589627Y695152D01*
X589265Y694278D01*
X589142Y693341D01*
X589265Y692404D01*
X589627Y691530D01*
X590202Y690780D01*
X590952Y690204D01*
X591826Y689843D01*
X592763Y689719D01*
X593700Y689843D01*
X594574Y690204D01*
X595324Y690780D01*
X595899Y691530D01*
X595910Y691557D01*
X622430D01*
X623113Y691692D01*
X623692Y692079D01*
X653635Y722022D01*
X654000Y721974D01*
X654783Y722077D01*
X655513Y722379D01*
X656140Y722860D01*
X656621Y723487D01*
X656923Y724217D01*
X657026Y725000D01*
X656923Y725783D01*
X656621Y726513D01*
X656140Y727140D01*
X655513Y727621D01*
X654783Y727923D01*
X654000Y728026D01*
X653217Y727923D01*
X652487Y727621D01*
X651860Y727140D01*
X651379Y726513D01*
X651077Y725783D01*
X650974Y725000D01*
X651043Y724477D01*
X636395Y709829D01*
X635933Y710021D01*
Y711681D01*
X627059D01*
Y711020D01*
X626233D01*
X626081Y711520D01*
X626212Y711607D01*
X626584Y712163D01*
X626714Y712819D01*
X626666Y713061D01*
X627124Y713319D01*
X635933D01*
Y716681D01*
X627551D01*
X627073Y716681D01*
X627019Y716733D01*
X626870Y717006D01*
X626827Y717089D01*
X626793Y717163D01*
X626854Y717466D01*
X626924Y717819D01*
X626912Y717880D01*
X627334Y718319D01*
X635933D01*
Y721681D01*
X627059D01*
Y721020D01*
X626414D01*
X626262Y721520D01*
X626393Y721607D01*
X626765Y722163D01*
X626895Y722819D01*
X626880Y722893D01*
X627306Y723319D01*
X635933D01*
Y726681D01*
X627059D01*
Y726044D01*
X626270D01*
X626118Y726544D01*
X626212Y726607D01*
X626584Y727163D01*
X626714Y727819D01*
X626666Y728061D01*
X627124Y728319D01*
X635933D01*
Y731681D01*
X627551D01*
X627073Y731681D01*
X627019Y731733D01*
X626870Y732006D01*
X626827Y732089D01*
X626793Y732163D01*
X626854Y732467D01*
X626924Y732819D01*
X626912Y732880D01*
X627334Y733319D01*
X635933D01*
Y736681D01*
X627551D01*
X627073Y736681D01*
X627019Y736733D01*
X626870Y737006D01*
X626827Y737089D01*
X626793Y737163D01*
X626854Y737466D01*
X626924Y737819D01*
X626912Y737880D01*
X627334Y738319D01*
X635933D01*
Y741681D01*
X627059D01*
Y741020D01*
X626233D01*
X626081Y741520D01*
X626212Y741607D01*
X626584Y742163D01*
X626714Y742819D01*
X626666Y743061D01*
X627124Y743319D01*
X635933D01*
Y746681D01*
X627059D01*
Y746020D01*
X625962D01*
X625810Y746520D01*
X626212Y746788D01*
X626584Y747344D01*
X626707Y747965D01*
X626811Y748069D01*
X627160Y748319D01*
X627219D01*
X627219Y748319D01*
X627219Y748319D01*
X630977D01*
X631496Y748216D01*
X655691D01*
X656374Y748351D01*
X656953Y748738D01*
X659267Y751052D01*
X663748D01*
X663811Y751000D01*
X668504D01*
Y749000D01*
X664067D01*
Y748319D01*
X667985D01*
X668504Y748216D01*
X670358D01*
X671430Y747143D01*
X671239Y746681D01*
X664067D01*
Y743319D01*
X672941D01*
Y744979D01*
X673403Y745171D01*
X674378Y744195D01*
X674957Y743808D01*
X675640Y743672D01*
X675640Y743672D01*
X678449D01*
Y741004D01*
X681000D01*
Y744457D01*
X683000D01*
Y741004D01*
X685551D01*
Y742672D01*
X697457D01*
X698139Y742808D01*
X698718Y743195D01*
X698972Y743449D01*
X699000D01*
Y747000D01*
X700000D01*
D01*
X699000D01*
Y750551D01*
X696449D01*
Y746241D01*
X685551D01*
Y747909D01*
X685551D01*
Y748091D01*
X685551D01*
Y754980D01*
X686304D01*
X686575Y754575D01*
X687154Y754188D01*
X687837Y754052D01*
X699424D01*
X702463Y751013D01*
X702272Y750551D01*
X701000D01*
Y748000D01*
X703551D01*
Y749272D01*
X704013Y749464D01*
X707180Y746297D01*
Y736703D01*
X700934Y730457D01*
X700927Y730460D01*
X700000Y730582D01*
X699073Y730460D01*
X698209Y730102D01*
X697467Y729533D01*
X696898Y728791D01*
X696579Y728020D01*
X673434D01*
X673176Y728192D01*
X672941Y728590D01*
X672941Y731681D01*
X664067D01*
Y728736D01*
X664055Y728466D01*
X663657Y728192D01*
X663628Y728172D01*
X663326Y727971D01*
X653029Y717674D01*
X652808Y717343D01*
X652730Y716953D01*
Y704250D01*
X652808Y703860D01*
X653029Y703529D01*
X657730Y698828D01*
Y666172D01*
X655275Y663717D01*
X655164Y663551D01*
X651075D01*
Y656449D01*
X653016D01*
Y653520D01*
X651075D01*
Y646417D01*
X655554D01*
X656980Y644991D01*
Y643520D01*
X651075D01*
Y637859D01*
X648540Y635324D01*
X648319Y634993D01*
X648241Y634603D01*
Y634515D01*
X647788Y634212D01*
X647416Y633656D01*
X647286Y633000D01*
X647416Y632344D01*
X647788Y631788D01*
X648344Y631416D01*
X649000Y631286D01*
X649656Y631416D01*
X650212Y631788D01*
X650584Y632344D01*
X650714Y633000D01*
X650584Y633656D01*
X650280Y634110D01*
Y634181D01*
X652517Y636417D01*
X656980D01*
Y593551D01*
X652517D01*
X650280Y595788D01*
Y595890D01*
X650584Y596344D01*
X650714Y597000D01*
X650584Y597656D01*
X650212Y598212D01*
X649656Y598584D01*
X649000Y598714D01*
X648344Y598584D01*
X647788Y598212D01*
X647416Y597656D01*
X647286Y597000D01*
X647416Y596344D01*
X647788Y595788D01*
X648241Y595485D01*
Y595365D01*
X648319Y594975D01*
X648540Y594644D01*
X651075Y592109D01*
Y586449D01*
X656980D01*
Y584977D01*
X655554Y583551D01*
X651075D01*
Y576449D01*
X653016D01*
Y573551D01*
X651075D01*
Y566449D01*
X656996D01*
Y573551D01*
X655055D01*
Y576449D01*
X656996D01*
Y582109D01*
X658721Y583834D01*
X658942Y584165D01*
X659020Y584555D01*
Y624805D01*
X659520Y624957D01*
X659738Y624630D01*
X670772Y613596D01*
X670761Y613569D01*
X670638Y612632D01*
X670761Y611695D01*
X671123Y610821D01*
X671698Y610071D01*
X672448Y609496D01*
X673322Y609134D01*
X674259Y609011D01*
X675197Y609134D01*
X676070Y609496D01*
X676820Y610071D01*
X677395Y610821D01*
X677757Y611695D01*
X677881Y612632D01*
X677757Y613569D01*
X677395Y614443D01*
X676820Y615193D01*
X676070Y615768D01*
X675197Y616130D01*
X674259Y616254D01*
X673322Y616130D01*
X673295Y616119D01*
X662784Y626630D01*
Y684942D01*
X663246Y685134D01*
X663942Y684438D01*
X665774Y686270D01*
X663942Y688102D01*
X663246Y687406D01*
X662784Y687597D01*
Y698985D01*
X663284Y699192D01*
X669693Y692784D01*
X669693Y692783D01*
X670272Y692397D01*
X670808Y692290D01*
X671123Y691530D01*
X671698Y690780D01*
X672448Y690204D01*
X673322Y689843D01*
X674259Y689719D01*
X675197Y689843D01*
X676070Y690204D01*
X676820Y690780D01*
X677395Y691530D01*
X677757Y692404D01*
X677881Y693341D01*
X677757Y694278D01*
X677395Y695152D01*
X676820Y695902D01*
X676070Y696477D01*
X675196Y696839D01*
X674259Y696962D01*
X673322Y696839D01*
X672448Y696477D01*
X671698Y695902D01*
X671626Y695897D01*
X666034Y701489D01*
Y701507D01*
X665899Y702190D01*
X665512Y702769D01*
X664527Y703754D01*
X664718Y704216D01*
X680261D01*
X713091Y671386D01*
X712772Y670998D01*
X712132Y671425D01*
X710163Y672396D01*
X708084Y673102D01*
X705931Y673530D01*
X703740Y673674D01*
X701549Y673530D01*
X699396Y673102D01*
X697317Y672396D01*
X695348Y671425D01*
X693523Y670205D01*
X691872Y668758D01*
X690424Y667107D01*
X689205Y665282D01*
X688234Y663313D01*
X687528Y661234D01*
X687100Y659081D01*
X686956Y656890D01*
X687100Y654699D01*
X687528Y652546D01*
X688234Y650467D01*
X689205Y648498D01*
X690424Y646672D01*
X691872Y645022D01*
X693523Y643574D01*
X695348Y642354D01*
X697317Y641383D01*
X699396Y640678D01*
X701549Y640249D01*
X703740Y640106D01*
X705931Y640249D01*
X708084Y640678D01*
X710163Y641383D01*
X712132Y642354D01*
X713958Y643574D01*
X715608Y645022D01*
X717056Y646672D01*
X718275Y648498D01*
X719246Y650467D01*
X719952Y652546D01*
X720380Y654699D01*
X720524Y656890D01*
X720380Y659081D01*
X719952Y661234D01*
X719246Y663313D01*
X718275Y665282D01*
X717848Y665921D01*
X718236Y666240D01*
X729216Y655261D01*
Y571739D01*
X691185Y533708D01*
X677406D01*
X677395Y533734D01*
X676820Y534484D01*
X676070Y535060D01*
X675197Y535422D01*
X674259Y535545D01*
X673322Y535422D01*
X672448Y535060D01*
X671698Y534484D01*
X671123Y533734D01*
X670761Y532861D01*
X670638Y531923D01*
X670761Y530986D01*
X671123Y530113D01*
X671698Y529363D01*
X672448Y528787D01*
X673322Y528425D01*
X674259Y528302D01*
X675197Y528425D01*
X676070Y528787D01*
X676820Y529363D01*
X677395Y530113D01*
X677406Y530139D01*
X691924D01*
X692606Y530275D01*
X693185Y530662D01*
X731754Y569230D01*
X732216Y569039D01*
Y492739D01*
X692476Y452999D01*
X677406D01*
X677395Y453026D01*
X676820Y453776D01*
X676070Y454351D01*
X675197Y454713D01*
X674259Y454836D01*
X673322Y454713D01*
X672448Y454351D01*
X671698Y453776D01*
X671123Y453026D01*
X670761Y452152D01*
X670638Y451215D01*
X670761Y450278D01*
X671123Y449404D01*
X671698Y448654D01*
X672448Y448078D01*
X673322Y447717D01*
X674259Y447593D01*
X675197Y447717D01*
X676070Y448078D01*
X676820Y448654D01*
X677395Y449404D01*
X677406Y449431D01*
X693215D01*
X693898Y449566D01*
X694477Y449953D01*
X734754Y490230D01*
X735216Y490039D01*
Y416739D01*
X690767Y372290D01*
X677406D01*
X677395Y372317D01*
X676820Y373067D01*
X676070Y373643D01*
X675197Y374004D01*
X674259Y374128D01*
X673322Y374004D01*
X672448Y373643D01*
X671698Y373067D01*
X671123Y372317D01*
X670761Y371444D01*
X670638Y370506D01*
X670761Y369569D01*
X671123Y368695D01*
X671698Y367945D01*
X672448Y367370D01*
X673322Y367008D01*
X674259Y366885D01*
X675197Y367008D01*
X676070Y367370D01*
X676820Y367945D01*
X677395Y368695D01*
X677406Y368722D01*
X691506D01*
X692189Y368858D01*
X692768Y369245D01*
X737754Y414230D01*
X738216Y414039D01*
Y340739D01*
X689058Y291582D01*
X677406D01*
X677395Y291608D01*
X676820Y292358D01*
X676070Y292934D01*
X675197Y293296D01*
X674259Y293419D01*
X673322Y293296D01*
X672448Y292934D01*
X671698Y292358D01*
X671123Y291608D01*
X670761Y290735D01*
X670638Y289798D01*
X670761Y288860D01*
X671123Y287987D01*
X671698Y287237D01*
X672448Y286661D01*
X673322Y286299D01*
X674259Y286176D01*
X675197Y286299D01*
X676070Y286661D01*
X676820Y287237D01*
X677395Y287987D01*
X677406Y288013D01*
X689798D01*
X690480Y288149D01*
X691059Y288536D01*
X741262Y338738D01*
X741648Y339317D01*
X741784Y340000D01*
Y659728D01*
X741784Y659728D01*
X741648Y660411D01*
X741262Y660990D01*
X741262Y660990D01*
X699237Y703014D01*
X699471Y703488D01*
X700000Y703418D01*
X700927Y703540D01*
X701791Y703898D01*
X702533Y704467D01*
X703102Y705209D01*
X703460Y706073D01*
X703582Y707000D01*
X703460Y707927D01*
X703102Y708791D01*
X702533Y709533D01*
X701791Y710102D01*
X700927Y710460D01*
X700000Y710582D01*
X699073Y710460D01*
X698209Y710102D01*
X697467Y709533D01*
X696898Y708791D01*
X696540Y707927D01*
X696418Y707000D01*
X696488Y706470D01*
X696014Y706237D01*
X680468Y721783D01*
X679889Y722170D01*
X679751Y722197D01*
X679621Y722513D01*
X679140Y723140D01*
X678513Y723621D01*
X677783Y723923D01*
X677000Y724026D01*
X676217Y723923D01*
X675487Y723621D01*
X674860Y723140D01*
X674379Y722513D01*
X674077Y721783D01*
X673974Y721000D01*
X674077Y720217D01*
X674379Y719487D01*
X674860Y718860D01*
X675487Y718379D01*
X675750Y718271D01*
Y717729D01*
X675487Y717621D01*
X674860Y717140D01*
X674379Y716513D01*
X674077Y715783D01*
X673974Y715000D01*
X674077Y714217D01*
X674379Y713487D01*
X674860Y712860D01*
X675487Y712380D01*
X675717Y712284D01*
X675618Y711784D01*
X668504D01*
X667985Y711681D01*
X664067D01*
X663784Y712064D01*
Y712796D01*
X664204Y713216D01*
X668504D01*
X669023Y713319D01*
X672941D01*
Y716681D01*
X669023D01*
X668504Y716784D01*
X665847D01*
X665655Y717246D01*
X666728Y718319D01*
X672941D01*
Y721681D01*
X665989D01*
X665817Y721715D01*
X665645Y721681D01*
X664891D01*
X664684Y722181D01*
X665718Y723216D01*
X668504D01*
X669023Y723319D01*
X672941D01*
Y725902D01*
X673036Y725980D01*
X696579D01*
X696898Y725209D01*
X697467Y724467D01*
X698209Y723898D01*
X699073Y723540D01*
X700000Y723418D01*
X700927Y723540D01*
X701791Y723898D01*
X702533Y724467D01*
X703102Y725209D01*
X703460Y726073D01*
X703582Y727000D01*
X703460Y727927D01*
X703457Y727934D01*
X710226Y734703D01*
X710226Y734703D01*
X710613Y735282D01*
X710749Y735964D01*
X710749Y735964D01*
Y747036D01*
X710613Y747718D01*
X710226Y748297D01*
X701425Y757098D01*
X700846Y757485D01*
X700163Y757621D01*
X687837D01*
X687154Y757485D01*
X686575Y757098D01*
X686522Y757020D01*
X663819D01*
X663767Y757098D01*
X663188Y757485D01*
X662505Y757621D01*
X385927D01*
X385927Y757621D01*
D02*
G37*
G36*
X557000Y753026D02*
X556217Y752923D01*
X555487Y752621D01*
X554860Y752140D01*
X554380Y751513D01*
X554294Y751306D01*
X552996D01*
Y752551D01*
X546410D01*
X546091Y752551D01*
X545590Y752551D01*
X543457D01*
Y749000D01*
Y745449D01*
X545590D01*
X545910Y745449D01*
X546410Y745449D01*
X552996D01*
Y747737D01*
X555021D01*
X555487Y747379D01*
X556217Y747077D01*
X557000Y746974D01*
X557783Y747077D01*
X558513Y747379D01*
X559140Y747860D01*
X559621Y748487D01*
X559923Y749217D01*
X560026Y750000D01*
X559923Y750783D01*
X559621Y751513D01*
X559140Y752140D01*
X558513Y752621D01*
X557783Y752923D01*
X557000Y753026D01*
D02*
G37*
G36*
X541457Y752551D02*
X539004D01*
Y751306D01*
X536195D01*
X535683Y751649D01*
X535000Y751784D01*
X534317Y751649D01*
X533738Y751262D01*
X533352Y750683D01*
X533216Y750000D01*
X533352Y749317D01*
X533738Y748738D01*
X534217Y748260D01*
X534796Y747873D01*
X535478Y747737D01*
X535478Y747737D01*
X539004D01*
Y745449D01*
X541457D01*
Y749000D01*
Y752551D01*
D02*
G37*
G36*
X310457D02*
X308004D01*
Y751306D01*
X305195D01*
X304683Y751649D01*
X304000Y751784D01*
X303317Y751649D01*
X302738Y751262D01*
X302351Y750683D01*
X302216Y750000D01*
X302351Y749317D01*
X302738Y748738D01*
X303217Y748260D01*
X303796Y747873D01*
X304478Y747737D01*
X304478Y747737D01*
X308004D01*
Y745449D01*
X310457D01*
Y749000D01*
Y752551D01*
D02*
G37*
G36*
X703551Y746000D02*
X701000D01*
Y743449D01*
X703551D01*
Y746000D01*
D02*
G37*
G36*
X276386Y750795D02*
X268890D01*
Y743299D01*
X276386D01*
Y750795D01*
D02*
G37*
G36*
X672941Y741681D02*
X664067D01*
Y738319D01*
X672941D01*
Y741681D01*
D02*
G37*
G36*
X701000Y740430D02*
Y738000D01*
X703430D01*
X703102Y738791D01*
X702533Y739533D01*
X701791Y740102D01*
X701000Y740430D01*
D02*
G37*
G36*
X699000D02*
X698209Y740102D01*
X697467Y739533D01*
X696898Y738791D01*
X696570Y738000D01*
X699000D01*
Y740430D01*
D02*
G37*
G36*
X703430Y736000D02*
X701000D01*
Y733570D01*
X701791Y733898D01*
X702533Y734467D01*
X703102Y735209D01*
X703430Y736000D01*
D02*
G37*
G36*
X699000D02*
X696570D01*
X696898Y735209D01*
X697467Y734467D01*
X698209Y733898D01*
X699000Y733570D01*
Y736000D01*
D02*
G37*
G36*
X672941Y736681D02*
X664067D01*
Y733319D01*
X672941D01*
Y736681D01*
D02*
G37*
G36*
X272638Y740828D02*
X271659Y740699D01*
X270748Y740321D01*
X269965Y739720D01*
X269364Y738937D01*
X268986Y738026D01*
X268857Y737047D01*
X268986Y736069D01*
X269364Y735157D01*
X269965Y734374D01*
X270748Y733773D01*
X271659Y733396D01*
X272638Y733267D01*
X273616Y733396D01*
X274528Y733773D01*
X275311Y734374D01*
X275912Y735157D01*
X276289Y736069D01*
X276418Y737047D01*
X276289Y738026D01*
X275912Y738937D01*
X275311Y739720D01*
X274528Y740321D01*
X273616Y740699D01*
X272638Y740828D01*
D02*
G37*
G36*
X273638Y720690D02*
Y718047D01*
X276280D01*
X275912Y718937D01*
X275311Y719720D01*
X274528Y720321D01*
X273638Y720690D01*
D02*
G37*
G36*
X271638Y720690D02*
X270748Y720321D01*
X269965Y719720D01*
X269364Y718937D01*
X268995Y718047D01*
X271638D01*
Y720690D01*
D02*
G37*
G36*
X700000Y720582D02*
X699073Y720460D01*
X698209Y720102D01*
X697467Y719533D01*
X696898Y718791D01*
X696540Y717927D01*
X696418Y717000D01*
X696540Y716073D01*
X696898Y715209D01*
X697467Y714467D01*
X698209Y713898D01*
X699073Y713540D01*
X700000Y713418D01*
X700927Y713540D01*
X701791Y713898D01*
X702533Y714467D01*
X703102Y715209D01*
X703460Y716073D01*
X703582Y717000D01*
X703460Y717927D01*
X703102Y718791D01*
X702533Y719533D01*
X701791Y720102D01*
X700927Y720460D01*
X700000Y720582D01*
D02*
G37*
G36*
X271638Y716047D02*
X268995D01*
X269364Y715157D01*
X269965Y714374D01*
X270748Y713773D01*
X271638Y713405D01*
Y716047D01*
D02*
G37*
G36*
X276280D02*
X273638D01*
Y713405D01*
X274528Y713773D01*
X275311Y714374D01*
X275912Y715157D01*
X276280Y716047D01*
D02*
G37*
G36*
X273638Y710690D02*
Y708047D01*
X276280D01*
X275912Y708937D01*
X275311Y709720D01*
X274528Y710321D01*
X273638Y710690D01*
D02*
G37*
G36*
X271638Y710690D02*
X270748Y710321D01*
X269965Y709720D01*
X269364Y708937D01*
X268995Y708047D01*
X271638D01*
Y710690D01*
D02*
G37*
G36*
X436000Y738026D02*
X435217Y737923D01*
X434487Y737620D01*
X433860Y737140D01*
X433380Y736513D01*
X433077Y735783D01*
X432974Y735000D01*
X433077Y734217D01*
X433380Y733487D01*
X433860Y732860D01*
X434216Y732588D01*
Y710739D01*
X427261Y703784D01*
X391412D01*
X391140Y704140D01*
X390513Y704621D01*
X389783Y704923D01*
X389000Y705026D01*
X388217Y704923D01*
X387487Y704621D01*
X386860Y704140D01*
X386380Y703513D01*
X386077Y702783D01*
X385974Y702000D01*
X386077Y701217D01*
X386380Y700487D01*
X386860Y699860D01*
X387487Y699379D01*
X388217Y699077D01*
X389000Y698974D01*
X389783Y699077D01*
X390513Y699379D01*
X391140Y699860D01*
X391412Y700216D01*
X428000D01*
X428683Y700351D01*
X429262Y700738D01*
X437262Y708738D01*
X437648Y709317D01*
X437784Y710000D01*
X437784Y710000D01*
Y732588D01*
X438140Y732860D01*
X438621Y733487D01*
X438923Y734217D01*
X439026Y735000D01*
X438923Y735783D01*
X438621Y736513D01*
X438140Y737140D01*
X437513Y737620D01*
X436783Y737923D01*
X436000Y738026D01*
D02*
G37*
G36*
X271638Y706047D02*
X268995D01*
X269364Y705157D01*
X269965Y704374D01*
X270748Y703773D01*
X271638Y703405D01*
Y706047D01*
D02*
G37*
G36*
X276280D02*
X273638D01*
Y703405D01*
X274528Y703773D01*
X275311Y704374D01*
X275912Y705157D01*
X276280Y706047D01*
D02*
G37*
G36*
X511267Y697159D02*
X510330Y697036D01*
X509456Y696674D01*
X508706Y696099D01*
X508131Y695349D01*
X507769Y694475D01*
X507646Y693538D01*
X507769Y692600D01*
X508131Y691727D01*
X508706Y690977D01*
X509456Y690401D01*
X510330Y690040D01*
X511267Y689916D01*
X512204Y690040D01*
X513078Y690401D01*
X513828Y690977D01*
X514403Y691727D01*
X514765Y692600D01*
X514888Y693538D01*
X514765Y694475D01*
X514403Y695349D01*
X513828Y696099D01*
X513078Y696674D01*
X512204Y697036D01*
X511267Y697159D01*
D02*
G37*
G36*
X429771Y696962D02*
X428834Y696839D01*
X427960Y696477D01*
X427210Y695902D01*
X426635Y695152D01*
X426273Y694278D01*
X426149Y693341D01*
X426273Y692404D01*
X426635Y691530D01*
X427210Y690780D01*
X427960Y690204D01*
X428834Y689843D01*
X429771Y689719D01*
X430708Y689843D01*
X431582Y690204D01*
X432332Y690780D01*
X432907Y691530D01*
X433269Y692404D01*
X433392Y693341D01*
X433269Y694278D01*
X432907Y695152D01*
X432332Y695902D01*
X431582Y696477D01*
X430708Y696839D01*
X429771Y696962D01*
D02*
G37*
G36*
X348275D02*
X347338Y696839D01*
X346464Y696477D01*
X345714Y695902D01*
X345139Y695152D01*
X344777Y694278D01*
X344653Y693341D01*
X344777Y692404D01*
X345139Y691530D01*
X345714Y690780D01*
X346464Y690204D01*
X347338Y689843D01*
X348275Y689719D01*
X349212Y689843D01*
X350086Y690204D01*
X350836Y690780D01*
X351411Y691530D01*
X351773Y692404D01*
X351896Y693341D01*
X351773Y694278D01*
X351411Y695152D01*
X350836Y695902D01*
X350086Y696477D01*
X349212Y696839D01*
X348275Y696962D01*
D02*
G37*
G36*
X504196Y691544D02*
X502364Y689713D01*
X504196Y687881D01*
X506028Y689713D01*
X504196Y691544D01*
D02*
G37*
G36*
X667188Y691348D02*
X665356Y689516D01*
X667188Y687684D01*
X669020Y689516D01*
X667188Y691348D01*
D02*
G37*
G36*
X341204D02*
X339372Y689516D01*
X341204Y687684D01*
X343036Y689516D01*
X341204Y691348D01*
D02*
G37*
G36*
X585692D02*
X583860Y689516D01*
X585692Y687684D01*
X587524Y689516D01*
X585692Y691348D01*
D02*
G37*
G36*
X422700D02*
X420868Y689516D01*
X422700Y687684D01*
X424532Y689516D01*
X422700Y691348D01*
D02*
G37*
G36*
X500950Y688298D02*
X499118Y686467D01*
X500950Y684635D01*
X502782Y686467D01*
X500950Y688298D01*
D02*
G37*
G36*
X507442Y688298D02*
X505610Y686467D01*
X507442Y684635D01*
X509274Y686467D01*
X507442Y688298D01*
D02*
G37*
G36*
X670434Y688102D02*
X668602Y686270D01*
X670434Y684438D01*
X672266Y686270D01*
X670434Y688102D01*
D02*
G37*
G36*
X344450D02*
X342618Y686270D01*
X344450Y684438D01*
X346282Y686270D01*
X344450Y688102D01*
D02*
G37*
G36*
X588938Y688102D02*
X587106Y686270D01*
X588938Y684438D01*
X590770Y686270D01*
X588938Y688102D01*
D02*
G37*
G36*
X425946D02*
X424114Y686270D01*
X425946Y684438D01*
X427778Y686270D01*
X425946Y688102D01*
D02*
G37*
G36*
X337958Y688102D02*
X336126Y686270D01*
X337958Y684438D01*
X339790Y686270D01*
X337958Y688102D01*
D02*
G37*
G36*
X419454D02*
X417622Y686270D01*
X419454Y684438D01*
X421286Y686270D01*
X419454Y688102D01*
D02*
G37*
G36*
X504196Y685052D02*
X502364Y683221D01*
X504196Y681389D01*
X506028Y683221D01*
X504196Y685052D01*
D02*
G37*
G36*
X454000Y753026D02*
X453217Y752923D01*
X452487Y752621D01*
X451860Y752140D01*
X451379Y751513D01*
X451077Y750783D01*
X450974Y750000D01*
X451077Y749217D01*
X451379Y748487D01*
X451860Y747860D01*
X452216Y747588D01*
Y683254D01*
X450246Y681284D01*
X449784Y681476D01*
Y742588D01*
X450140Y742860D01*
X450621Y743487D01*
X450923Y744217D01*
X451026Y745000D01*
X450923Y745783D01*
X450621Y746513D01*
X450140Y747140D01*
X449513Y747620D01*
X448783Y747923D01*
X448000Y748026D01*
X447217Y747923D01*
X446487Y747620D01*
X445860Y747140D01*
X445379Y746513D01*
X445077Y745783D01*
X444974Y745000D01*
X445077Y744217D01*
X445379Y743487D01*
X445860Y742860D01*
X446216Y742588D01*
Y681496D01*
X444246Y679527D01*
X443784Y679718D01*
Y737588D01*
X444140Y737860D01*
X444621Y738487D01*
X444923Y739217D01*
X445026Y740000D01*
X444923Y740783D01*
X444621Y741513D01*
X444140Y742140D01*
X443513Y742621D01*
X442783Y742923D01*
X442000Y743026D01*
X441217Y742923D01*
X440487Y742621D01*
X439860Y742140D01*
X439380Y741513D01*
X439077Y740783D01*
X438974Y740000D01*
X439077Y739217D01*
X439380Y738487D01*
X439860Y737860D01*
X440216Y737588D01*
Y679739D01*
X425738Y665262D01*
X425351Y664683D01*
X425216Y664000D01*
Y641739D01*
X397893Y614417D01*
X351422D01*
X351411Y614443D01*
X350836Y615193D01*
X350086Y615768D01*
X349212Y616130D01*
X348275Y616254D01*
X347338Y616130D01*
X346464Y615768D01*
X345714Y615193D01*
X345139Y614443D01*
X344777Y613569D01*
X344653Y612632D01*
X344777Y611695D01*
X345139Y610821D01*
X345714Y610071D01*
X346464Y609496D01*
X347338Y609134D01*
X348275Y609011D01*
X349212Y609134D01*
X350086Y609496D01*
X350836Y610071D01*
X351411Y610821D01*
X351422Y610848D01*
X398632D01*
X398764Y610874D01*
X399216Y610454D01*
Y566739D01*
X366184Y533708D01*
X351422D01*
X351411Y533734D01*
X350836Y534484D01*
X350086Y535060D01*
X349212Y535422D01*
X348275Y535545D01*
X347338Y535422D01*
X346464Y535060D01*
X345714Y534484D01*
X345139Y533734D01*
X344777Y532861D01*
X344653Y531923D01*
X344777Y530986D01*
X345139Y530113D01*
X345714Y529363D01*
X346464Y528787D01*
X347338Y528425D01*
X348275Y528302D01*
X349212Y528425D01*
X350086Y528787D01*
X350836Y529363D01*
X351411Y530113D01*
X351422Y530139D01*
X366923D01*
X367606Y530275D01*
X368185Y530662D01*
X401754Y564230D01*
X402216Y564039D01*
Y489739D01*
X366180Y453703D01*
X350891D01*
X350836Y453776D01*
X350086Y454351D01*
X349212Y454713D01*
X348275Y454836D01*
X347338Y454713D01*
X346464Y454351D01*
X345714Y453776D01*
X345139Y453026D01*
X344777Y452152D01*
X344653Y451215D01*
X344777Y450278D01*
X345139Y449404D01*
X345714Y448654D01*
X346464Y448078D01*
X347338Y447717D01*
X348275Y447593D01*
X349212Y447717D01*
X350086Y448078D01*
X350836Y448654D01*
X351411Y449404D01*
X351714Y450135D01*
X366919D01*
X367602Y450271D01*
X368181Y450658D01*
X405262Y487738D01*
X405649Y488317D01*
X405784Y489000D01*
Y608776D01*
X434262Y637253D01*
X434262Y637253D01*
X434649Y637832D01*
X434784Y638515D01*
Y660776D01*
X455262Y681253D01*
X455262Y681253D01*
X455649Y681832D01*
X455784Y682515D01*
Y747588D01*
X456140Y747860D01*
X456621Y748487D01*
X456923Y749217D01*
X457026Y750000D01*
X456923Y750783D01*
X456621Y751513D01*
X456140Y752140D01*
X455513Y752621D01*
X454783Y752923D01*
X454000Y753026D01*
D02*
G37*
G36*
X667188Y684856D02*
X665356Y683024D01*
X667188Y681192D01*
X669020Y683024D01*
X667188Y684856D01*
D02*
G37*
G36*
X585692Y684856D02*
X583860Y683024D01*
X585692Y681192D01*
X587524Y683024D01*
X585692Y684856D01*
D02*
G37*
G36*
X422700D02*
X420868Y683024D01*
X422700Y681192D01*
X424532Y683024D01*
X422700Y684856D01*
D02*
G37*
G36*
X341204Y684856D02*
X339372Y683024D01*
X341204Y681192D01*
X343036Y683024D01*
X341204Y684856D01*
D02*
G37*
G36*
X648925Y673551D02*
X643004D01*
Y671020D01*
X642522D01*
X642393Y671212D01*
X641837Y671584D01*
X641181Y671714D01*
X640525Y671584D01*
X639969Y671212D01*
X639598Y670656D01*
X639467Y670000D01*
X639598Y669344D01*
X639969Y668788D01*
X640525Y668416D01*
X641181Y668286D01*
X641837Y668416D01*
X642393Y668788D01*
X642522Y668980D01*
X643004D01*
Y666449D01*
X644945D01*
Y663551D01*
X643004D01*
Y656449D01*
X648925D01*
Y663551D01*
X646984D01*
Y666449D01*
X648925D01*
Y673551D01*
D02*
G37*
G36*
X654176Y679463D02*
X653520Y679332D01*
X652964Y678961D01*
X652592Y678405D01*
X652462Y677749D01*
X652592Y677093D01*
X652964Y676537D01*
X653016Y676502D01*
Y673551D01*
X651075D01*
Y666449D01*
X656996D01*
Y673551D01*
X655055D01*
Y676315D01*
X655388Y676537D01*
X655759Y677093D01*
X655890Y677749D01*
X655759Y678405D01*
X655388Y678961D01*
X654832Y679332D01*
X654176Y679463D01*
D02*
G37*
G36*
X564000Y698714D02*
X563344Y698584D01*
X562788Y698212D01*
X562416Y697656D01*
X562286Y697000D01*
X562416Y696344D01*
X562788Y695788D01*
X562980Y695659D01*
Y673551D01*
X561004D01*
Y666449D01*
X566925D01*
Y673551D01*
X565020D01*
Y695659D01*
X565212Y695788D01*
X565584Y696344D01*
X565714Y697000D01*
X565584Y697656D01*
X565212Y698212D01*
X564656Y698584D01*
X564000Y698714D01*
D02*
G37*
G36*
X411996Y673551D02*
X406075D01*
Y666449D01*
X411996D01*
Y668216D01*
X416000D01*
X416683Y668352D01*
X417262Y668738D01*
X417649Y669317D01*
X417784Y670000D01*
X417649Y670683D01*
X417262Y671262D01*
X416683Y671649D01*
X416000Y671784D01*
X411996D01*
Y673551D01*
D02*
G37*
G36*
X346000Y678714D02*
X345344Y678584D01*
X344788Y678212D01*
X344416Y677656D01*
X344286Y677000D01*
X344416Y676344D01*
X344788Y675788D01*
X344945Y675683D01*
Y673551D01*
X343004D01*
Y666449D01*
X348925D01*
Y673551D01*
X346984D01*
Y675636D01*
X347212Y675788D01*
X347584Y676344D01*
X347714Y677000D01*
X347584Y677656D01*
X347212Y678212D01*
X346656Y678584D01*
X346000Y678714D01*
D02*
G37*
G36*
X648925Y653520D02*
X643004D01*
Y651020D01*
X642341D01*
X642212Y651212D01*
X641656Y651584D01*
X641000Y651714D01*
X640344Y651584D01*
X639788Y651212D01*
X639416Y650656D01*
X639286Y650000D01*
X639416Y649344D01*
X639788Y648788D01*
X640344Y648416D01*
X641000Y648286D01*
X641656Y648416D01*
X642212Y648788D01*
X642341Y648980D01*
X643004D01*
Y646417D01*
X644945D01*
Y643520D01*
X643004D01*
Y636417D01*
X648925D01*
Y643520D01*
X646984D01*
Y646417D01*
X648925D01*
Y653520D01*
D02*
G37*
G36*
X540748Y673871D02*
X538557Y673727D01*
X536404Y673299D01*
X534325Y672593D01*
X532356Y671622D01*
X530531Y670402D01*
X528880Y668955D01*
X527432Y667304D01*
X526213Y665479D01*
X525242Y663510D01*
X524536Y661431D01*
X524108Y659277D01*
X523964Y657087D01*
X524108Y654896D01*
X524536Y652743D01*
X525242Y650664D01*
X526213Y648695D01*
X527432Y646869D01*
X528880Y645219D01*
X530531Y643771D01*
X532356Y642551D01*
X534325Y641580D01*
X536404Y640874D01*
X538557Y640446D01*
X540748Y640303D01*
X542939Y640446D01*
X545092Y640874D01*
X547171Y641580D01*
X549140Y642551D01*
X550965Y643771D01*
X552616Y645219D01*
X554064Y646869D01*
X555283Y648695D01*
X556254Y650664D01*
X556960Y652743D01*
X557388Y654896D01*
X557532Y657087D01*
X557388Y659277D01*
X556960Y661431D01*
X556254Y663510D01*
X555283Y665479D01*
X554064Y667304D01*
X552616Y668955D01*
X550965Y670402D01*
X549140Y671622D01*
X547171Y672593D01*
X545092Y673299D01*
X542939Y673727D01*
X540748Y673871D01*
D02*
G37*
G36*
X592000Y678957D02*
X591317Y678821D01*
X590738Y678434D01*
X590351Y677855D01*
X590216Y677173D01*
Y634000D01*
X590351Y633317D01*
X590738Y632738D01*
X599462Y624015D01*
Y238273D01*
X599598Y237590D01*
X599984Y237011D01*
X600563Y236624D01*
X600796Y236578D01*
X600961Y236035D01*
X600187Y235262D01*
X599800Y234683D01*
X599664Y234000D01*
X599800Y233317D01*
X600187Y232738D01*
X600766Y232351D01*
X601449Y232216D01*
X602132Y232351D01*
X602710Y232738D01*
X605508Y235536D01*
X605508Y235536D01*
X605895Y236114D01*
X606030Y236797D01*
Y247452D01*
X606530Y247534D01*
X606738Y246923D01*
X607709Y244954D01*
X608928Y243129D01*
X610376Y241478D01*
X612027Y240031D01*
X613852Y238811D01*
X615821Y237840D01*
X617900Y237134D01*
X620053Y236706D01*
X622244Y236562D01*
X624435Y236706D01*
X626588Y237134D01*
X628667Y237840D01*
X630636Y238811D01*
X632462Y240031D01*
X634112Y241478D01*
X635560Y243129D01*
X636779Y244954D01*
X637750Y246923D01*
X638456Y249002D01*
X638884Y251156D01*
X639028Y253346D01*
X638884Y255537D01*
X638456Y257691D01*
X637750Y259769D01*
X636779Y261738D01*
X635560Y263564D01*
X634112Y265214D01*
X632462Y266662D01*
X630636Y267882D01*
X628667Y268853D01*
X626588Y269559D01*
X624435Y269987D01*
X622244Y270130D01*
X620053Y269987D01*
X617900Y269559D01*
X615821Y268853D01*
X613852Y267882D01*
X612027Y266662D01*
X610376Y265214D01*
X608928Y263564D01*
X607709Y261738D01*
X606738Y259769D01*
X606530Y259158D01*
X606030Y259241D01*
Y328161D01*
X606530Y328243D01*
X606738Y327632D01*
X607709Y325663D01*
X608928Y323838D01*
X610376Y322187D01*
X612027Y320740D01*
X613852Y319520D01*
X615821Y318549D01*
X617900Y317843D01*
X620053Y317415D01*
X622244Y317271D01*
X624435Y317415D01*
X626588Y317843D01*
X628667Y318549D01*
X630636Y319520D01*
X632462Y320740D01*
X634112Y322187D01*
X635560Y323838D01*
X636779Y325663D01*
X637750Y327632D01*
X638456Y329711D01*
X638884Y331864D01*
X639028Y334055D01*
X638884Y336246D01*
X638456Y338399D01*
X637750Y340478D01*
X636779Y342447D01*
X635560Y344272D01*
X634112Y345923D01*
X632462Y347371D01*
X630636Y348590D01*
X628667Y349562D01*
X626588Y350267D01*
X624435Y350695D01*
X622244Y350839D01*
X620053Y350695D01*
X617900Y350267D01*
X615821Y349562D01*
X613852Y348590D01*
X612027Y347371D01*
X610376Y345923D01*
X608928Y344272D01*
X607709Y342447D01*
X606738Y340478D01*
X606530Y339867D01*
X606030Y339950D01*
Y408869D01*
X606530Y408952D01*
X606738Y408341D01*
X607709Y406372D01*
X608928Y404546D01*
X610376Y402896D01*
X612027Y401448D01*
X613852Y400228D01*
X615821Y399257D01*
X617900Y398552D01*
X620053Y398123D01*
X622244Y397980D01*
X624435Y398123D01*
X626588Y398552D01*
X628667Y399257D01*
X630636Y400228D01*
X632462Y401448D01*
X634112Y402896D01*
X635560Y404546D01*
X636779Y406372D01*
X637750Y408341D01*
X638456Y410420D01*
X638884Y412573D01*
X639028Y414764D01*
X638884Y416955D01*
X638456Y419108D01*
X637750Y421187D01*
X636779Y423156D01*
X635560Y424981D01*
X634112Y426632D01*
X632462Y428079D01*
X630636Y429299D01*
X628667Y430270D01*
X626588Y430976D01*
X624435Y431404D01*
X622244Y431548D01*
X620053Y431404D01*
X617900Y430976D01*
X615821Y430270D01*
X613852Y429299D01*
X612027Y428079D01*
X610376Y426632D01*
X608928Y424981D01*
X607709Y423156D01*
X606738Y421187D01*
X606530Y420576D01*
X606030Y420658D01*
Y489578D01*
X606530Y489660D01*
X606738Y489049D01*
X607709Y487080D01*
X608928Y485255D01*
X610376Y483604D01*
X612027Y482157D01*
X613852Y480937D01*
X615821Y479966D01*
X617900Y479260D01*
X620053Y478832D01*
X622244Y478688D01*
X624435Y478832D01*
X626588Y479260D01*
X628667Y479966D01*
X630636Y480937D01*
X632462Y482157D01*
X634112Y483604D01*
X635560Y485255D01*
X636779Y487080D01*
X637750Y489049D01*
X638456Y491128D01*
X638884Y493282D01*
X639028Y495472D01*
X638884Y497663D01*
X638456Y499816D01*
X637750Y501895D01*
X636779Y503864D01*
X635560Y505690D01*
X634112Y507340D01*
X632462Y508788D01*
X630636Y510008D01*
X628667Y510979D01*
X626588Y511685D01*
X624435Y512113D01*
X622244Y512256D01*
X620053Y512113D01*
X617900Y511685D01*
X615821Y510979D01*
X613852Y510008D01*
X612027Y508788D01*
X610376Y507340D01*
X608928Y505690D01*
X607709Y503864D01*
X606738Y501895D01*
X606530Y501285D01*
X606030Y501367D01*
Y570287D01*
X606530Y570369D01*
X606738Y569758D01*
X607709Y567789D01*
X608928Y565964D01*
X610376Y564313D01*
X612027Y562865D01*
X613852Y561646D01*
X615821Y560675D01*
X617900Y559969D01*
X620053Y559541D01*
X622244Y559397D01*
X624435Y559541D01*
X626588Y559969D01*
X628667Y560675D01*
X630636Y561646D01*
X632462Y562865D01*
X634112Y564313D01*
X635560Y565964D01*
X636779Y567789D01*
X637750Y569758D01*
X638456Y571837D01*
X638884Y573990D01*
X638982Y575487D01*
X639451Y575663D01*
X643004Y572109D01*
Y566449D01*
X644945D01*
Y563551D01*
X643004D01*
Y556449D01*
X648925D01*
Y563551D01*
X646984D01*
Y566449D01*
X648925D01*
Y573551D01*
X644446D01*
X640512Y577485D01*
Y593358D01*
X640974Y593549D01*
X643004Y591519D01*
Y586449D01*
X644945D01*
Y583551D01*
X643004D01*
Y576449D01*
X648925D01*
Y583551D01*
X646984D01*
Y586449D01*
X648925D01*
Y593551D01*
X643855D01*
X605020Y632387D01*
Y655966D01*
X605520Y655982D01*
X605604Y654699D01*
X606032Y652546D01*
X606738Y650467D01*
X607709Y648498D01*
X608928Y646672D01*
X610376Y645022D01*
X612027Y643574D01*
X613852Y642354D01*
X615821Y641383D01*
X617900Y640678D01*
X620053Y640249D01*
X622244Y640106D01*
X624435Y640249D01*
X626588Y640678D01*
X628667Y641383D01*
X630636Y642354D01*
X632462Y643574D01*
X634112Y645022D01*
X635560Y646672D01*
X636779Y648498D01*
X637750Y650467D01*
X638456Y652546D01*
X638884Y654699D01*
X639028Y656890D01*
X638884Y659081D01*
X638456Y661234D01*
X637750Y663313D01*
X636779Y665282D01*
X635560Y667107D01*
X634112Y668758D01*
X632462Y670205D01*
X630636Y671425D01*
X628667Y672396D01*
X626588Y673102D01*
X624435Y673530D01*
X622244Y673674D01*
X620053Y673530D01*
X617900Y673102D01*
X615821Y672396D01*
X613852Y671425D01*
X612027Y670205D01*
X610376Y668758D01*
X608928Y667107D01*
X607709Y665282D01*
X606738Y663313D01*
X606032Y661234D01*
X605604Y659081D01*
X605520Y657797D01*
X605020Y657814D01*
Y675659D01*
X605212Y675788D01*
X605584Y676344D01*
X605714Y677000D01*
X605584Y677656D01*
X605212Y678212D01*
X604656Y678584D01*
X604000Y678714D01*
X603344Y678584D01*
X602788Y678212D01*
X602416Y677656D01*
X602286Y677000D01*
X602416Y676344D01*
X602788Y675788D01*
X602980Y675659D01*
Y632958D01*
X602519Y632767D01*
X601020Y634266D01*
Y675683D01*
X601285Y675861D01*
X601656Y676417D01*
X601787Y677073D01*
X601656Y677729D01*
X601285Y678285D01*
X600729Y678656D01*
X600073Y678787D01*
X599417Y678656D01*
X598861Y678285D01*
X598489Y677729D01*
X598359Y677073D01*
X598489Y676417D01*
X598861Y675861D01*
X598980Y675780D01*
Y634858D01*
X598519Y634666D01*
X597784Y635400D01*
Y677000D01*
X597648Y677683D01*
X597262Y678262D01*
X596683Y678649D01*
X596000Y678784D01*
X595317Y678649D01*
X594738Y678262D01*
X594351Y677683D01*
X594272Y677283D01*
X593762D01*
X593648Y677855D01*
X593262Y678434D01*
X592683Y678821D01*
X592000Y678957D01*
D02*
G37*
G36*
X459252Y673674D02*
X457061Y673530D01*
X454908Y673102D01*
X452829Y672396D01*
X450860Y671425D01*
X449035Y670205D01*
X447384Y668758D01*
X445936Y667107D01*
X444717Y665282D01*
X443746Y663313D01*
X443040Y661234D01*
X442612Y659081D01*
X442468Y656890D01*
X442612Y654699D01*
X443040Y652546D01*
X443746Y650467D01*
X444717Y648498D01*
X445936Y646672D01*
X447384Y645022D01*
X449035Y643574D01*
X450860Y642354D01*
X452829Y641383D01*
X454908Y640678D01*
X457061Y640249D01*
X459252Y640106D01*
X461443Y640249D01*
X463596Y640678D01*
X465675Y641383D01*
X467644Y642354D01*
X469469Y643574D01*
X471120Y645022D01*
X472568Y646672D01*
X473787Y648498D01*
X474758Y650467D01*
X475464Y652546D01*
X475892Y654699D01*
X476036Y656890D01*
X475892Y659081D01*
X475464Y661234D01*
X474758Y663313D01*
X473787Y665282D01*
X472568Y667107D01*
X471120Y668758D01*
X469469Y670205D01*
X467644Y671425D01*
X465675Y672396D01*
X463596Y673102D01*
X461443Y673530D01*
X459252Y673674D01*
D02*
G37*
G36*
X296260D02*
X294069Y673530D01*
X291916Y673102D01*
X289837Y672396D01*
X287868Y671425D01*
X286042Y670205D01*
X284392Y668758D01*
X282944Y667107D01*
X281725Y665282D01*
X280753Y663313D01*
X280048Y661234D01*
X279620Y659081D01*
X279476Y656890D01*
X279620Y654699D01*
X280048Y652546D01*
X280753Y650467D01*
X281725Y648498D01*
X282944Y646672D01*
X284392Y645022D01*
X286042Y643574D01*
X287868Y642354D01*
X289837Y641383D01*
X291916Y640678D01*
X294069Y640249D01*
X296260Y640106D01*
X298451Y640249D01*
X300604Y640678D01*
X302683Y641383D01*
X304652Y642354D01*
X306477Y643574D01*
X308128Y645022D01*
X309576Y646672D01*
X310795Y648498D01*
X311766Y650467D01*
X312472Y652546D01*
X312900Y654699D01*
X313044Y656890D01*
X312900Y659081D01*
X312472Y661234D01*
X311766Y663313D01*
X310795Y665282D01*
X309576Y667107D01*
X308128Y668758D01*
X306477Y670205D01*
X304652Y671425D01*
X302683Y672396D01*
X300604Y673102D01*
X298451Y673530D01*
X296260Y673674D01*
D02*
G37*
G36*
X566925Y643551D02*
X561004D01*
Y636449D01*
X562980D01*
Y633341D01*
X562788Y633212D01*
X562416Y632656D01*
X562286Y632000D01*
X562416Y631344D01*
X562788Y630788D01*
X563344Y630416D01*
X564000Y630286D01*
X564656Y630416D01*
X565212Y630788D01*
X565584Y631344D01*
X565714Y632000D01*
X565584Y632656D01*
X565212Y633212D01*
X565020Y633341D01*
Y636449D01*
X566925D01*
Y643551D01*
D02*
G37*
G36*
X332812Y632587D02*
X330980Y630756D01*
X332812Y628924D01*
X334644Y630756D01*
X332812Y632587D01*
D02*
G37*
G36*
X329566Y629342D02*
X327734Y627510D01*
X329566Y625678D01*
X331398Y627510D01*
X329566Y629342D01*
D02*
G37*
G36*
X336058Y629342D02*
X334226Y627510D01*
X336058Y625678D01*
X337890Y627510D01*
X336058Y629342D01*
D02*
G37*
G36*
X332812Y626095D02*
X330980Y624264D01*
X332812Y622432D01*
X334644Y624264D01*
X332812Y626095D01*
D02*
G37*
G36*
X325741Y624060D02*
X324803Y623937D01*
X323930Y623575D01*
X323180Y622999D01*
X322604Y622249D01*
X322243Y621376D01*
X322119Y620439D01*
X322243Y619501D01*
X322604Y618628D01*
X323180Y617878D01*
X323930Y617302D01*
X324803Y616940D01*
X325741Y616817D01*
X326678Y616940D01*
X327552Y617302D01*
X328302Y617878D01*
X328877Y618628D01*
X329239Y619501D01*
X329362Y620439D01*
X329239Y621376D01*
X328877Y622249D01*
X328302Y622999D01*
X327552Y623575D01*
X326678Y623937D01*
X325741Y624060D01*
D02*
G37*
G36*
X541000Y718526D02*
X540217Y718423D01*
X539487Y718120D01*
X538860Y717640D01*
X538379Y717013D01*
X538285Y716784D01*
X513374D01*
X512691Y716648D01*
X512112Y716262D01*
X512112Y716262D01*
X491695Y695845D01*
X466543D01*
X466271Y696200D01*
X465644Y696681D01*
X464914Y696983D01*
X464131Y697086D01*
X463348Y696983D01*
X462618Y696681D01*
X461992Y696200D01*
X461511Y695573D01*
X461208Y694844D01*
X461105Y694061D01*
X461208Y693277D01*
X461511Y692548D01*
X461992Y691921D01*
X462618Y691440D01*
X463348Y691138D01*
X464131Y691035D01*
X464914Y691138D01*
X465644Y691440D01*
X466271Y691921D01*
X466543Y692276D01*
X492434D01*
X493117Y692412D01*
X493696Y692799D01*
X514113Y713216D01*
X539049D01*
X539264Y713051D01*
X539275Y713029D01*
Y712471D01*
X539264Y712449D01*
X538860Y712140D01*
X538379Y711513D01*
X538077Y710783D01*
X537974Y710000D01*
X538077Y709217D01*
X538379Y708487D01*
X538860Y707860D01*
X539216Y707588D01*
Y697739D01*
X455893Y614417D01*
X432918D01*
X432907Y614443D01*
X432332Y615193D01*
X431582Y615768D01*
X430708Y616130D01*
X429771Y616254D01*
X428834Y616130D01*
X427960Y615768D01*
X427210Y615193D01*
X426635Y614443D01*
X426273Y613569D01*
X426149Y612632D01*
X426273Y611695D01*
X426635Y610821D01*
X427210Y610071D01*
X427960Y609496D01*
X428834Y609134D01*
X429771Y609011D01*
X430708Y609134D01*
X431582Y609496D01*
X432332Y610071D01*
X432907Y610821D01*
X432918Y610848D01*
X456632D01*
X457315Y610984D01*
X457894Y611371D01*
X542262Y695738D01*
X542262Y695738D01*
X542649Y696317D01*
X542784Y697000D01*
X542784Y697000D01*
Y707588D01*
X543140Y707860D01*
X543620Y708487D01*
X543923Y709217D01*
X544026Y710000D01*
X543923Y710783D01*
X543620Y711513D01*
X543140Y712140D01*
X542736Y712449D01*
X542725Y712471D01*
Y713029D01*
X542736Y713051D01*
X543140Y713360D01*
X543620Y713987D01*
X543923Y714717D01*
X544026Y715500D01*
X543923Y716283D01*
X543620Y717013D01*
X543140Y717640D01*
X542513Y718120D01*
X541783Y718423D01*
X541000Y718526D01*
D02*
G37*
G36*
X592763Y616254D02*
X591826Y616130D01*
X590952Y615768D01*
X590202Y615193D01*
X589627Y614443D01*
X589265Y613569D01*
X589142Y612632D01*
X589265Y611695D01*
X589627Y610821D01*
X590202Y610071D01*
X590952Y609496D01*
X591826Y609134D01*
X592763Y609011D01*
X593700Y609134D01*
X594574Y609496D01*
X595324Y610071D01*
X595899Y610821D01*
X596261Y611695D01*
X596385Y612632D01*
X596261Y613569D01*
X595899Y614443D01*
X595324Y615193D01*
X594574Y615768D01*
X593700Y616130D01*
X592763Y616254D01*
D02*
G37*
G36*
X511267D02*
X510330Y616130D01*
X509456Y615768D01*
X508706Y615193D01*
X508131Y614443D01*
X507769Y613569D01*
X507646Y612632D01*
X507769Y611695D01*
X508131Y610821D01*
X508706Y610071D01*
X509456Y609496D01*
X510330Y609134D01*
X511267Y609011D01*
X512204Y609134D01*
X513078Y609496D01*
X513828Y610071D01*
X514403Y610821D01*
X514765Y611695D01*
X514888Y612632D01*
X514765Y613569D01*
X514403Y614443D01*
X513828Y615193D01*
X513078Y615768D01*
X512204Y616130D01*
X511267Y616254D01*
D02*
G37*
G36*
X504196Y610639D02*
X502364Y608807D01*
X504196Y606975D01*
X506028Y608807D01*
X504196Y610639D01*
D02*
G37*
G36*
X667188D02*
X665356Y608807D01*
X667188Y606975D01*
X669020Y608807D01*
X667188Y610639D01*
D02*
G37*
G36*
X341204D02*
X339372Y608807D01*
X341204Y606975D01*
X343036Y608807D01*
X341204Y610639D01*
D02*
G37*
G36*
X422700D02*
X420868Y608807D01*
X422700Y606975D01*
X424532Y608807D01*
X422700Y610639D01*
D02*
G37*
G36*
X500950Y607393D02*
X499118Y605561D01*
X500950Y603729D01*
X502782Y605561D01*
X500950Y607393D01*
D02*
G37*
G36*
X663942D02*
X662110Y605561D01*
X663942Y603729D01*
X665774Y605561D01*
X663942Y607393D01*
D02*
G37*
G36*
X337958Y607393D02*
X336126Y605561D01*
X337958Y603729D01*
X339790Y605561D01*
X337958Y607393D01*
D02*
G37*
G36*
X419454D02*
X417622Y605561D01*
X419454Y603729D01*
X421286Y605561D01*
X419454Y607393D01*
D02*
G37*
G36*
X507442Y607393D02*
X505610Y605561D01*
X507442Y603729D01*
X509274Y605561D01*
X507442Y607393D01*
D02*
G37*
G36*
X670434Y607393D02*
X668602Y605561D01*
X670434Y603729D01*
X672266Y605561D01*
X670434Y607393D01*
D02*
G37*
G36*
X344450D02*
X342618Y605561D01*
X344450Y603729D01*
X346282Y605561D01*
X344450Y607393D01*
D02*
G37*
G36*
X425946Y607393D02*
X424114Y605561D01*
X425946Y603729D01*
X427778Y605561D01*
X425946Y607393D01*
D02*
G37*
G36*
X667188Y604147D02*
X665356Y602315D01*
X667188Y600483D01*
X669020Y602315D01*
X667188Y604147D01*
D02*
G37*
G36*
X504196D02*
X502364Y602315D01*
X504196Y600483D01*
X506028Y602315D01*
X504196Y604147D01*
D02*
G37*
G36*
X422700Y604147D02*
X420868Y602315D01*
X422700Y600483D01*
X424532Y602315D01*
X422700Y604147D01*
D02*
G37*
G36*
X341204Y604147D02*
X339372Y602315D01*
X341204Y600483D01*
X343036Y602315D01*
X341204Y604147D01*
D02*
G37*
G36*
X564000Y598714D02*
X563344Y598584D01*
X562788Y598212D01*
X562416Y597656D01*
X562286Y597000D01*
X562416Y596344D01*
X562788Y595788D01*
X562945Y595683D01*
Y593551D01*
X561004D01*
Y586449D01*
X566925D01*
Y593551D01*
X564984D01*
Y595636D01*
X565212Y595788D01*
X565584Y596344D01*
X565714Y597000D01*
X565584Y597656D01*
X565212Y598212D01*
X564656Y598584D01*
X564000Y598714D01*
D02*
G37*
G36*
X703740Y592965D02*
X701549Y592822D01*
X699396Y592393D01*
X697317Y591687D01*
X695348Y590716D01*
X693523Y589497D01*
X691872Y588049D01*
X690424Y586399D01*
X689205Y584573D01*
X688234Y582604D01*
X687528Y580525D01*
X687100Y578372D01*
X686956Y576181D01*
X687100Y573990D01*
X687528Y571837D01*
X688234Y569758D01*
X689205Y567789D01*
X690424Y565964D01*
X691872Y564313D01*
X693523Y562865D01*
X695348Y561646D01*
X697317Y560675D01*
X699396Y559969D01*
X701549Y559541D01*
X703740Y559397D01*
X705931Y559541D01*
X708084Y559969D01*
X710163Y560675D01*
X712132Y561646D01*
X713958Y562865D01*
X715608Y564313D01*
X717056Y565964D01*
X718275Y567789D01*
X719246Y569758D01*
X719952Y571837D01*
X720380Y573990D01*
X720524Y576181D01*
X720380Y578372D01*
X719952Y580525D01*
X719246Y582604D01*
X718275Y584573D01*
X717056Y586399D01*
X715608Y588049D01*
X713958Y589497D01*
X712132Y590716D01*
X710163Y591687D01*
X708084Y592393D01*
X705931Y592822D01*
X703740Y592965D01*
D02*
G37*
G36*
X540748D02*
X538557Y592822D01*
X536404Y592393D01*
X534325Y591687D01*
X532356Y590716D01*
X530531Y589497D01*
X528880Y588049D01*
X527432Y586399D01*
X526213Y584573D01*
X525242Y582604D01*
X524536Y580525D01*
X524108Y578372D01*
X523964Y576181D01*
X524108Y573990D01*
X524536Y571837D01*
X525242Y569758D01*
X526213Y567789D01*
X527432Y565964D01*
X528880Y564313D01*
X530531Y562865D01*
X532356Y561646D01*
X534325Y560675D01*
X536404Y559969D01*
X538557Y559541D01*
X540748Y559397D01*
X542939Y559541D01*
X545092Y559969D01*
X547171Y560675D01*
X549140Y561646D01*
X550965Y562865D01*
X552616Y564313D01*
X554064Y565964D01*
X555283Y567789D01*
X556254Y569758D01*
X556960Y571837D01*
X557388Y573990D01*
X557532Y576181D01*
X557388Y578372D01*
X556960Y580525D01*
X556254Y582604D01*
X555283Y584573D01*
X554064Y586399D01*
X552616Y588049D01*
X550965Y589497D01*
X549140Y590716D01*
X547171Y591687D01*
X545092Y592393D01*
X542939Y592822D01*
X540748Y592965D01*
D02*
G37*
G36*
X459252D02*
X457061Y592822D01*
X454908Y592393D01*
X452829Y591687D01*
X450860Y590716D01*
X449035Y589497D01*
X447384Y588049D01*
X445936Y586399D01*
X444717Y584573D01*
X443746Y582604D01*
X443040Y580525D01*
X442612Y578372D01*
X442468Y576181D01*
X442612Y573990D01*
X443040Y571837D01*
X443746Y569758D01*
X444717Y567789D01*
X445936Y565964D01*
X447384Y564313D01*
X449035Y562865D01*
X450860Y561646D01*
X452829Y560675D01*
X454908Y559969D01*
X457061Y559541D01*
X459252Y559397D01*
X461443Y559541D01*
X463596Y559969D01*
X465675Y560675D01*
X467644Y561646D01*
X469469Y562865D01*
X471120Y564313D01*
X472568Y565964D01*
X473787Y567789D01*
X474758Y569758D01*
X475464Y571837D01*
X475892Y573990D01*
X476036Y576181D01*
X475892Y578372D01*
X475464Y580525D01*
X474758Y582604D01*
X473787Y584573D01*
X472568Y586399D01*
X471120Y588049D01*
X469469Y589497D01*
X467644Y590716D01*
X465675Y591687D01*
X463596Y592393D01*
X461443Y592822D01*
X459252Y592965D01*
D02*
G37*
G36*
X377756D02*
X375565Y592822D01*
X373412Y592393D01*
X371333Y591687D01*
X369364Y590716D01*
X367538Y589497D01*
X365888Y588049D01*
X364440Y586399D01*
X363221Y584573D01*
X362249Y582604D01*
X361544Y580525D01*
X361116Y578372D01*
X360972Y576181D01*
X361116Y573990D01*
X361544Y571837D01*
X362249Y569758D01*
X363221Y567789D01*
X364440Y565964D01*
X365888Y564313D01*
X367538Y562865D01*
X369364Y561646D01*
X371333Y560675D01*
X373412Y559969D01*
X375565Y559541D01*
X377756Y559397D01*
X379947Y559541D01*
X382100Y559969D01*
X384179Y560675D01*
X386148Y561646D01*
X387973Y562865D01*
X389624Y564313D01*
X391072Y565964D01*
X392291Y567789D01*
X393262Y569758D01*
X393968Y571837D01*
X394396Y573990D01*
X394540Y576181D01*
X394396Y578372D01*
X393968Y580525D01*
X393262Y582604D01*
X392291Y584573D01*
X391072Y586399D01*
X389624Y588049D01*
X387973Y589497D01*
X386148Y590716D01*
X384179Y591687D01*
X382100Y592393D01*
X379947Y592822D01*
X377756Y592965D01*
D02*
G37*
G36*
X296260D02*
X294069Y592822D01*
X291916Y592393D01*
X289837Y591687D01*
X287868Y590716D01*
X286042Y589497D01*
X284392Y588049D01*
X282944Y586399D01*
X281725Y584573D01*
X280753Y582604D01*
X280048Y580525D01*
X279620Y578372D01*
X279476Y576181D01*
X279620Y573990D01*
X280048Y571837D01*
X280753Y569758D01*
X281725Y567789D01*
X282944Y565964D01*
X284392Y564313D01*
X286042Y562865D01*
X287868Y561646D01*
X289837Y560675D01*
X291916Y559969D01*
X294069Y559541D01*
X296260Y559397D01*
X298451Y559541D01*
X300604Y559969D01*
X302683Y560675D01*
X304652Y561646D01*
X306477Y562865D01*
X308128Y564313D01*
X309576Y565964D01*
X310795Y567789D01*
X311766Y569758D01*
X312472Y571837D01*
X312900Y573990D01*
X313044Y576181D01*
X312900Y578372D01*
X312472Y580525D01*
X311766Y582604D01*
X310795Y584573D01*
X309576Y586399D01*
X308128Y588049D01*
X306477Y589497D01*
X304652Y590716D01*
X302683Y591687D01*
X300604Y592393D01*
X298451Y592822D01*
X296260Y592965D01*
D02*
G37*
G36*
X656996Y563551D02*
X651075D01*
Y558138D01*
X651055Y558039D01*
Y554866D01*
X650879Y554690D01*
X650344Y554584D01*
X649788Y554212D01*
X649416Y553656D01*
X649286Y553000D01*
X649416Y552344D01*
X649788Y551788D01*
X650344Y551416D01*
X651000Y551286D01*
X651656Y551416D01*
X652212Y551788D01*
X652584Y552344D01*
X652714Y553000D01*
X652608Y553534D01*
X652796Y553722D01*
X653017Y554053D01*
X653094Y554443D01*
Y556449D01*
X656996D01*
Y563551D01*
D02*
G37*
G36*
X566925D02*
X561004D01*
Y556449D01*
X562980D01*
Y554341D01*
X562788Y554212D01*
X562416Y553656D01*
X562286Y553000D01*
X562416Y552344D01*
X562788Y551788D01*
X563344Y551416D01*
X564000Y551286D01*
X564656Y551416D01*
X565212Y551788D01*
X565584Y552344D01*
X565714Y553000D01*
X565584Y553656D01*
X565212Y554212D01*
X565020Y554341D01*
Y556449D01*
X566925D01*
Y563551D01*
D02*
G37*
G36*
X332812Y551879D02*
X327734Y546801D01*
X332812Y541723D01*
X337890Y546801D01*
X332812Y551879D01*
D02*
G37*
G36*
X325741Y543352D02*
X324803Y543228D01*
X323930Y542866D01*
X323180Y542291D01*
X322604Y541541D01*
X322243Y540667D01*
X322119Y539730D01*
X322243Y538793D01*
X322604Y537919D01*
X323180Y537169D01*
X323930Y536594D01*
X324803Y536232D01*
X325741Y536108D01*
X326678Y536232D01*
X327552Y536594D01*
X328302Y537169D01*
X328877Y537919D01*
X329239Y538793D01*
X329362Y539730D01*
X329239Y540667D01*
X328877Y541541D01*
X328302Y542291D01*
X327552Y542866D01*
X326678Y543228D01*
X325741Y543352D01*
D02*
G37*
G36*
X429771Y535545D02*
X428834Y535422D01*
X427960Y535060D01*
X427210Y534484D01*
X426635Y533734D01*
X426273Y532861D01*
X426149Y531923D01*
X426273Y530986D01*
X426635Y530113D01*
X427210Y529363D01*
X427960Y528787D01*
X428834Y528425D01*
X429771Y528302D01*
X430708Y528425D01*
X431582Y528787D01*
X432332Y529363D01*
X432907Y530113D01*
X433269Y530986D01*
X433392Y531923D01*
X433269Y532861D01*
X432907Y533734D01*
X432332Y534484D01*
X431582Y535060D01*
X430708Y535422D01*
X429771Y535545D01*
D02*
G37*
G36*
X592763Y535545D02*
X591826Y535422D01*
X590952Y535060D01*
X590202Y534484D01*
X589627Y533734D01*
X589265Y532861D01*
X589142Y531923D01*
X589265Y530986D01*
X589627Y530113D01*
X590202Y529363D01*
X590952Y528787D01*
X591826Y528425D01*
X592763Y528302D01*
X593700Y528425D01*
X594574Y528787D01*
X595324Y529363D01*
X595899Y530113D01*
X596261Y530986D01*
X596385Y531923D01*
X596261Y532861D01*
X595899Y533734D01*
X595324Y534484D01*
X594574Y535060D01*
X593700Y535422D01*
X592763Y535545D01*
D02*
G37*
G36*
X511267D02*
X510330Y535422D01*
X509456Y535060D01*
X508706Y534484D01*
X508131Y533734D01*
X507769Y532861D01*
X507646Y531923D01*
X507769Y530986D01*
X508131Y530113D01*
X508706Y529363D01*
X509456Y528787D01*
X510330Y528425D01*
X511267Y528302D01*
X512204Y528425D01*
X513078Y528787D01*
X513828Y529363D01*
X514403Y530113D01*
X514765Y530986D01*
X514888Y531923D01*
X514765Y532861D01*
X514403Y533734D01*
X513828Y534484D01*
X513078Y535060D01*
X512204Y535422D01*
X511267Y535545D01*
D02*
G37*
G36*
X504196Y529930D02*
X502364Y528098D01*
X504196Y526267D01*
X506028Y528098D01*
X504196Y529930D01*
D02*
G37*
G36*
X667188D02*
X665356Y528098D01*
X667188Y526267D01*
X669020Y528098D01*
X667188Y529930D01*
D02*
G37*
G36*
X422700Y529930D02*
X420868Y528098D01*
X422700Y526267D01*
X424532Y528098D01*
X422700Y529930D01*
D02*
G37*
G36*
X341204Y529930D02*
X339372Y528098D01*
X341204Y526267D01*
X343036Y528098D01*
X341204Y529930D01*
D02*
G37*
G36*
X585692D02*
X583860Y528098D01*
X585692Y526267D01*
X587524Y528098D01*
X585692Y529930D01*
D02*
G37*
G36*
X500950Y526684D02*
X499118Y524853D01*
X500950Y523021D01*
X502782Y524853D01*
X500950Y526684D01*
D02*
G37*
G36*
X419454D02*
X417622Y524853D01*
X419454Y523021D01*
X421286Y524853D01*
X419454Y526684D01*
D02*
G37*
G36*
X663942D02*
X662110Y524853D01*
X663942Y523021D01*
X665774Y524853D01*
X663942Y526684D01*
D02*
G37*
G36*
X507442D02*
X505610Y524853D01*
X507442Y523021D01*
X509274Y524853D01*
X507442Y526684D01*
D02*
G37*
G36*
X425946D02*
X424114Y524853D01*
X425946Y523021D01*
X427778Y524853D01*
X425946Y526684D01*
D02*
G37*
G36*
X670434D02*
X668602Y524853D01*
X670434Y523021D01*
X672266Y524853D01*
X670434Y526684D01*
D02*
G37*
G36*
X344450Y526684D02*
X342618Y524853D01*
X344450Y523021D01*
X346282Y524853D01*
X344450Y526684D01*
D02*
G37*
G36*
X337958D02*
X336126Y524853D01*
X337958Y523021D01*
X339790Y524853D01*
X337958Y526684D01*
D02*
G37*
G36*
X588938D02*
X587106Y524853D01*
X588938Y523021D01*
X590770Y524853D01*
X588938Y526684D01*
D02*
G37*
G36*
X582446D02*
X580614Y524853D01*
X582446Y523021D01*
X584278Y524853D01*
X582446Y526684D01*
D02*
G37*
G36*
X422700Y523438D02*
X420868Y521606D01*
X422700Y519775D01*
X424532Y521606D01*
X422700Y523438D01*
D02*
G37*
G36*
X667188D02*
X665356Y521606D01*
X667188Y519775D01*
X669020Y521606D01*
X667188Y523438D01*
D02*
G37*
G36*
X585692Y523438D02*
X583860Y521606D01*
X585692Y519775D01*
X587524Y521606D01*
X585692Y523438D01*
D02*
G37*
G36*
X504196Y523438D02*
X502364Y521606D01*
X504196Y519775D01*
X506028Y521606D01*
X504196Y523438D01*
D02*
G37*
G36*
X341204Y523438D02*
X339372Y521606D01*
X341204Y519775D01*
X343036Y521606D01*
X341204Y523438D01*
D02*
G37*
G36*
X459252Y512256D02*
X457061Y512113D01*
X454908Y511685D01*
X452829Y510979D01*
X450860Y510008D01*
X449035Y508788D01*
X447384Y507340D01*
X445936Y505690D01*
X444717Y503864D01*
X443746Y501895D01*
X443040Y499816D01*
X442612Y497663D01*
X442468Y495472D01*
X442612Y493282D01*
X443040Y491128D01*
X443746Y489049D01*
X444717Y487080D01*
X445936Y485255D01*
X447384Y483604D01*
X449035Y482157D01*
X450860Y480937D01*
X452829Y479966D01*
X454908Y479260D01*
X457061Y478832D01*
X459252Y478688D01*
X461443Y478832D01*
X463596Y479260D01*
X465675Y479966D01*
X467644Y480937D01*
X469469Y482157D01*
X471120Y483604D01*
X472568Y485255D01*
X473787Y487080D01*
X474758Y489049D01*
X475464Y491128D01*
X475892Y493282D01*
X476036Y495472D01*
X475892Y497663D01*
X475464Y499816D01*
X474758Y501895D01*
X473787Y503864D01*
X472568Y505690D01*
X471120Y507340D01*
X469469Y508788D01*
X467644Y510008D01*
X465675Y510979D01*
X463596Y511685D01*
X461443Y512113D01*
X459252Y512256D01*
D02*
G37*
G36*
X703740Y512256D02*
X701549Y512113D01*
X699396Y511685D01*
X697317Y510979D01*
X695348Y510008D01*
X693523Y508788D01*
X691872Y507340D01*
X690424Y505690D01*
X689205Y503864D01*
X688234Y501895D01*
X687528Y499816D01*
X687100Y497663D01*
X686956Y495472D01*
X687100Y493282D01*
X687528Y491128D01*
X688234Y489049D01*
X689205Y487080D01*
X690424Y485255D01*
X691872Y483604D01*
X693523Y482157D01*
X695348Y480937D01*
X697317Y479966D01*
X699396Y479260D01*
X701549Y478832D01*
X703740Y478688D01*
X705931Y478832D01*
X708084Y479260D01*
X710163Y479966D01*
X712132Y480937D01*
X713958Y482157D01*
X715608Y483604D01*
X717056Y485255D01*
X718275Y487080D01*
X719246Y489049D01*
X719952Y491128D01*
X720380Y493282D01*
X720524Y495472D01*
X720380Y497663D01*
X719952Y499816D01*
X719246Y501895D01*
X718275Y503864D01*
X717056Y505690D01*
X715608Y507340D01*
X713958Y508788D01*
X712132Y510008D01*
X710163Y510979D01*
X708084Y511685D01*
X705931Y512113D01*
X703740Y512256D01*
D02*
G37*
G36*
X540748D02*
X538557Y512113D01*
X536404Y511685D01*
X534325Y510979D01*
X532356Y510008D01*
X530531Y508788D01*
X528880Y507340D01*
X527432Y505690D01*
X526213Y503864D01*
X525242Y501895D01*
X524536Y499816D01*
X524108Y497663D01*
X523964Y495472D01*
X524108Y493282D01*
X524536Y491128D01*
X525242Y489049D01*
X526213Y487080D01*
X527432Y485255D01*
X528880Y483604D01*
X530531Y482157D01*
X532356Y480937D01*
X534325Y479966D01*
X536404Y479260D01*
X538557Y478832D01*
X540748Y478688D01*
X542939Y478832D01*
X545092Y479260D01*
X547171Y479966D01*
X549140Y480937D01*
X550965Y482157D01*
X552616Y483604D01*
X554064Y485255D01*
X555283Y487080D01*
X556254Y489049D01*
X556960Y491128D01*
X557388Y493282D01*
X557532Y495472D01*
X557388Y497663D01*
X556960Y499816D01*
X556254Y501895D01*
X555283Y503864D01*
X554064Y505690D01*
X552616Y507340D01*
X550965Y508788D01*
X549140Y510008D01*
X547171Y510979D01*
X545092Y511685D01*
X542939Y512113D01*
X540748Y512256D01*
D02*
G37*
G36*
X377756D02*
X375565Y512113D01*
X373412Y511685D01*
X371333Y510979D01*
X369364Y510008D01*
X367538Y508788D01*
X365888Y507340D01*
X364440Y505690D01*
X363221Y503864D01*
X362249Y501895D01*
X361544Y499816D01*
X361116Y497663D01*
X360972Y495472D01*
X361116Y493282D01*
X361544Y491128D01*
X362249Y489049D01*
X363221Y487080D01*
X364440Y485255D01*
X365888Y483604D01*
X367538Y482157D01*
X369364Y480937D01*
X371333Y479966D01*
X373412Y479260D01*
X375565Y478832D01*
X377756Y478688D01*
X379947Y478832D01*
X382100Y479260D01*
X384179Y479966D01*
X386148Y480937D01*
X387973Y482157D01*
X389624Y483604D01*
X391072Y485255D01*
X392291Y487080D01*
X393262Y489049D01*
X393968Y491128D01*
X394396Y493282D01*
X394540Y495472D01*
X394396Y497663D01*
X393968Y499816D01*
X393262Y501895D01*
X392291Y503864D01*
X391072Y505690D01*
X389624Y507340D01*
X387973Y508788D01*
X386148Y510008D01*
X384179Y510979D01*
X382100Y511685D01*
X379947Y512113D01*
X377756Y512256D01*
D02*
G37*
G36*
X296260D02*
X294069Y512113D01*
X291916Y511685D01*
X289837Y510979D01*
X287868Y510008D01*
X286042Y508788D01*
X284392Y507340D01*
X282944Y505690D01*
X281725Y503864D01*
X280753Y501895D01*
X280048Y499816D01*
X279620Y497663D01*
X279476Y495472D01*
X279620Y493282D01*
X280048Y491128D01*
X280753Y489049D01*
X281725Y487080D01*
X282944Y485255D01*
X284392Y483604D01*
X286042Y482157D01*
X287868Y480937D01*
X289837Y479966D01*
X291916Y479260D01*
X294069Y478832D01*
X296260Y478688D01*
X298451Y478832D01*
X300604Y479260D01*
X302683Y479966D01*
X304652Y480937D01*
X306477Y482157D01*
X308128Y483604D01*
X309576Y485255D01*
X310795Y487080D01*
X311766Y489049D01*
X312472Y491128D01*
X312900Y493282D01*
X313044Y495472D01*
X312900Y497663D01*
X312472Y499816D01*
X311766Y501895D01*
X310795Y503864D01*
X309576Y505690D01*
X308128Y507340D01*
X306477Y508788D01*
X304652Y510008D01*
X302683Y510979D01*
X300604Y511685D01*
X298451Y512113D01*
X296260Y512256D01*
D02*
G37*
G36*
X332812Y471170D02*
X330980Y469338D01*
X332812Y467507D01*
X334644Y469338D01*
X332812Y471170D01*
D02*
G37*
G36*
X329566Y467924D02*
X327734Y466092D01*
X329566Y464261D01*
X331398Y466092D01*
X329566Y467924D01*
D02*
G37*
G36*
X336058Y467924D02*
X334226Y466092D01*
X336058Y464261D01*
X337890Y466092D01*
X336058Y467924D01*
D02*
G37*
G36*
X332812Y464678D02*
X330980Y462846D01*
X332812Y461015D01*
X334644Y462846D01*
X332812Y464678D01*
D02*
G37*
G36*
X325741Y462643D02*
X324803Y462520D01*
X323930Y462158D01*
X323180Y461582D01*
X322604Y460832D01*
X322243Y459959D01*
X322119Y459021D01*
X322243Y458084D01*
X322604Y457210D01*
X323180Y456461D01*
X323930Y455885D01*
X324803Y455523D01*
X325741Y455400D01*
X326678Y455523D01*
X327552Y455885D01*
X328302Y456461D01*
X328877Y457210D01*
X329239Y458084D01*
X329362Y459021D01*
X329239Y459959D01*
X328877Y460832D01*
X328302Y461582D01*
X327552Y462158D01*
X326678Y462519D01*
X325741Y462643D01*
D02*
G37*
G36*
X592763Y454836D02*
X591826Y454713D01*
X590952Y454351D01*
X590202Y453776D01*
X589627Y453026D01*
X589265Y452152D01*
X589142Y451215D01*
X589265Y450278D01*
X589627Y449404D01*
X590202Y448654D01*
X590952Y448078D01*
X591826Y447717D01*
X592763Y447593D01*
X593700Y447717D01*
X594574Y448078D01*
X595324Y448654D01*
X595899Y449404D01*
X596261Y450278D01*
X596385Y451215D01*
X596261Y452152D01*
X595899Y453026D01*
X595324Y453776D01*
X594574Y454351D01*
X593700Y454713D01*
X592763Y454836D01*
D02*
G37*
G36*
X511267D02*
X510330Y454713D01*
X509456Y454351D01*
X508706Y453776D01*
X508131Y453026D01*
X507769Y452152D01*
X507646Y451215D01*
X507769Y450278D01*
X508131Y449404D01*
X508706Y448654D01*
X509456Y448078D01*
X510330Y447717D01*
X511267Y447593D01*
X512204Y447717D01*
X513078Y448078D01*
X513828Y448654D01*
X514403Y449404D01*
X514765Y450278D01*
X514888Y451215D01*
X514765Y452152D01*
X514403Y453026D01*
X513828Y453776D01*
X513078Y454351D01*
X512204Y454713D01*
X511267Y454836D01*
D02*
G37*
G36*
X429771D02*
X428834Y454713D01*
X427960Y454351D01*
X427210Y453776D01*
X426635Y453026D01*
X426273Y452152D01*
X426149Y451215D01*
X426273Y450278D01*
X426635Y449404D01*
X427210Y448654D01*
X427960Y448078D01*
X428834Y447717D01*
X429771Y447593D01*
X430708Y447717D01*
X431582Y448078D01*
X432332Y448654D01*
X432907Y449404D01*
X433269Y450278D01*
X433392Y451215D01*
X433269Y452152D01*
X432907Y453026D01*
X432332Y453776D01*
X431582Y454351D01*
X430708Y454713D01*
X429771Y454836D01*
D02*
G37*
G36*
X422700Y449222D02*
X420868Y447390D01*
X422700Y445558D01*
X424532Y447390D01*
X422700Y449222D01*
D02*
G37*
G36*
X667188D02*
X665356Y447390D01*
X667188Y445558D01*
X669020Y447390D01*
X667188Y449222D01*
D02*
G37*
G36*
X341204D02*
X339372Y447390D01*
X341204Y445558D01*
X343036Y447390D01*
X341204Y449222D01*
D02*
G37*
G36*
X585692D02*
X583860Y447390D01*
X585692Y445558D01*
X587524Y447390D01*
X585692Y449222D01*
D02*
G37*
G36*
X425946Y445976D02*
X424114Y444144D01*
X425946Y442312D01*
X427778Y444144D01*
X425946Y445976D01*
D02*
G37*
G36*
X670434Y445976D02*
X668602Y444144D01*
X670434Y442312D01*
X672266Y444144D01*
X670434Y445976D01*
D02*
G37*
G36*
X344450D02*
X342618Y444144D01*
X344450Y442312D01*
X346282Y444144D01*
X344450Y445976D01*
D02*
G37*
G36*
X588938Y445976D02*
X587106Y444144D01*
X588938Y442312D01*
X590770Y444144D01*
X588938Y445976D01*
D02*
G37*
G36*
X419454Y445976D02*
X417622Y444144D01*
X419454Y442312D01*
X421286Y444144D01*
X419454Y445976D01*
D02*
G37*
G36*
X663942D02*
X662110Y444144D01*
X663942Y442312D01*
X665774Y444144D01*
X663942Y445976D01*
D02*
G37*
G36*
X337958Y445976D02*
X336126Y444144D01*
X337958Y442312D01*
X339790Y444144D01*
X337958Y445976D01*
D02*
G37*
G36*
X582446D02*
X580614Y444144D01*
X582446Y442312D01*
X584278Y444144D01*
X582446Y445976D01*
D02*
G37*
G36*
X667188Y442730D02*
X665356Y440898D01*
X667188Y439066D01*
X669020Y440898D01*
X667188Y442730D01*
D02*
G37*
G36*
X585692Y442730D02*
X583860Y440898D01*
X585692Y439066D01*
X587524Y440898D01*
X585692Y442730D01*
D02*
G37*
G36*
X504196Y449222D02*
X499118Y444144D01*
X504196Y439066D01*
X509274Y444144D01*
X504196Y449222D01*
D02*
G37*
G36*
X422700Y442730D02*
X420868Y440898D01*
X422700Y439066D01*
X424532Y440898D01*
X422700Y442730D01*
D02*
G37*
G36*
X341204Y442730D02*
X339372Y440898D01*
X341204Y439066D01*
X343036Y440898D01*
X341204Y442730D01*
D02*
G37*
G36*
X703740Y431548D02*
X701549Y431404D01*
X699396Y430976D01*
X697317Y430270D01*
X695348Y429299D01*
X693523Y428079D01*
X691872Y426632D01*
X690424Y424981D01*
X689205Y423156D01*
X688234Y421187D01*
X687528Y419108D01*
X687100Y416955D01*
X686956Y414764D01*
X687100Y412573D01*
X687528Y410420D01*
X688234Y408341D01*
X689205Y406372D01*
X690424Y404546D01*
X691872Y402896D01*
X693523Y401448D01*
X695348Y400228D01*
X697317Y399257D01*
X699396Y398552D01*
X701549Y398123D01*
X703740Y397980D01*
X705931Y398123D01*
X708084Y398552D01*
X710163Y399257D01*
X712132Y400228D01*
X713958Y401448D01*
X715608Y402896D01*
X717056Y404546D01*
X718275Y406372D01*
X719246Y408341D01*
X719952Y410420D01*
X720380Y412573D01*
X720524Y414764D01*
X720380Y416955D01*
X719952Y419108D01*
X719246Y421187D01*
X718275Y423156D01*
X717056Y424981D01*
X715608Y426632D01*
X713958Y428079D01*
X712132Y429299D01*
X710163Y430270D01*
X708084Y430976D01*
X705931Y431404D01*
X703740Y431548D01*
D02*
G37*
G36*
X540748D02*
X538557Y431404D01*
X536404Y430976D01*
X534325Y430270D01*
X532356Y429299D01*
X530531Y428079D01*
X528880Y426632D01*
X527432Y424981D01*
X526213Y423156D01*
X525242Y421187D01*
X524536Y419108D01*
X524108Y416955D01*
X523964Y414764D01*
X524108Y412573D01*
X524536Y410420D01*
X525242Y408341D01*
X526213Y406372D01*
X527432Y404546D01*
X528880Y402896D01*
X530531Y401448D01*
X532356Y400228D01*
X534325Y399257D01*
X536404Y398552D01*
X538557Y398123D01*
X540748Y397980D01*
X542939Y398123D01*
X545092Y398552D01*
X547171Y399257D01*
X549140Y400228D01*
X550965Y401448D01*
X552616Y402896D01*
X554064Y404546D01*
X555283Y406372D01*
X556254Y408341D01*
X556960Y410420D01*
X557388Y412573D01*
X557532Y414764D01*
X557388Y416955D01*
X556960Y419108D01*
X556254Y421187D01*
X555283Y423156D01*
X554064Y424981D01*
X552616Y426632D01*
X550965Y428079D01*
X549140Y429299D01*
X547171Y430270D01*
X545092Y430976D01*
X542939Y431404D01*
X540748Y431548D01*
D02*
G37*
G36*
X459252D02*
X457061Y431404D01*
X454908Y430976D01*
X452829Y430270D01*
X450860Y429299D01*
X449035Y428079D01*
X447384Y426632D01*
X445936Y424981D01*
X444717Y423156D01*
X443746Y421187D01*
X443040Y419108D01*
X442612Y416955D01*
X442468Y414764D01*
X442612Y412573D01*
X443040Y410420D01*
X443746Y408341D01*
X444717Y406372D01*
X445936Y404546D01*
X447384Y402896D01*
X449035Y401448D01*
X450860Y400228D01*
X452829Y399257D01*
X454908Y398552D01*
X457061Y398123D01*
X459252Y397980D01*
X461443Y398123D01*
X463596Y398552D01*
X465675Y399257D01*
X467644Y400228D01*
X469469Y401448D01*
X471120Y402896D01*
X472568Y404546D01*
X473787Y406372D01*
X474758Y408341D01*
X475464Y410420D01*
X475892Y412573D01*
X476036Y414764D01*
X475892Y416955D01*
X475464Y419108D01*
X474758Y421187D01*
X473787Y423156D01*
X472568Y424981D01*
X471120Y426632D01*
X469469Y428079D01*
X467644Y429299D01*
X465675Y430270D01*
X463596Y430976D01*
X461443Y431404D01*
X459252Y431548D01*
D02*
G37*
G36*
X377756D02*
X375565Y431404D01*
X373412Y430976D01*
X371333Y430270D01*
X369364Y429299D01*
X367538Y428079D01*
X365888Y426632D01*
X364440Y424981D01*
X363221Y423156D01*
X362249Y421187D01*
X361544Y419108D01*
X361116Y416955D01*
X360972Y414764D01*
X361116Y412573D01*
X361544Y410420D01*
X362249Y408341D01*
X363221Y406372D01*
X364440Y404546D01*
X365888Y402896D01*
X367538Y401448D01*
X369364Y400228D01*
X371333Y399257D01*
X373412Y398552D01*
X375565Y398123D01*
X377756Y397980D01*
X379947Y398123D01*
X382100Y398552D01*
X384179Y399257D01*
X386148Y400228D01*
X387973Y401448D01*
X389624Y402896D01*
X391072Y404546D01*
X392291Y406372D01*
X393262Y408341D01*
X393968Y410420D01*
X394396Y412573D01*
X394540Y414764D01*
X394396Y416955D01*
X393968Y419108D01*
X393262Y421187D01*
X392291Y423156D01*
X391072Y424981D01*
X389624Y426632D01*
X387973Y428079D01*
X386148Y429299D01*
X384179Y430270D01*
X382100Y430976D01*
X379947Y431404D01*
X377756Y431548D01*
D02*
G37*
G36*
X296260D02*
X294069Y431404D01*
X291916Y430976D01*
X289837Y430270D01*
X287868Y429299D01*
X286042Y428079D01*
X284392Y426632D01*
X282944Y424981D01*
X281725Y423156D01*
X280753Y421187D01*
X280048Y419108D01*
X279620Y416955D01*
X279476Y414764D01*
X279620Y412573D01*
X280048Y410420D01*
X280753Y408341D01*
X281725Y406372D01*
X282944Y404546D01*
X284392Y402896D01*
X286042Y401448D01*
X287868Y400228D01*
X289837Y399257D01*
X291916Y398552D01*
X294069Y398123D01*
X296260Y397980D01*
X298451Y398123D01*
X300604Y398552D01*
X302683Y399257D01*
X304652Y400228D01*
X306477Y401448D01*
X308128Y402896D01*
X309576Y404546D01*
X310795Y406372D01*
X311766Y408341D01*
X312472Y410420D01*
X312900Y412573D01*
X313044Y414764D01*
X312900Y416955D01*
X312472Y419108D01*
X311766Y421187D01*
X310795Y423156D01*
X309576Y424981D01*
X308128Y426632D01*
X306477Y428079D01*
X304652Y429299D01*
X302683Y430270D01*
X300604Y430976D01*
X298451Y431404D01*
X296260Y431548D01*
D02*
G37*
G36*
X332812Y390461D02*
X330980Y388630D01*
X332812Y386798D01*
X334644Y388630D01*
X332812Y390461D01*
D02*
G37*
G36*
X329566Y387215D02*
X327734Y385384D01*
X329566Y383552D01*
X331398Y385384D01*
X329566Y387215D01*
D02*
G37*
G36*
X336058D02*
X334226Y385384D01*
X336058Y383552D01*
X337890Y385384D01*
X336058Y387215D01*
D02*
G37*
G36*
X332812Y383969D02*
X330980Y382138D01*
X332812Y380306D01*
X334644Y382138D01*
X332812Y383969D01*
D02*
G37*
G36*
X325741Y381934D02*
X324803Y381811D01*
X323930Y381449D01*
X323180Y380873D01*
X322604Y380123D01*
X322243Y379250D01*
X322119Y378313D01*
X322243Y377375D01*
X322604Y376502D01*
X323180Y375752D01*
X323930Y375176D01*
X324803Y374815D01*
X325741Y374691D01*
X326678Y374815D01*
X327552Y375176D01*
X328302Y375752D01*
X328877Y376502D01*
X329239Y377375D01*
X329362Y378313D01*
X329239Y379250D01*
X328877Y380123D01*
X328302Y380873D01*
X327552Y381449D01*
X326678Y381811D01*
X325741Y381934D01*
D02*
G37*
G36*
X592763Y374128D02*
X591826Y374004D01*
X590952Y373643D01*
X590202Y373067D01*
X589627Y372317D01*
X589265Y371444D01*
X589142Y370506D01*
X589265Y369569D01*
X589627Y368695D01*
X590202Y367945D01*
X590952Y367370D01*
X591826Y367008D01*
X592763Y366885D01*
X593700Y367008D01*
X594574Y367370D01*
X595324Y367945D01*
X595899Y368695D01*
X596261Y369569D01*
X596385Y370506D01*
X596261Y371444D01*
X595899Y372317D01*
X595324Y373067D01*
X594574Y373643D01*
X593700Y374004D01*
X592763Y374128D01*
D02*
G37*
G36*
X511267D02*
X510330Y374004D01*
X509456Y373643D01*
X508706Y373067D01*
X508131Y372317D01*
X507769Y371444D01*
X507646Y370506D01*
X507769Y369569D01*
X508131Y368695D01*
X508706Y367945D01*
X509456Y367370D01*
X510330Y367008D01*
X511267Y366885D01*
X512204Y367008D01*
X513078Y367370D01*
X513828Y367945D01*
X514403Y368695D01*
X514765Y369569D01*
X514888Y370506D01*
X514765Y371444D01*
X514403Y372317D01*
X513828Y373067D01*
X513078Y373643D01*
X512204Y374004D01*
X511267Y374128D01*
D02*
G37*
G36*
X429771D02*
X428834Y374004D01*
X427960Y373643D01*
X427210Y373067D01*
X426635Y372317D01*
X426273Y371444D01*
X426149Y370506D01*
X426273Y369569D01*
X426635Y368695D01*
X427210Y367945D01*
X427960Y367370D01*
X428834Y367008D01*
X429771Y366885D01*
X430708Y367008D01*
X431582Y367370D01*
X432332Y367945D01*
X432907Y368695D01*
X433269Y369569D01*
X433392Y370506D01*
X433269Y371444D01*
X432907Y372317D01*
X432332Y373067D01*
X431582Y373643D01*
X430708Y374004D01*
X429771Y374128D01*
D02*
G37*
G36*
X504196Y368513D02*
X502364Y366681D01*
X504196Y364849D01*
X506028Y366681D01*
X504196Y368513D01*
D02*
G37*
G36*
X422700D02*
X420868Y366681D01*
X422700Y364849D01*
X424532Y366681D01*
X422700Y368513D01*
D02*
G37*
G36*
X667188D02*
X665356Y366681D01*
X667188Y364849D01*
X669020Y366681D01*
X667188Y368513D01*
D02*
G37*
G36*
X585692D02*
X583860Y366681D01*
X585692Y364849D01*
X587524Y366681D01*
X585692Y368513D01*
D02*
G37*
G36*
X500950Y365267D02*
X499118Y363435D01*
X500950Y361603D01*
X502782Y363435D01*
X500950Y365267D01*
D02*
G37*
G36*
X419454D02*
X417622Y363435D01*
X419454Y361603D01*
X421286Y363435D01*
X419454Y365267D01*
D02*
G37*
G36*
X663942D02*
X662110Y363435D01*
X663942Y361603D01*
X665774Y363435D01*
X663942Y365267D01*
D02*
G37*
G36*
X507442D02*
X505610Y363435D01*
X507442Y361603D01*
X509274Y363435D01*
X507442Y365267D01*
D02*
G37*
G36*
X425946D02*
X424114Y363435D01*
X425946Y361603D01*
X427778Y363435D01*
X425946Y365267D01*
D02*
G37*
G36*
X670434D02*
X668602Y363435D01*
X670434Y361603D01*
X672266Y363435D01*
X670434Y365267D01*
D02*
G37*
G36*
X344450Y365267D02*
X342618Y363435D01*
X344450Y361603D01*
X346282Y363435D01*
X344450Y365267D01*
D02*
G37*
G36*
X337958D02*
X336126Y363435D01*
X337958Y361603D01*
X339790Y363435D01*
X337958Y365267D01*
D02*
G37*
G36*
X588938D02*
X587106Y363435D01*
X588938Y361603D01*
X590770Y363435D01*
X588938Y365267D01*
D02*
G37*
G36*
X582446D02*
X580614Y363435D01*
X582446Y361603D01*
X584278Y363435D01*
X582446Y365267D01*
D02*
G37*
G36*
X667188Y362021D02*
X665356Y360189D01*
X667188Y358357D01*
X669020Y360189D01*
X667188Y362021D01*
D02*
G37*
G36*
X585692Y362021D02*
X583860Y360189D01*
X585692Y358357D01*
X587524Y360189D01*
X585692Y362021D01*
D02*
G37*
G36*
X504196Y362021D02*
X502364Y360189D01*
X504196Y358357D01*
X506028Y360189D01*
X504196Y362021D01*
D02*
G37*
G36*
X422700D02*
X420868Y360189D01*
X422700Y358357D01*
X424532Y360189D01*
X422700Y362021D01*
D02*
G37*
G36*
X341204Y362021D02*
X339372Y360189D01*
X341204Y358357D01*
X343036Y360189D01*
X341204Y362021D01*
D02*
G37*
G36*
X703740Y350839D02*
X701549Y350695D01*
X699396Y350267D01*
X697317Y349562D01*
X695348Y348590D01*
X693523Y347371D01*
X691872Y345923D01*
X690424Y344272D01*
X689205Y342447D01*
X688234Y340478D01*
X687528Y338399D01*
X687100Y336246D01*
X686956Y334055D01*
X687100Y331864D01*
X687528Y329711D01*
X688234Y327632D01*
X689205Y325663D01*
X690424Y323838D01*
X691872Y322187D01*
X693523Y320740D01*
X695348Y319520D01*
X697317Y318549D01*
X699396Y317843D01*
X701549Y317415D01*
X703740Y317271D01*
X705931Y317415D01*
X708084Y317843D01*
X710163Y318549D01*
X712132Y319520D01*
X713958Y320740D01*
X715608Y322187D01*
X717056Y323838D01*
X718275Y325663D01*
X719246Y327632D01*
X719952Y329711D01*
X720380Y331864D01*
X720524Y334055D01*
X720380Y336246D01*
X719952Y338399D01*
X719246Y340478D01*
X718275Y342447D01*
X717056Y344272D01*
X715608Y345923D01*
X713958Y347371D01*
X712132Y348590D01*
X710163Y349562D01*
X708084Y350267D01*
X705931Y350695D01*
X703740Y350839D01*
D02*
G37*
G36*
X540748D02*
X538557Y350695D01*
X536404Y350267D01*
X534325Y349562D01*
X532356Y348590D01*
X530531Y347371D01*
X528880Y345923D01*
X527432Y344272D01*
X526213Y342447D01*
X525242Y340478D01*
X524536Y338399D01*
X524108Y336246D01*
X523964Y334055D01*
X524108Y331864D01*
X524536Y329711D01*
X525242Y327632D01*
X526213Y325663D01*
X527432Y323838D01*
X528880Y322187D01*
X530531Y320740D01*
X532356Y319520D01*
X534325Y318549D01*
X536404Y317843D01*
X538557Y317415D01*
X540748Y317271D01*
X542939Y317415D01*
X545092Y317843D01*
X547171Y318549D01*
X549140Y319520D01*
X550965Y320740D01*
X552616Y322187D01*
X554064Y323838D01*
X555283Y325663D01*
X556254Y327632D01*
X556960Y329711D01*
X557388Y331864D01*
X557532Y334055D01*
X557388Y336246D01*
X556960Y338399D01*
X556254Y340478D01*
X555283Y342447D01*
X554064Y344272D01*
X552616Y345923D01*
X550965Y347371D01*
X549140Y348590D01*
X547171Y349562D01*
X545092Y350267D01*
X542939Y350695D01*
X540748Y350839D01*
D02*
G37*
G36*
X459252D02*
X457061Y350695D01*
X454908Y350267D01*
X452829Y349562D01*
X450860Y348590D01*
X449035Y347371D01*
X447384Y345923D01*
X445936Y344272D01*
X444717Y342447D01*
X443746Y340478D01*
X443040Y338399D01*
X442612Y336246D01*
X442468Y334055D01*
X442612Y331864D01*
X443040Y329711D01*
X443746Y327632D01*
X444717Y325663D01*
X445936Y323838D01*
X447384Y322187D01*
X449035Y320740D01*
X450860Y319520D01*
X452829Y318549D01*
X454908Y317843D01*
X457061Y317415D01*
X459252Y317271D01*
X461443Y317415D01*
X463596Y317843D01*
X465675Y318549D01*
X467644Y319520D01*
X469469Y320740D01*
X471120Y322187D01*
X472568Y323838D01*
X473787Y325663D01*
X474758Y327632D01*
X475464Y329711D01*
X475892Y331864D01*
X476036Y334055D01*
X475892Y336246D01*
X475464Y338399D01*
X474758Y340478D01*
X473787Y342447D01*
X472568Y344272D01*
X471120Y345923D01*
X469469Y347371D01*
X467644Y348590D01*
X465675Y349562D01*
X463596Y350267D01*
X461443Y350695D01*
X459252Y350839D01*
D02*
G37*
G36*
X377756D02*
X375565Y350695D01*
X373412Y350267D01*
X371333Y349562D01*
X369364Y348590D01*
X367538Y347371D01*
X365888Y345923D01*
X364440Y344272D01*
X363221Y342447D01*
X362249Y340478D01*
X361544Y338399D01*
X361116Y336246D01*
X360972Y334055D01*
X361116Y331864D01*
X361544Y329711D01*
X362249Y327632D01*
X363221Y325663D01*
X364440Y323838D01*
X365888Y322187D01*
X367538Y320740D01*
X369364Y319520D01*
X371333Y318549D01*
X373412Y317843D01*
X375565Y317415D01*
X377756Y317271D01*
X379947Y317415D01*
X382100Y317843D01*
X384179Y318549D01*
X386148Y319520D01*
X387973Y320740D01*
X389624Y322187D01*
X391072Y323838D01*
X392291Y325663D01*
X393262Y327632D01*
X393968Y329711D01*
X394396Y331864D01*
X394540Y334055D01*
X394396Y336246D01*
X393968Y338399D01*
X393262Y340478D01*
X392291Y342447D01*
X391072Y344272D01*
X389624Y345923D01*
X387973Y347371D01*
X386148Y348590D01*
X384179Y349562D01*
X382100Y350267D01*
X379947Y350695D01*
X377756Y350839D01*
D02*
G37*
G36*
X296260D02*
X294069Y350695D01*
X291916Y350267D01*
X289837Y349562D01*
X287868Y348590D01*
X286042Y347371D01*
X284392Y345923D01*
X282944Y344272D01*
X281725Y342447D01*
X280753Y340478D01*
X280048Y338399D01*
X279620Y336246D01*
X279476Y334055D01*
X279620Y331864D01*
X280048Y329711D01*
X280753Y327632D01*
X281725Y325663D01*
X282944Y323838D01*
X284392Y322187D01*
X286042Y320740D01*
X287868Y319520D01*
X289837Y318549D01*
X291916Y317843D01*
X294069Y317415D01*
X296260Y317271D01*
X298451Y317415D01*
X300604Y317843D01*
X302683Y318549D01*
X304652Y319520D01*
X306477Y320740D01*
X308128Y322187D01*
X309576Y323838D01*
X310795Y325663D01*
X311766Y327632D01*
X312472Y329711D01*
X312900Y331864D01*
X313044Y334055D01*
X312900Y336246D01*
X312472Y338399D01*
X311766Y340478D01*
X310795Y342447D01*
X309576Y344272D01*
X308128Y345923D01*
X306477Y347371D01*
X304652Y348590D01*
X302683Y349562D01*
X300604Y350267D01*
X298451Y350695D01*
X296260Y350839D01*
D02*
G37*
G36*
X332812Y309753D02*
X330980Y307921D01*
X332812Y306089D01*
X334644Y307921D01*
X332812Y309753D01*
D02*
G37*
G36*
X329566Y306507D02*
X327734Y304675D01*
X329566Y302843D01*
X331398Y304675D01*
X329566Y306507D01*
D02*
G37*
G36*
X336058D02*
X334226Y304675D01*
X336058Y302843D01*
X337890Y304675D01*
X336058Y306507D01*
D02*
G37*
G36*
X332812Y303261D02*
X330980Y301429D01*
X332812Y299597D01*
X334644Y301429D01*
X332812Y303261D01*
D02*
G37*
G36*
X325741Y301225D02*
X324803Y301102D01*
X323930Y300740D01*
X323180Y300165D01*
X322604Y299415D01*
X322243Y298541D01*
X322119Y297604D01*
X322243Y296667D01*
X322604Y295793D01*
X323180Y295043D01*
X323930Y294468D01*
X324803Y294106D01*
X325741Y293983D01*
X326678Y294106D01*
X327552Y294468D01*
X328302Y295043D01*
X328877Y295793D01*
X329239Y296667D01*
X329362Y297604D01*
X329239Y298541D01*
X328877Y299415D01*
X328302Y300165D01*
X327552Y300740D01*
X326678Y301102D01*
X325741Y301225D01*
D02*
G37*
G36*
X348275Y293419D02*
X347338Y293296D01*
X346464Y292934D01*
X345714Y292358D01*
X345139Y291608D01*
X344962Y291183D01*
X265811D01*
X265538Y291538D01*
X264912Y292019D01*
X264182Y292322D01*
X263399Y292425D01*
X262616Y292322D01*
X261886Y292019D01*
X261259Y291538D01*
X260778Y290912D01*
X260476Y290182D01*
X260373Y289399D01*
X260476Y288616D01*
X260778Y287886D01*
X261259Y287259D01*
X261886Y286778D01*
X262616Y286476D01*
X263399Y286373D01*
X264182Y286476D01*
X264912Y286778D01*
X265538Y287259D01*
X265811Y287614D01*
X340361D01*
X340552Y287153D01*
X339372Y285972D01*
X341204Y284141D01*
X343036Y285972D01*
X341856Y287153D01*
X342047Y287614D01*
X345424D01*
X345714Y287237D01*
X346464Y286661D01*
X347338Y286299D01*
X348275Y286176D01*
X349212Y286299D01*
X350086Y286661D01*
X350836Y287237D01*
X351411Y287987D01*
X351773Y288860D01*
X351896Y289798D01*
X351773Y290735D01*
X351411Y291608D01*
X350836Y292358D01*
X350086Y292934D01*
X349212Y293296D01*
X348275Y293419D01*
D02*
G37*
G36*
X592763D02*
X591826Y293296D01*
X590952Y292934D01*
X590202Y292358D01*
X589627Y291608D01*
X589265Y290735D01*
X589142Y289798D01*
X589265Y288860D01*
X589627Y287987D01*
X590202Y287237D01*
X590952Y286661D01*
X591826Y286299D01*
X592763Y286176D01*
X593700Y286299D01*
X594574Y286661D01*
X595324Y287237D01*
X595899Y287987D01*
X596261Y288860D01*
X596385Y289798D01*
X596261Y290735D01*
X595899Y291608D01*
X595324Y292358D01*
X594574Y292934D01*
X593700Y293296D01*
X592763Y293419D01*
D02*
G37*
G36*
X511267D02*
X510330Y293296D01*
X509456Y292934D01*
X508706Y292358D01*
X508131Y291608D01*
X507769Y290735D01*
X507646Y289798D01*
X507769Y288860D01*
X508131Y287987D01*
X508706Y287237D01*
X509456Y286661D01*
X510330Y286299D01*
X511267Y286176D01*
X512204Y286299D01*
X513078Y286661D01*
X513828Y287237D01*
X514403Y287987D01*
X514765Y288860D01*
X514888Y289798D01*
X514765Y290735D01*
X514403Y291608D01*
X513828Y292358D01*
X513078Y292934D01*
X512204Y293296D01*
X511267Y293419D01*
D02*
G37*
G36*
X429771D02*
X428834Y293296D01*
X427960Y292934D01*
X427210Y292358D01*
X426635Y291608D01*
X426273Y290735D01*
X426149Y289798D01*
X426273Y288860D01*
X426635Y287987D01*
X427210Y287237D01*
X427960Y286661D01*
X428834Y286299D01*
X429771Y286176D01*
X430708Y286299D01*
X431582Y286661D01*
X432332Y287237D01*
X432907Y287987D01*
X433269Y288860D01*
X433392Y289798D01*
X433269Y290735D01*
X432907Y291608D01*
X432332Y292358D01*
X431582Y292934D01*
X430708Y293296D01*
X429771Y293419D01*
D02*
G37*
G36*
X504196Y287804D02*
X502364Y285972D01*
X504196Y284141D01*
X506028Y285972D01*
X504196Y287804D01*
D02*
G37*
G36*
X667188D02*
X665356Y285972D01*
X667188Y284141D01*
X669020Y285972D01*
X667188Y287804D01*
D02*
G37*
G36*
X585692D02*
X583860Y285972D01*
X585692Y284141D01*
X587524Y285972D01*
X585692Y287804D01*
D02*
G37*
G36*
X500950Y284558D02*
X499118Y282727D01*
X500950Y280895D01*
X502782Y282727D01*
X500950Y284558D01*
D02*
G37*
G36*
X663942D02*
X662110Y282727D01*
X663942Y280895D01*
X665774Y282727D01*
X663942Y284558D01*
D02*
G37*
G36*
X507442D02*
X505610Y282727D01*
X507442Y280895D01*
X509274Y282727D01*
X507442Y284558D01*
D02*
G37*
G36*
X670434D02*
X668602Y282727D01*
X670434Y280895D01*
X672266Y282727D01*
X670434Y284558D01*
D02*
G37*
G36*
X344450Y284558D02*
X342618Y282727D01*
X344450Y280895D01*
X346282Y282727D01*
X344450Y284558D01*
D02*
G37*
G36*
X337958D02*
X336126Y282727D01*
X337958Y280895D01*
X339790Y282727D01*
X337958Y284558D01*
D02*
G37*
G36*
X588938D02*
X587106Y282727D01*
X588938Y280895D01*
X590770Y282727D01*
X588938Y284558D01*
D02*
G37*
G36*
X582446D02*
X580614Y282727D01*
X582446Y280895D01*
X584278Y282727D01*
X582446Y284558D01*
D02*
G37*
G36*
X667188Y281312D02*
X665356Y279481D01*
X667188Y277649D01*
X669020Y279481D01*
X667188Y281312D01*
D02*
G37*
G36*
X585692Y281312D02*
X583860Y279481D01*
X585692Y277649D01*
X587524Y279481D01*
X585692Y281312D01*
D02*
G37*
G36*
X504196Y281312D02*
X502364Y279481D01*
X504196Y277649D01*
X506028Y279481D01*
X504196Y281312D01*
D02*
G37*
G36*
X422700Y287804D02*
X417622Y282727D01*
X422700Y277649D01*
X427778Y282727D01*
X422700Y287804D01*
D02*
G37*
G36*
X341204Y281312D02*
X339372Y279481D01*
X341204Y277649D01*
X343036Y279481D01*
X341204Y281312D01*
D02*
G37*
G36*
X422455Y273129D02*
X421772Y272993D01*
X421193Y272606D01*
X421193Y272606D01*
X412040Y263453D01*
X407657D01*
Y256547D01*
X409220D01*
Y255501D01*
X375707Y221988D01*
X375320Y221409D01*
X375184Y220726D01*
Y207567D01*
X373220D01*
Y200071D01*
X380716D01*
Y207567D01*
X378753D01*
Y219987D01*
X412266Y253500D01*
X412653Y254079D01*
X412789Y254762D01*
Y256547D01*
X414563D01*
Y260929D01*
X423194Y269560D01*
X453357D01*
X453440Y269060D01*
X452829Y268853D01*
X450860Y267882D01*
X449035Y266662D01*
X447384Y265214D01*
X445936Y263564D01*
X444717Y261738D01*
X443746Y259769D01*
X443040Y257691D01*
X442612Y255537D01*
X442468Y253346D01*
X442612Y251156D01*
X443040Y249002D01*
X443746Y246923D01*
X444717Y244954D01*
X445936Y243129D01*
X447384Y241478D01*
X449035Y240031D01*
X450860Y238811D01*
X452829Y237840D01*
X454908Y237134D01*
X457061Y236706D01*
X459252Y236562D01*
X461443Y236706D01*
X463596Y237134D01*
X465675Y237840D01*
X467644Y238811D01*
X469469Y240031D01*
X471120Y241478D01*
X472568Y243129D01*
X473787Y244954D01*
X474758Y246923D01*
X475464Y249002D01*
X475892Y251156D01*
X476036Y253346D01*
X475892Y255537D01*
X475464Y257691D01*
X474758Y259769D01*
X473787Y261738D01*
X472568Y263564D01*
X471120Y265214D01*
X469469Y266662D01*
X467644Y267882D01*
X465675Y268853D01*
X465064Y269060D01*
X465146Y269560D01*
X534854D01*
X534936Y269060D01*
X534325Y268853D01*
X532356Y267882D01*
X530531Y266662D01*
X528880Y265214D01*
X527432Y263564D01*
X526213Y261738D01*
X525242Y259769D01*
X524536Y257691D01*
X524108Y255537D01*
X523964Y253346D01*
X524108Y251156D01*
X524536Y249002D01*
X525242Y246923D01*
X526213Y244954D01*
X527432Y243129D01*
X528880Y241478D01*
X530531Y240031D01*
X532356Y238811D01*
X534325Y237840D01*
X536404Y237134D01*
X538557Y236706D01*
X540748Y236562D01*
X542939Y236706D01*
X545092Y237134D01*
X547171Y237840D01*
X549140Y238811D01*
X550965Y240031D01*
X552616Y241478D01*
X554064Y243129D01*
X555283Y244954D01*
X556254Y246923D01*
X556960Y249002D01*
X557388Y251156D01*
X557532Y253346D01*
X557388Y255537D01*
X556960Y257691D01*
X556254Y259769D01*
X555283Y261738D01*
X554064Y263564D01*
X552616Y265214D01*
X550965Y266662D01*
X549140Y267882D01*
X547171Y268853D01*
X546560Y269060D01*
X546643Y269560D01*
X562027D01*
X570657Y260929D01*
Y256547D01*
X577563D01*
Y263453D01*
X573181D01*
X564027Y272606D01*
X563449Y272993D01*
X562766Y273129D01*
X422455D01*
X422455Y273129D01*
D02*
G37*
G36*
X591342Y263453D02*
X584437D01*
Y256547D01*
X585016D01*
Y250551D01*
X583075D01*
Y243449D01*
X588996D01*
Y250551D01*
X587055D01*
Y256547D01*
X591342D01*
Y263453D01*
D02*
G37*
G36*
X428342D02*
X421437D01*
Y256547D01*
X422016D01*
Y249551D01*
X420075D01*
Y242449D01*
X425996D01*
Y249551D01*
X424055D01*
Y256547D01*
X428342D01*
Y263453D01*
D02*
G37*
G36*
X703740Y270130D02*
X701549Y269987D01*
X699396Y269559D01*
X697317Y268853D01*
X695348Y267882D01*
X693523Y266662D01*
X691872Y265214D01*
X690424Y263564D01*
X689205Y261738D01*
X688234Y259769D01*
X687528Y257691D01*
X687100Y255537D01*
X686956Y253346D01*
X687100Y251156D01*
X687528Y249002D01*
X688234Y246923D01*
X689205Y244954D01*
X690424Y243129D01*
X691872Y241478D01*
X693523Y240031D01*
X695348Y238811D01*
X697317Y237840D01*
X699396Y237134D01*
X701549Y236706D01*
X703740Y236562D01*
X705931Y236706D01*
X708084Y237134D01*
X710163Y237840D01*
X712132Y238811D01*
X713958Y240031D01*
X715608Y241478D01*
X717056Y243129D01*
X718275Y244954D01*
X719246Y246923D01*
X719952Y249002D01*
X720380Y251156D01*
X720524Y253346D01*
X720380Y255537D01*
X719952Y257691D01*
X719246Y259769D01*
X718275Y261738D01*
X717056Y263564D01*
X715608Y265214D01*
X713958Y266662D01*
X712132Y267882D01*
X710163Y268853D01*
X708084Y269559D01*
X705931Y269987D01*
X703740Y270130D01*
D02*
G37*
G36*
X377756D02*
X375565Y269987D01*
X373412Y269559D01*
X371333Y268853D01*
X369364Y267882D01*
X367538Y266662D01*
X365888Y265214D01*
X364440Y263564D01*
X363221Y261738D01*
X362249Y259769D01*
X361544Y257691D01*
X361116Y255537D01*
X360972Y253346D01*
X361116Y251156D01*
X361544Y249002D01*
X362249Y246923D01*
X363221Y244954D01*
X364440Y243129D01*
X365888Y241478D01*
X367538Y240031D01*
X369364Y238811D01*
X371333Y237840D01*
X373412Y237134D01*
X375565Y236706D01*
X377756Y236562D01*
X379947Y236706D01*
X382100Y237134D01*
X384179Y237840D01*
X386148Y238811D01*
X387973Y240031D01*
X389624Y241478D01*
X391072Y243129D01*
X392291Y244954D01*
X393262Y246923D01*
X393968Y249002D01*
X394396Y251156D01*
X394540Y253346D01*
X394396Y255537D01*
X393968Y257691D01*
X393262Y259769D01*
X392291Y261738D01*
X391072Y263564D01*
X389624Y265214D01*
X387973Y266662D01*
X386148Y267882D01*
X384179Y268853D01*
X382100Y269559D01*
X379947Y269987D01*
X377756Y270130D01*
D02*
G37*
G36*
X296260D02*
X294069Y269987D01*
X291916Y269559D01*
X289837Y268853D01*
X287868Y267882D01*
X286042Y266662D01*
X284392Y265214D01*
X282944Y263564D01*
X281725Y261738D01*
X280753Y259769D01*
X280048Y257691D01*
X279620Y255537D01*
X279476Y253346D01*
X279620Y251156D01*
X280048Y249002D01*
X280753Y246923D01*
X281725Y244954D01*
X282944Y243129D01*
X284392Y241478D01*
X286042Y240031D01*
X287868Y238811D01*
X289837Y237840D01*
X291916Y237134D01*
X294069Y236706D01*
X296260Y236562D01*
X298451Y236706D01*
X300604Y237134D01*
X302683Y237840D01*
X304652Y238811D01*
X306477Y240031D01*
X308128Y241478D01*
X309576Y243129D01*
X310795Y244954D01*
X311766Y246923D01*
X312472Y249002D01*
X312900Y251156D01*
X313044Y253346D01*
X312900Y255537D01*
X312472Y257691D01*
X311766Y259769D01*
X310795Y261738D01*
X309576Y263564D01*
X308128Y265214D01*
X306477Y266662D01*
X304652Y267882D01*
X302683Y268853D01*
X300604Y269559D01*
X298451Y269987D01*
X296260Y270130D01*
D02*
G37*
G36*
X332812Y229044D02*
X330980Y227212D01*
X332812Y225381D01*
X334644Y227212D01*
X332812Y229044D01*
D02*
G37*
G36*
X329566Y225798D02*
X327734Y223966D01*
X329566Y222135D01*
X331398Y223966D01*
X329566Y225798D01*
D02*
G37*
G36*
X336058D02*
X334226Y223966D01*
X336058Y222135D01*
X337890Y223966D01*
X336058Y225798D01*
D02*
G37*
G36*
X332812Y222552D02*
X330980Y220720D01*
X332812Y218889D01*
X334644Y220720D01*
X332812Y222552D01*
D02*
G37*
G36*
X580925Y250551D02*
X575004D01*
Y245378D01*
X574692Y245170D01*
X548542Y219020D01*
X481000D01*
X480610Y218942D01*
X480279Y218721D01*
X478305Y216747D01*
X478261Y216721D01*
X477739D01*
X477695Y216747D01*
X475721Y218721D01*
X475390Y218942D01*
X475000Y219020D01*
X442796D01*
X417925Y243891D01*
Y249551D01*
X412004D01*
Y242449D01*
X416483D01*
X441653Y217279D01*
X441984Y217058D01*
X442374Y216980D01*
X474578D01*
X475980Y215578D01*
Y191462D01*
X475607Y191212D01*
X475235Y190656D01*
X475105Y190000D01*
X475235Y189344D01*
X475607Y188788D01*
X476163Y188416D01*
X476819Y188286D01*
X477475Y188416D01*
X477539Y188460D01*
X477980Y188224D01*
Y187341D01*
X477788Y187212D01*
X477416Y186656D01*
X477286Y186000D01*
X477416Y185344D01*
X477788Y184788D01*
X478344Y184416D01*
X479000Y184286D01*
X479656Y184416D01*
X480212Y184788D01*
X480584Y185344D01*
X480714Y186000D01*
X480584Y186656D01*
X480212Y187212D01*
X480020Y187341D01*
Y215578D01*
X481422Y216980D01*
X548965D01*
X549355Y217058D01*
X549685Y217279D01*
X575836Y243429D01*
X576004D01*
X576102Y243449D01*
X580925D01*
Y250551D01*
D02*
G37*
G36*
X325741Y220517D02*
X324803Y220393D01*
X323930Y220032D01*
X323180Y219456D01*
X322604Y218706D01*
X322243Y217833D01*
X322119Y216895D01*
X322243Y215958D01*
X322604Y215085D01*
X323180Y214335D01*
X323930Y213759D01*
X324803Y213397D01*
X325741Y213274D01*
X326678Y213397D01*
X327552Y213759D01*
X328302Y214335D01*
X328877Y215085D01*
X329239Y215958D01*
X329362Y216895D01*
X329239Y217833D01*
X328877Y218706D01*
X328302Y219456D01*
X327552Y220032D01*
X326678Y220393D01*
X325741Y220517D01*
D02*
G37*
G36*
X703551Y207951D02*
X701000D01*
Y205400D01*
X703551D01*
Y207951D01*
D02*
G37*
G36*
X699000D02*
X696449D01*
Y205400D01*
X699000D01*
Y207951D01*
D02*
G37*
G36*
X703551Y203400D02*
X701000D01*
Y200849D01*
X703551D01*
Y203400D01*
D02*
G37*
G36*
X699000D02*
X696449D01*
Y200849D01*
X699000D01*
Y203400D01*
D02*
G37*
G36*
X276386Y208118D02*
X268890D01*
Y200622D01*
X276386D01*
Y208118D01*
D02*
G37*
G36*
X559221Y207567D02*
X551724D01*
Y200071D01*
X559221D01*
Y207567D01*
D02*
G37*
G36*
X595472Y207599D02*
X594494Y207470D01*
X593582Y207093D01*
X592799Y206492D01*
X592199Y205709D01*
X591821Y204797D01*
X591692Y203819D01*
X591821Y202840D01*
X592199Y201929D01*
X592799Y201146D01*
X593582Y200545D01*
X594494Y200167D01*
X595472Y200039D01*
X596451Y200167D01*
X597363Y200545D01*
X598146Y201146D01*
X598746Y201929D01*
X599124Y202840D01*
X599253Y203819D01*
X599124Y204797D01*
X598746Y205709D01*
X598146Y206492D01*
X597363Y207093D01*
X596451Y207470D01*
X595472Y207599D01*
D02*
G37*
G36*
X585472D02*
X584494Y207470D01*
X583582Y207093D01*
X582799Y206492D01*
X582198Y205709D01*
X581821Y204797D01*
X581692Y203819D01*
X581821Y202840D01*
X582198Y201929D01*
X582799Y201146D01*
X583582Y200545D01*
X584494Y200167D01*
X585472Y200039D01*
X586451Y200167D01*
X587363Y200545D01*
X588146Y201146D01*
X588746Y201929D01*
X589124Y202840D01*
X589253Y203819D01*
X589124Y204797D01*
X588746Y205709D01*
X588146Y206492D01*
X587363Y207093D01*
X586451Y207470D01*
X585472Y207599D01*
D02*
G37*
G36*
X575472D02*
X574494Y207470D01*
X573582Y207093D01*
X572799Y206492D01*
X572198Y205709D01*
X571821Y204797D01*
X571692Y203819D01*
X571821Y202840D01*
X572198Y201929D01*
X572799Y201146D01*
X573582Y200545D01*
X574494Y200167D01*
X575472Y200039D01*
X576451Y200167D01*
X577363Y200545D01*
X578146Y201146D01*
X578746Y201929D01*
X579124Y202840D01*
X579253Y203819D01*
X579124Y204797D01*
X578746Y205709D01*
X578146Y206492D01*
X577363Y207093D01*
X576451Y207470D01*
X575472Y207599D01*
D02*
G37*
G36*
X565472D02*
X564494Y207470D01*
X563582Y207093D01*
X562799Y206492D01*
X562198Y205709D01*
X561821Y204797D01*
X561692Y203819D01*
X561821Y202840D01*
X562198Y201929D01*
X562799Y201146D01*
X563582Y200545D01*
X564494Y200167D01*
X565472Y200039D01*
X566451Y200167D01*
X567363Y200545D01*
X568146Y201146D01*
X568746Y201929D01*
X569124Y202840D01*
X569253Y203819D01*
X569124Y204797D01*
X568746Y205709D01*
X568146Y206492D01*
X567363Y207093D01*
X566451Y207470D01*
X565472Y207599D01*
D02*
G37*
G36*
X416968D02*
X415990Y207470D01*
X415078Y207093D01*
X414295Y206492D01*
X413695Y205709D01*
X413317Y204797D01*
X413188Y203819D01*
X413317Y202840D01*
X413695Y201929D01*
X414295Y201146D01*
X415078Y200545D01*
X415990Y200167D01*
X416968Y200039D01*
X417947Y200167D01*
X418859Y200545D01*
X419642Y201146D01*
X420242Y201929D01*
X420620Y202840D01*
X420749Y203819D01*
X420620Y204797D01*
X420242Y205709D01*
X419642Y206492D01*
X418859Y207093D01*
X417947Y207470D01*
X416968Y207599D01*
D02*
G37*
G36*
X406968D02*
X405990Y207470D01*
X405078Y207093D01*
X404295Y206492D01*
X403695Y205709D01*
X403317Y204797D01*
X403188Y203819D01*
X403317Y202840D01*
X403695Y201929D01*
X404295Y201146D01*
X405078Y200545D01*
X405990Y200167D01*
X406968Y200039D01*
X407947Y200167D01*
X408859Y200545D01*
X409642Y201146D01*
X410242Y201929D01*
X410620Y202840D01*
X410749Y203819D01*
X410620Y204797D01*
X410242Y205709D01*
X409642Y206492D01*
X408859Y207093D01*
X407947Y207470D01*
X406968Y207599D01*
D02*
G37*
G36*
X396969D02*
X395990Y207470D01*
X395078Y207093D01*
X394295Y206492D01*
X393695Y205709D01*
X393317Y204797D01*
X393188Y203819D01*
X393317Y202840D01*
X393695Y201929D01*
X394295Y201146D01*
X395078Y200545D01*
X395990Y200167D01*
X396969Y200039D01*
X397947Y200167D01*
X398859Y200545D01*
X399642Y201146D01*
X400242Y201929D01*
X400620Y202840D01*
X400749Y203819D01*
X400620Y204797D01*
X400242Y205709D01*
X399642Y206492D01*
X398859Y207093D01*
X397947Y207470D01*
X396969Y207599D01*
D02*
G37*
G36*
X386968D02*
X385990Y207470D01*
X385078Y207093D01*
X384295Y206492D01*
X383695Y205709D01*
X383317Y204797D01*
X383188Y203819D01*
X383317Y202840D01*
X383695Y201929D01*
X384295Y201146D01*
X385078Y200545D01*
X385990Y200167D01*
X386968Y200039D01*
X387947Y200167D01*
X388859Y200545D01*
X389642Y201146D01*
X390242Y201929D01*
X390620Y202840D01*
X390749Y203819D01*
X390620Y204797D01*
X390242Y205709D01*
X389642Y206492D01*
X388859Y207093D01*
X387947Y207470D01*
X386968Y207599D01*
D02*
G37*
G36*
X433000Y223026D02*
X432217Y222923D01*
X431487Y222621D01*
X430860Y222140D01*
X430379Y221513D01*
X430077Y220783D01*
X429974Y220000D01*
X430077Y219217D01*
X430379Y218487D01*
X430860Y217860D01*
X431444Y217412D01*
Y197915D01*
X430738Y197372D01*
X430178Y196643D01*
X429826Y195793D01*
X429706Y194882D01*
X429826Y193970D01*
X430178Y193121D01*
X430738Y192391D01*
X431467Y191832D01*
X432317Y191480D01*
X433228Y191360D01*
X434140Y191480D01*
X434990Y191832D01*
X435719Y192391D01*
X436279Y193121D01*
X436631Y193970D01*
X436751Y194882D01*
X436631Y195793D01*
X436279Y196643D01*
X435719Y197372D01*
X435013Y197915D01*
Y217763D01*
X435140Y217860D01*
X435620Y218487D01*
X435923Y219217D01*
X436026Y220000D01*
X435923Y220783D01*
X435620Y221513D01*
X435140Y222140D01*
X434513Y222621D01*
X433783Y222923D01*
X433000Y223026D01*
D02*
G37*
G36*
X700000Y197982D02*
X699073Y197860D01*
X698209Y197502D01*
X697467Y196933D01*
X696898Y196191D01*
X696540Y195327D01*
X696418Y194400D01*
X696540Y193473D01*
X696898Y192609D01*
X697467Y191867D01*
X698209Y191298D01*
X699073Y190940D01*
X700000Y190818D01*
X700927Y190940D01*
X701791Y191298D01*
X702533Y191867D01*
X703102Y192609D01*
X703460Y193473D01*
X703582Y194400D01*
X703460Y195327D01*
X703102Y196191D01*
X702533Y196933D01*
X701791Y197502D01*
X700927Y197860D01*
X700000Y197982D01*
D02*
G37*
G36*
X316158Y189473D02*
Y186228D01*
X319402D01*
X319384Y186361D01*
X318947Y187416D01*
X318252Y188323D01*
X317345Y189018D01*
X316290Y189455D01*
X316158Y189473D01*
D02*
G37*
G36*
X314158D02*
X314025Y189455D01*
X312969Y189018D01*
X312063Y188323D01*
X311368Y187416D01*
X310931Y186361D01*
X310913Y186228D01*
X314158D01*
Y189473D01*
D02*
G37*
G36*
X319402Y184228D02*
X316158D01*
Y180984D01*
X316290Y181001D01*
X317345Y181439D01*
X318252Y182134D01*
X318947Y183040D01*
X319384Y184096D01*
X319402Y184228D01*
D02*
G37*
G36*
X314158D02*
X310913D01*
X310931Y184096D01*
X311368Y183040D01*
X312063Y182134D01*
X312969Y181439D01*
X314025Y181001D01*
X314158Y180984D01*
Y184228D01*
D02*
G37*
G36*
X339181Y189567D02*
X330504D01*
Y180890D01*
X339181D01*
Y189567D01*
D02*
G37*
G36*
X539213Y193404D02*
X538301Y193284D01*
X537452Y192932D01*
X536722Y192373D01*
X536162Y191643D01*
X535810Y190794D01*
X535690Y189882D01*
X535810Y188970D01*
X536162Y188121D01*
X536722Y187391D01*
X537452Y186831D01*
X538301Y186480D01*
X539213Y186360D01*
X540124Y186480D01*
X540974Y186831D01*
X541703Y187391D01*
X542263Y188121D01*
X542570Y188862D01*
X584696D01*
X595331Y178227D01*
X595286Y178000D01*
X595416Y177344D01*
X595788Y176788D01*
X596344Y176416D01*
X597000Y176286D01*
X597656Y176416D01*
X598212Y176788D01*
X598584Y177344D01*
X598714Y178000D01*
X598584Y178656D01*
X598212Y179212D01*
X597656Y179584D01*
X597000Y179714D01*
X596773Y179669D01*
X585839Y190603D01*
X585508Y190824D01*
X585118Y190902D01*
X542570D01*
X542263Y191643D01*
X541703Y192373D01*
X540974Y192932D01*
X540124Y193284D01*
X539213Y193404D01*
D02*
G37*
G36*
X271638Y168013D02*
X270748Y167644D01*
X269965Y167043D01*
X269364Y166260D01*
X268995Y165370D01*
X271638D01*
Y168013D01*
D02*
G37*
G36*
Y163370D02*
X268995D01*
X269364Y162480D01*
X269965Y161697D01*
X270748Y161096D01*
X271638Y160727D01*
Y163370D01*
D02*
G37*
%LPD*%
D15*
X682000Y744457D02*
D03*
Y751543D02*
D03*
D16*
X608968Y704000D02*
D03*
X601882D02*
D03*
X542457Y749000D02*
D03*
X549543D02*
D03*
X311457D02*
D03*
X318543D02*
D03*
D19*
X366484Y712972D02*
D03*
Y747028D02*
D03*
X389516D02*
D03*
Y712972D02*
D03*
X609516D02*
D03*
Y747028D02*
D03*
X586484D02*
D03*
Y712972D02*
D03*
D20*
X366484Y715925D02*
D03*
Y718484D02*
D03*
Y721043D02*
D03*
Y723602D02*
D03*
Y726161D02*
D03*
Y728721D02*
D03*
Y731280D02*
D03*
Y733839D02*
D03*
Y736398D02*
D03*
Y738957D02*
D03*
Y741516D02*
D03*
Y744075D02*
D03*
X389516D02*
D03*
Y741516D02*
D03*
Y738957D02*
D03*
Y736398D02*
D03*
Y733839D02*
D03*
Y731280D02*
D03*
Y728721D02*
D03*
Y726161D02*
D03*
Y723602D02*
D03*
Y721043D02*
D03*
Y718484D02*
D03*
Y715925D02*
D03*
X609516D02*
D03*
Y718484D02*
D03*
Y721043D02*
D03*
Y723602D02*
D03*
Y726161D02*
D03*
Y728721D02*
D03*
Y731280D02*
D03*
Y733839D02*
D03*
Y736398D02*
D03*
Y738957D02*
D03*
Y741516D02*
D03*
Y744075D02*
D03*
X586484D02*
D03*
Y741516D02*
D03*
Y738957D02*
D03*
Y736398D02*
D03*
Y733839D02*
D03*
Y731280D02*
D03*
Y728721D02*
D03*
Y726161D02*
D03*
Y723602D02*
D03*
Y721043D02*
D03*
Y718484D02*
D03*
Y715925D02*
D03*
D27*
X668504Y710000D02*
D03*
Y715000D02*
D03*
Y720000D02*
D03*
Y725000D02*
D03*
Y730000D02*
D03*
Y735000D02*
D03*
Y740000D02*
D03*
Y745000D02*
D03*
Y750000D02*
D03*
X631496D02*
D03*
Y745000D02*
D03*
Y740000D02*
D03*
Y735000D02*
D03*
Y730000D02*
D03*
Y725000D02*
D03*
Y720000D02*
D03*
Y715000D02*
D03*
Y710000D02*
D03*
D28*
X325741Y216895D02*
D03*
Y297604D02*
D03*
Y378313D02*
D03*
Y459021D02*
D03*
Y539730D02*
D03*
Y620439D02*
D03*
X348275Y289798D02*
D03*
Y370506D02*
D03*
Y451215D02*
D03*
Y531923D02*
D03*
Y612632D02*
D03*
Y693341D02*
D03*
X429771Y289798D02*
D03*
Y370506D02*
D03*
Y451215D02*
D03*
X429771Y531923D02*
D03*
Y612632D02*
D03*
Y693341D02*
D03*
X511267Y289798D02*
D03*
Y370506D02*
D03*
Y451215D02*
D03*
Y531923D02*
D03*
Y612632D02*
D03*
X511267Y693538D02*
D03*
X592763Y289798D02*
D03*
Y370506D02*
D03*
Y451215D02*
D03*
Y531923D02*
D03*
Y612632D02*
D03*
Y693341D02*
D03*
X674259Y289798D02*
D03*
Y370506D02*
D03*
Y451215D02*
D03*
Y531923D02*
D03*
Y693341D02*
D03*
Y612632D02*
D03*
D29*
X332812Y223966D02*
D03*
Y304675D02*
D03*
Y385384D02*
D03*
Y466092D02*
D03*
Y546801D02*
D03*
Y627510D02*
D03*
X341204Y282727D02*
D03*
Y363435D02*
D03*
Y444144D02*
D03*
Y524853D02*
D03*
Y605561D02*
D03*
Y686270D02*
D03*
X422700Y282727D02*
D03*
Y363435D02*
D03*
Y444144D02*
D03*
X422700Y524853D02*
D03*
Y605561D02*
D03*
Y686270D02*
D03*
X504196Y282727D02*
D03*
Y363435D02*
D03*
Y444144D02*
D03*
Y524853D02*
D03*
Y605561D02*
D03*
X504196Y686467D02*
D03*
X585692Y282727D02*
D03*
Y363435D02*
D03*
Y444144D02*
D03*
Y524853D02*
D03*
Y605561D02*
D03*
Y686270D02*
D03*
X667188Y282727D02*
D03*
Y363435D02*
D03*
Y444144D02*
D03*
Y524853D02*
D03*
Y686270D02*
D03*
Y605561D02*
D03*
D43*
X706437Y156438D02*
X711000Y161000D01*
X663062Y156438D02*
X706437D01*
X616563D02*
X663062D01*
X616500Y156500D02*
X616563Y156438D01*
X472544Y156500D02*
X472774Y156270D01*
X472774D01*
X473004Y156500D01*
X616500D01*
X282964D02*
X472544D01*
X450008Y159750D02*
X613000D01*
X449857Y159599D02*
X450008Y159750D01*
X613000Y159599D02*
X652849D01*
X653000Y159750D01*
X277636Y161829D02*
X282964Y156500D01*
X562000Y755837D02*
X662505D01*
X663748Y752837D02*
X663911Y753000D01*
X680543D01*
X631496Y750000D02*
X655691D01*
X658528Y752837D01*
X663748D01*
X433000Y220000D02*
X433228Y219772D01*
Y194882D02*
Y219772D01*
X625142Y195000D02*
Y204650D01*
Y173350D02*
Y195000D01*
X532000Y179000D02*
Y185000D01*
Y179000D02*
X543000Y168000D01*
X578000D01*
X638000D01*
X642858Y172858D02*
Y173350D01*
X638000Y168000D02*
X642858Y172858D01*
X286866Y159599D02*
X449857D01*
X283000Y163464D02*
X286866Y159599D01*
X653000D02*
X704134D01*
X642858Y182000D02*
X652525D01*
X604246Y236797D02*
Y626415D01*
X601449Y234000D02*
X604246Y236797D01*
X596000Y634661D02*
X604246Y626415D01*
X592000Y634000D02*
X601246Y624754D01*
Y238273D02*
Y624754D01*
X592000Y634000D02*
Y677173D01*
X642858Y182000D02*
Y204650D01*
Y173350D02*
Y182000D01*
X422455Y271344D02*
X562766D01*
X574110Y260000D01*
X411110D02*
X422455Y271344D01*
X411004Y259894D02*
X411110Y260000D01*
X376969Y203819D02*
Y220726D01*
X411004Y254762D02*
Y259894D01*
X376969Y220726D02*
X411004Y254762D01*
X598750Y714714D02*
Y715000D01*
Y714714D02*
X604464Y709000D01*
X605543D01*
X607266Y705703D02*
X608968Y704000D01*
X607266Y705703D02*
Y707278D01*
X605543Y709000D02*
X607266Y707278D01*
X593000Y721000D02*
Y724000D01*
Y712882D02*
Y721000D01*
Y724000D02*
Y726000D01*
Y743479D01*
X427000Y664000D02*
X442000Y679000D01*
X430000Y662757D02*
X448000Y680757D01*
X454000Y682515D02*
Y750000D01*
X448000Y680757D02*
Y745000D01*
X464131Y694061D02*
X492434D01*
X442000Y679000D02*
Y740000D01*
X595000Y704000D02*
X601882D01*
X595000Y704000D02*
X595000Y704000D01*
X556522Y749522D02*
X557000Y750000D01*
X385927Y755837D02*
X562000D01*
X550065Y749522D02*
X556522D01*
X661000Y625891D02*
Y700182D01*
X656000Y705182D02*
X661000Y700182D01*
Y625891D02*
X674259Y612632D01*
X670955Y694045D02*
X673555D01*
X664250Y700750D02*
Y701507D01*
X673555Y694045D02*
X674259Y693341D01*
X664250Y700750D02*
X670955Y694045D01*
X656000Y705182D02*
Y716021D01*
X659000Y706757D02*
X664250Y701507D01*
X656000Y716021D02*
X662979Y723000D01*
X664000Y706000D02*
X681000D01*
X659000Y706757D02*
Y714778D01*
X662000Y708000D02*
Y713535D01*
Y708000D02*
X664000Y706000D01*
X675640Y745457D02*
X682000D01*
Y744457D02*
X697457D01*
X700000Y747000D01*
X687837Y755837D02*
X700163D01*
X708964Y747036D01*
X700000Y727000D02*
X708964Y735964D01*
Y747036D01*
X596000Y634661D02*
Y677000D01*
X409035Y670000D02*
X416000D01*
X340000Y636449D02*
X343449Y633000D01*
X340000Y643413D02*
X345980Y649394D01*
X340000Y636449D02*
Y643413D01*
X343449Y633000D02*
X410515D01*
X409035Y649409D02*
X415000Y643445D01*
X410515Y633000D02*
X415000Y637485D01*
Y643445D01*
X409035Y649409D02*
Y650000D01*
Y660000D01*
X345980Y650606D02*
Y659984D01*
Y649394D02*
Y650606D01*
X331000Y755837D02*
X382073D01*
X301911D02*
X331000D01*
Y665587D02*
X345980Y650606D01*
X331000Y665587D02*
Y755837D01*
X366923Y531923D02*
X401000Y566000D01*
X348275Y531923D02*
X366923D01*
X401000Y566000D02*
Y610757D01*
X427000Y641000D02*
Y664000D01*
X433000Y661515D02*
X454000Y682515D01*
X430000Y639757D02*
Y662757D01*
X433000Y638515D02*
Y661515D01*
X404000Y609515D02*
X433000Y638515D01*
X404000Y489000D02*
Y609515D01*
X401000Y610757D02*
X430000Y639757D01*
X348275Y612632D02*
X398632D01*
X436000Y710000D02*
Y735000D01*
X398632Y612632D02*
X427000Y641000D01*
X366919Y451919D02*
X404000Y489000D01*
X345965Y660000D02*
X345980Y659984D01*
X389000Y702000D02*
X428000D01*
X436000Y710000D01*
X348979Y451919D02*
X366919D01*
X260000Y370000D02*
X347769D01*
X348275Y370506D01*
X347876Y289399D02*
X348275Y289798D01*
X263399Y289399D02*
X347876D01*
X263399Y289399D02*
X263399Y289399D01*
X592763Y693341D02*
X622430D01*
X654000Y724911D01*
X272638Y727047D02*
X273122D01*
X301911Y755837D01*
X304000Y750000D02*
X304478Y749522D01*
X325522D02*
X326000Y750000D01*
X319065Y749522D02*
X325522D01*
X318543Y749000D02*
X319065Y749522D01*
X382073Y755837D02*
X382845Y755065D01*
X384677D02*
X385155D01*
X385927Y755837D01*
X384000Y755742D02*
X384677Y755065D01*
X382845D02*
X383324D01*
X384000Y755742D01*
X680543Y753000D02*
X682000Y751543D01*
X416968Y164291D02*
X430291D01*
X439000Y173000D01*
X283000Y163464D02*
Y184008D01*
X272638Y194370D02*
X283000Y184008D01*
X272638Y184370D02*
X273402Y183606D01*
Y180674D02*
Y183606D01*
Y180674D02*
X277636Y176440D01*
Y161829D02*
Y176440D01*
X704134Y159599D02*
X708000Y163464D01*
Y166400D01*
X711000Y161000D02*
Y173400D01*
X700000Y174400D02*
X708000Y166400D01*
X700000Y184400D02*
X711000Y173400D01*
X654000Y724911D02*
Y725000D01*
X659000Y714778D02*
X662222Y718000D01*
X663886D01*
X665817Y719931D01*
X662979Y723000D02*
X662979D01*
X664979Y725000D01*
X668504D01*
X662000Y713535D02*
X663464Y715000D01*
X668504D01*
X383041Y713041D02*
X389447D01*
X383000Y713000D02*
X383041Y713041D01*
X671191Y749906D02*
X675640Y745457D01*
X671191Y749906D02*
Y749931D01*
X671122Y750000D02*
X671191Y749931D01*
X668504Y750000D02*
X671122D01*
X589520Y746959D02*
X593000Y743479D01*
Y712882D02*
X601882Y704000D01*
X586553Y746959D02*
X589520D01*
X586484Y747028D02*
X586553Y746959D01*
X608968Y704000D02*
Y712903D01*
X609037Y712972D01*
X609516D01*
X549543Y749000D02*
X550065Y749522D01*
X541935D02*
X542457Y749000D01*
X535478Y749522D02*
X541935D01*
X535000Y750000D02*
X535478Y749522D01*
X389447Y713041D02*
X389516Y712972D01*
X366484Y747028D02*
X366498Y747014D01*
X372986D01*
X373000Y747000D01*
X310935Y749522D02*
X311457Y749000D01*
X304478Y749522D02*
X310935D01*
X681000Y706000D02*
X731000Y656000D01*
X668504Y710000D02*
X681243D01*
X734000Y657243D01*
X682485Y713000D02*
X682485D01*
X680662Y714823D02*
X682485Y713000D01*
X677000Y715000D02*
X677177Y714823D01*
X680662D01*
X682485Y713000D02*
X737000Y658485D01*
X677478Y720522D02*
X679206D01*
X677000Y721000D02*
X677478Y720522D01*
X679206D02*
X740000Y659728D01*
X731000Y571000D02*
Y656000D01*
X737000Y416000D02*
Y658485D01*
X734000Y492000D02*
Y657243D01*
X740000Y340000D02*
Y659728D01*
X691506Y370506D02*
X737000Y416000D01*
X693215Y451215D02*
X734000Y492000D01*
X691924Y531923D02*
X731000Y571000D01*
X689798Y289798D02*
X740000Y340000D01*
X674259Y289798D02*
X689798D01*
X674259Y370506D02*
X691506D01*
X674259Y451215D02*
X693215D01*
X674259Y531923D02*
X691924D01*
X541000Y715000D02*
Y715500D01*
X456632Y612632D02*
X541000Y697000D01*
Y710000D01*
X513374Y715000D02*
X541000D01*
X492434Y694061D02*
X513374Y715000D01*
X429771Y612632D02*
X456632D01*
X348275Y451215D02*
X348979Y451919D01*
D44*
X662505Y755837D02*
X662668Y756000D01*
X687837D01*
X687918Y755918D01*
X626740Y752000D02*
X628740Y750000D01*
X622000Y752000D02*
X626740D01*
X628740Y750000D02*
X631496D01*
X586484Y723602D02*
X592602D01*
X593000Y724000D01*
X500000Y195000D02*
X625142D01*
X495000Y190000D02*
X500000Y195000D01*
X495519Y211000D02*
X673000D01*
X678341Y205659D01*
X414965Y245409D02*
X442374Y218000D01*
X475000D02*
X477000Y216000D01*
X442374Y218000D02*
X475000D01*
X548965D02*
X575413Y244449D01*
X479000Y216000D02*
X481000Y218000D01*
X548965D01*
X477000Y190181D02*
Y216000D01*
X479000Y186000D02*
Y216000D01*
X476819Y190000D02*
X477000Y190181D01*
X539213Y189882D02*
X585118D01*
X597000Y178000D01*
X652537Y182013D02*
X666459Y195934D01*
X652525Y182000D02*
X652537Y182013D01*
X676598Y195402D02*
X677000Y195000D01*
X673955Y195402D02*
X676598D01*
X673422Y195934D02*
X673955Y195402D01*
X666459Y195934D02*
X673422D01*
X678341Y198659D02*
Y205659D01*
X693096Y192260D02*
X695949Y189408D01*
X689740Y192260D02*
X693096D01*
X695949Y168451D02*
X700000Y164400D01*
X687000Y195000D02*
X689740Y192260D01*
X695949Y168451D02*
Y189408D01*
X509000Y162500D02*
X662500Y162500D01*
X497906Y165181D02*
X658863D01*
X665841Y172159D01*
X492924Y170163D02*
X497906Y165181D01*
X662500Y162500D02*
X678341Y178341D01*
X492924Y170163D02*
X493293D01*
X665841Y172159D02*
Y186841D01*
X668000Y189000D01*
X673357D01*
X676598Y189598D02*
X677000Y190000D01*
X673955Y189598D02*
X676598D01*
X673357Y189000D02*
X673955Y189598D01*
X678341Y178341D02*
Y186341D01*
X682000Y190000D01*
X678341Y198659D02*
X682000Y195000D01*
X593043Y721043D02*
X609516D01*
X593000Y721000D02*
X593043Y721043D01*
X593398Y723602D02*
X609516D01*
X593000Y724000D02*
X593398Y723602D01*
X609354Y726000D02*
X609516Y726161D01*
X593000Y726000D02*
X609354D01*
X616031Y719884D02*
Y724505D01*
Y719884D02*
X622655Y713261D01*
X620734Y718181D02*
X623903D01*
X617531Y721384D02*
X620734Y718181D01*
X617531Y721384D02*
Y727384D01*
X618000Y702379D02*
Y712879D01*
X612682Y718197D02*
X618000Y712879D01*
X616500Y703500D02*
Y712257D01*
X613120Y715638D02*
X616500Y712257D01*
X622266Y722819D02*
X625181D01*
X620544Y724541D02*
X622266Y722819D01*
X623075Y725094D02*
X623145Y725025D01*
X623000Y716000D02*
X623369D01*
X622883Y710893D02*
X623251D01*
X622369Y720000D02*
X631496D01*
X621408Y720960D02*
X622369Y720000D01*
X609803Y715638D02*
X613120D01*
X624949Y718080D02*
X625210Y717819D01*
X624558Y713261D02*
X625000Y712819D01*
X624144Y710000D02*
X631496D01*
X623251Y710893D02*
X624144Y710000D01*
X621124Y720960D02*
X621408D01*
X624739Y728080D02*
X625000Y727819D01*
X624369Y730000D02*
X631496D01*
X623369Y731000D02*
X624369Y730000D01*
X622836Y728080D02*
X624739D01*
X614518Y736398D02*
X622836Y728080D01*
X623000Y731000D02*
X623369D01*
X620544Y724541D02*
Y726968D01*
X613673Y733839D02*
X620544Y726968D01*
X612000Y699000D02*
X616500Y703500D01*
X583000Y699000D02*
X612000D01*
X613636Y731280D02*
X617531Y727384D01*
X612587Y727949D02*
X616031Y724505D01*
X623145Y725025D02*
X631472D01*
X349457Y635949D02*
X358949D01*
X361000Y638000D01*
X345996Y639409D02*
Y640000D01*
Y639409D02*
X349457Y635949D01*
X345965Y676965D02*
X346000Y677000D01*
X345965Y670000D02*
Y676965D01*
X362602Y723602D02*
X366484D01*
X360000Y721000D02*
X362602Y723602D01*
X563965Y640000D02*
X564000Y639965D01*
Y632000D02*
Y639965D01*
X563965Y670000D02*
X564000Y670035D01*
Y697000D01*
X558000Y666555D02*
Y742000D01*
X562000Y746000D02*
Y755837D01*
X558000Y742000D02*
X562000Y746000D01*
X563965Y660000D02*
Y660591D01*
X558000Y666555D02*
X563965Y660591D01*
Y650000D02*
Y660000D01*
Y649409D02*
Y650000D01*
X558555Y644000D02*
X563965Y649409D01*
X558555Y586000D02*
Y644000D01*
X563965Y580000D02*
Y580590D01*
X558555Y586000D02*
X563965Y580590D01*
X563965Y596965D02*
X564000Y597000D01*
X563965Y590000D02*
Y596965D01*
X563965Y570000D02*
Y580000D01*
X563965Y560000D02*
X564000Y559965D01*
Y553000D02*
Y559965D01*
X654035Y649968D02*
Y660000D01*
Y649378D02*
Y649968D01*
Y649378D02*
X658000Y645413D01*
Y584555D02*
Y645413D01*
X654035Y580000D02*
Y580590D01*
X658000Y584555D01*
X654035Y570000D02*
Y580000D01*
X654035Y590000D02*
Y590590D01*
X649261Y595365D02*
X654035Y590590D01*
X649261Y595365D02*
Y596739D01*
X649000Y597000D02*
X649261Y596739D01*
X652075Y558039D02*
X654035Y560000D01*
X652075Y554443D02*
Y558039D01*
X651000Y553369D02*
X652075Y554443D01*
X651000Y553000D02*
Y553369D01*
X654036Y639378D02*
Y639968D01*
X649261Y634603D02*
X654036Y639378D01*
X649261Y633261D02*
Y634603D01*
X649000Y633000D02*
X649261Y633261D01*
X654035Y677609D02*
X654176Y677749D01*
X654035Y670000D02*
Y677609D01*
X658750Y665750D02*
Y699250D01*
X655996Y661961D02*
Y662996D01*
X658750Y665750D01*
X654035Y660000D02*
X655996Y661961D01*
X653750Y704250D02*
X658750Y699250D01*
X653750Y704250D02*
Y716953D01*
X664047Y727250D01*
X672786D01*
X673036Y727000D02*
X700000D01*
X672786Y727250D02*
X673036Y727000D01*
X641181Y670000D02*
X645964D01*
X622655Y713261D02*
X624558D01*
X623903Y718181D02*
X624005Y718080D01*
X624369Y715000D02*
X631496D01*
X623369Y716000D02*
X624369Y715000D01*
X624005Y718080D02*
X624949D01*
X631472Y725025D02*
X631496Y725000D01*
X611673Y728433D02*
X612157Y727949D01*
X609516Y728721D02*
X609803Y728433D01*
X612157Y727949D02*
X612587D01*
X609803Y728433D02*
X611673D01*
X609516Y731280D02*
X613636D01*
X609516Y733839D02*
X613673D01*
X624949Y733079D02*
X625210Y732819D01*
X616959Y738957D02*
X622734Y733181D01*
X623903D02*
X624005Y733079D01*
X609516Y736398D02*
X614518D01*
X622734Y733181D02*
X623903D01*
X624005Y733079D02*
X624949D01*
X618606Y741516D02*
X621940Y738181D01*
X609516Y738957D02*
X616959D01*
X624005Y738080D02*
X624949D01*
X623903Y738181D02*
X624005Y738080D01*
X621940Y738181D02*
X623903D01*
X623369Y736000D02*
X624369Y735000D01*
X624949Y738080D02*
X625210Y737819D01*
X624369Y735000D02*
X631496D01*
X623000Y736000D02*
X623369D01*
X622937Y740638D02*
X623574Y740000D01*
X631496D01*
X622568Y740638D02*
X622937D01*
X618168Y744075D02*
X619424Y742819D01*
X622000Y745000D02*
X631496D01*
X609516Y744075D02*
X618168D01*
X619424Y742819D02*
X625000D01*
X609516Y741516D02*
X618606D01*
X621028Y747028D02*
X622000Y748000D01*
X625000D01*
X609516Y747028D02*
X621028D01*
X578821Y713329D02*
X581417Y715925D01*
X600000Y677000D02*
X600073Y677073D01*
X600000Y633843D02*
X639492Y594351D01*
X581417Y715925D02*
X586484D01*
X600000Y633843D02*
Y677000D01*
X578821Y597345D02*
Y713329D01*
X585803Y712291D02*
X586484Y712972D01*
X580321Y709321D02*
X583291Y712291D01*
X585803D01*
X580321Y578286D02*
Y709321D01*
X394144Y723801D02*
X396801D01*
X391386Y721043D02*
X394144Y723801D01*
X389715D02*
X394144D01*
X389516Y721043D02*
X391386D01*
X396801Y723801D02*
X397000Y724000D01*
X389516Y723602D02*
X389715Y723801D01*
X389516Y726161D02*
X391386D01*
X393547Y724000D01*
X395750Y635250D02*
X404876D01*
X394000Y637000D02*
X395750Y635250D01*
X404876D02*
X409035Y639409D01*
Y640000D01*
X389516Y715925D02*
X395561D01*
X396559Y714927D01*
X396927D01*
X389516Y718484D02*
X396116D01*
X396631Y719000D01*
X397000D01*
X582747Y695000D02*
X583000D01*
X585431Y697431D02*
X613053D01*
X583000Y695000D02*
X585431Y697431D01*
X613053D02*
X618000Y702379D01*
X609516Y715925D02*
X609803Y715638D01*
Y718197D02*
X612682D01*
X609516Y718484D02*
X609803Y718197D01*
X577321Y655912D02*
Y713951D01*
X575821Y674549D02*
Y714572D01*
X573996Y672724D02*
X575821Y674549D01*
X573996Y671961D02*
Y672724D01*
X572000Y650591D02*
X577321Y655912D01*
X573445Y591968D02*
X578821Y597345D01*
X572035Y570000D02*
X580321Y578286D01*
X577321Y713951D02*
X581855Y718484D01*
X575821Y714572D02*
X582293Y721043D01*
X572035Y670000D02*
X573996Y671961D01*
X572035Y670000D02*
X572035Y670000D01*
X581855Y718484D02*
X586484D01*
X582293Y721043D02*
X586484D01*
X604000Y631965D02*
X645965Y590000D01*
X604000Y631965D02*
Y677000D01*
X639492Y577063D02*
Y594351D01*
X641000Y650000D02*
X645933D01*
X645965Y649968D01*
X645965Y649968D01*
X396280Y728721D02*
X410000Y715000D01*
X389516Y747028D02*
X407959D01*
X410000Y749069D01*
X345000Y725000D02*
X353839Y733839D01*
X355992Y730992D02*
X366197D01*
X345000Y720000D02*
X355992Y730992D01*
X358433Y728433D02*
X366197D01*
X353839Y733839D02*
X366484D01*
X345000Y715000D02*
X358433Y728433D01*
X345000Y720000D02*
X345000D01*
X586035Y258146D02*
X587890Y260000D01*
X586035Y247000D02*
Y258146D01*
Y247000D02*
X587890Y248854D01*
X414965Y245409D02*
Y246000D01*
X423035Y258146D02*
X424890Y260000D01*
X423035Y246000D02*
Y258146D01*
X577965Y246410D02*
Y247000D01*
X576004Y244449D02*
X577965Y246410D01*
X575413Y244449D02*
X576004D01*
X645965Y560000D02*
Y570590D01*
X645964Y580000D02*
Y590000D01*
X645965Y590000D01*
Y660000D02*
Y670000D01*
X645964Y670000D02*
X645965Y670000D01*
X645965Y639968D02*
Y649968D01*
X639492Y577063D02*
X645965Y570590D01*
X572035Y591968D02*
X573445D01*
X574000Y713000D02*
Y716000D01*
X571000Y710000D02*
X574000Y713000D01*
Y716000D02*
X583874Y725874D01*
X572035Y581968D02*
Y591968D01*
Y559000D02*
Y569000D01*
Y569591D01*
X572035Y581968D02*
X572035Y581968D01*
X572000Y640000D02*
Y650000D01*
X572000Y650000D02*
X572000Y650000D01*
X572000Y650000D02*
Y650591D01*
X572035Y660000D02*
Y670000D01*
X573000Y717121D02*
Y718000D01*
X583874Y725874D02*
X586197D01*
X571000Y715000D02*
Y715121D01*
X573000Y717121D01*
X586197Y725874D02*
X586484Y726161D01*
X573000Y718000D02*
X583433Y728433D01*
X571000Y740000D02*
X580000D01*
X581516Y741516D02*
X586484D01*
X580000Y740000D02*
X581516Y741516D01*
X571000Y735000D02*
X578000D01*
X581957Y738957D01*
X586484D01*
X576000Y730000D02*
X582398Y736398D01*
X571000Y730000D02*
X576000D01*
X582398Y736398D02*
X586484D01*
X582839Y733839D02*
X586484D01*
X571000Y725000D02*
X574000D01*
X582839Y733839D01*
X586304Y731099D02*
X586484Y731280D01*
X583099Y731099D02*
X586304D01*
X572303Y720303D02*
X583099Y731099D01*
X571218Y720303D02*
X572303D01*
X570958Y720042D02*
X571218Y720303D01*
X586197Y728433D02*
X586484Y728721D01*
X583433Y728433D02*
X586197D01*
X400965Y639968D02*
Y649968D01*
X400965Y639968D02*
X400965Y639968D01*
X400965Y660032D02*
Y670000D01*
Y660032D02*
X400965Y660032D01*
X382000Y687000D02*
Y706000D01*
X369783Y718217D02*
X382000Y706000D01*
Y687000D02*
X396535Y672465D01*
X384280Y687275D02*
Y706720D01*
Y687275D02*
X400965Y670590D01*
X370244Y720756D02*
X384280Y706720D01*
X366484Y718484D02*
X366752Y718217D01*
X369783D01*
X366772Y720756D02*
X370244D01*
X366484Y721043D02*
X366772Y720756D01*
X354067Y650591D02*
X360508Y657031D01*
Y674942D01*
X371110Y685544D01*
X400965Y649968D02*
Y650559D01*
X396535Y654988D02*
X400965Y650559D01*
X396535Y654988D02*
Y672465D01*
X400965Y670000D02*
Y670590D01*
X369362Y715638D02*
X371110Y713890D01*
Y685544D02*
Y713890D01*
X366484Y715925D02*
X366772Y715638D01*
X369362D01*
X354035Y670590D02*
X366484Y683039D01*
Y712972D01*
X354067Y640000D02*
Y650591D01*
X354035Y660000D02*
Y670590D01*
X354035Y670590D02*
X354035Y670590D01*
X571000Y745000D02*
X573369D01*
X574294Y744075D01*
X586484D01*
X360874Y725874D02*
X366197D01*
X345000Y710000D02*
X360874Y725874D01*
X345000Y730000D02*
X345000D01*
X351398Y736398D02*
X366484D01*
X345000Y730000D02*
X351398Y736398D01*
X345000Y735000D02*
X348957Y738957D01*
X366484D01*
X345000Y740000D02*
X345369D01*
X346884Y741516D02*
X366484D01*
X345369Y740000D02*
X346884Y741516D01*
X346267Y744000D02*
X366409D01*
X345267Y745000D02*
X346267Y744000D01*
X345000Y745000D02*
X345267D01*
X366409Y744000D02*
X366484Y744075D01*
X366197Y725874D02*
X366484Y726161D01*
X366197Y728433D02*
X366484Y728721D01*
X366197Y730992D02*
X366484Y731280D01*
X389516Y744075D02*
X408706D01*
X409631Y745000D01*
X410000D01*
X389516Y741516D02*
X408116D01*
X409542Y740090D01*
X409910D01*
X389516Y738957D02*
X405851D01*
X409808Y735000D01*
X389516Y736398D02*
X403602D01*
X410000Y730000D01*
X401161Y733839D02*
X410000Y725000D01*
X389516Y733839D02*
X401161D01*
X389516Y728721D02*
X396280D01*
X389516Y731280D02*
X398721D01*
X410000Y720000D01*
D45*
X296260Y253346D02*
D03*
Y334055D02*
D03*
Y414764D02*
D03*
Y495472D02*
D03*
Y576181D02*
D03*
Y656890D02*
D03*
X377756Y253346D02*
D03*
Y334055D02*
D03*
Y414764D02*
D03*
Y495472D02*
D03*
Y576181D02*
D03*
Y656890D02*
D03*
X459252Y253346D02*
D03*
Y334055D02*
D03*
Y414764D02*
D03*
X459252Y495472D02*
D03*
Y576181D02*
D03*
Y656890D02*
D03*
X540748Y253346D02*
D03*
Y334055D02*
D03*
Y414764D02*
D03*
Y495472D02*
D03*
Y576181D02*
D03*
X540748Y657087D02*
D03*
X622244Y253346D02*
D03*
Y334055D02*
D03*
Y414764D02*
D03*
Y495472D02*
D03*
Y576181D02*
D03*
Y656890D02*
D03*
X703740Y253346D02*
D03*
Y334055D02*
D03*
Y414764D02*
D03*
Y495472D02*
D03*
Y656890D02*
D03*
Y576181D02*
D03*
D46*
X315158Y185228D02*
D03*
D47*
X334842D02*
D03*
D48*
X692000Y188500D02*
D03*
Y196500D02*
D03*
X672000Y192500D02*
D03*
D49*
Y182500D02*
D03*
X684500D02*
D03*
Y202500D02*
D03*
X672000D02*
D03*
D50*
X700000Y707000D02*
D03*
Y717000D02*
D03*
Y727000D02*
D03*
Y737000D02*
D03*
Y164400D02*
D03*
Y174400D02*
D03*
Y184400D02*
D03*
Y194400D02*
D03*
D51*
Y747000D02*
D03*
Y204400D02*
D03*
D52*
X272638Y164370D02*
D03*
Y174370D02*
D03*
Y194370D02*
D03*
Y184370D02*
D03*
Y707047D02*
D03*
Y717047D02*
D03*
Y737047D02*
D03*
Y727047D02*
D03*
X595472Y203819D02*
D03*
X585472D02*
D03*
X565472D02*
D03*
X575472D02*
D03*
X416968D02*
D03*
X406968D02*
D03*
X386968D02*
D03*
X396969D02*
D03*
D53*
X272638Y204370D02*
D03*
Y747047D02*
D03*
D54*
X555472Y203819D02*
D03*
X376969D02*
D03*
D55*
X539213Y189882D02*
D03*
X433228Y194882D02*
D03*
X539213Y199882D02*
D03*
D56*
X663062Y156438D02*
D03*
X616563D02*
D03*
X472774Y156270D02*
D03*
X613000Y159750D02*
D03*
X622000Y752000D02*
D03*
X495000Y190000D02*
D03*
X479000Y186000D02*
D03*
X476819Y190000D02*
D03*
X597000Y178000D02*
D03*
X470823Y160011D02*
D03*
X578000Y168000D02*
D03*
X509000Y163000D02*
D03*
X653000Y159750D02*
D03*
X492924Y170163D02*
D03*
X652537Y182013D02*
D03*
X495519Y211000D02*
D03*
X601246Y238273D02*
D03*
X601449Y234000D02*
D03*
X623075Y725094D02*
D03*
X623000Y716000D02*
D03*
X622883Y710893D02*
D03*
X625210Y717819D02*
D03*
X625000Y712819D02*
D03*
X621124Y720960D02*
D03*
X625181Y722819D02*
D03*
X625000Y727819D02*
D03*
X623000Y731000D02*
D03*
X361000Y638000D02*
D03*
X346000Y677000D02*
D03*
X360000Y721000D02*
D03*
X595000Y704000D02*
D03*
X564000Y632000D02*
D03*
Y697000D02*
D03*
Y597000D02*
D03*
Y553000D02*
D03*
X649000Y597000D02*
D03*
X651000Y553000D02*
D03*
X649000Y633000D02*
D03*
X654176Y677749D02*
D03*
X641181Y670000D02*
D03*
X625210Y732819D02*
D03*
X623000Y736000D02*
D03*
X625210Y737819D02*
D03*
X622568Y740638D02*
D03*
X622000Y745000D02*
D03*
X625000Y742819D02*
D03*
Y748000D02*
D03*
X397000Y724000D02*
D03*
X394000Y637000D02*
D03*
X416000Y670000D02*
D03*
X396927Y714927D02*
D03*
X397000Y719000D02*
D03*
X582747Y695000D02*
D03*
X583000Y699000D02*
D03*
X592000Y677173D02*
D03*
X596000Y677000D02*
D03*
X600073Y677073D02*
D03*
X604000Y677000D02*
D03*
X641000Y650000D02*
D03*
X410000Y715000D02*
D03*
Y749069D02*
D03*
X345000Y725000D02*
D03*
X571000Y710000D02*
D03*
X570958Y720042D02*
D03*
X571000Y715000D02*
D03*
Y725000D02*
D03*
Y730000D02*
D03*
Y735000D02*
D03*
Y740000D02*
D03*
Y745000D02*
D03*
X345000D02*
D03*
Y740000D02*
D03*
Y735000D02*
D03*
Y730000D02*
D03*
Y720000D02*
D03*
Y715000D02*
D03*
Y710000D02*
D03*
X410000Y745000D02*
D03*
X409910Y740090D02*
D03*
X409808Y735000D02*
D03*
X410000Y730000D02*
D03*
Y725000D02*
D03*
Y720000D02*
D03*
D57*
X599000Y754587D02*
D03*
X433000Y220000D02*
D03*
X532000Y185000D02*
D03*
X598750Y715000D02*
D03*
X459000Y700000D02*
D03*
X464131Y694061D02*
D03*
X653000Y694000D02*
D03*
X557000Y750000D02*
D03*
X436000Y735000D02*
D03*
X389000Y702000D02*
D03*
X304000Y750000D02*
D03*
X326000D02*
D03*
X384000Y754587D02*
D03*
X454000Y750000D02*
D03*
X416968Y164291D02*
D03*
X439000Y173000D02*
D03*
X654000Y725000D02*
D03*
X383000Y713000D02*
D03*
X535000Y750000D02*
D03*
X373000Y747000D02*
D03*
X677000Y715000D02*
D03*
Y721000D02*
D03*
X541000Y710000D02*
D03*
Y715500D02*
D03*
X442000Y740000D02*
D03*
X448000Y745000D02*
D03*
X263399Y289399D02*
D03*
X260000Y370000D02*
D03*
D58*
X645965Y670000D02*
D03*
X654035D02*
D03*
X654035Y660000D02*
D03*
X645965D02*
D03*
X414965Y246000D02*
D03*
X423035D02*
D03*
X577965Y247000D02*
D03*
X586035D02*
D03*
X654036Y639968D02*
D03*
X645965D02*
D03*
X645965Y649968D02*
D03*
X654035D02*
D03*
X654035Y590000D02*
D03*
X645965D02*
D03*
X645964Y580000D02*
D03*
X654035D02*
D03*
X645964Y570000D02*
D03*
X654035D02*
D03*
X654035Y560000D02*
D03*
X645965D02*
D03*
X563965Y590000D02*
D03*
X572035D02*
D03*
X572035Y570000D02*
D03*
X563965D02*
D03*
X563965Y560000D02*
D03*
X572035D02*
D03*
X572035Y580000D02*
D03*
X563965D02*
D03*
X563965Y640000D02*
D03*
X572035D02*
D03*
X563965Y670000D02*
D03*
X572035D02*
D03*
X572035Y650000D02*
D03*
X563965D02*
D03*
X572035Y660000D02*
D03*
X563965D02*
D03*
X400965Y650000D02*
D03*
X409035D02*
D03*
X409035Y640000D02*
D03*
X400965D02*
D03*
X409035Y670000D02*
D03*
X400965D02*
D03*
X400965Y660000D02*
D03*
X409035D02*
D03*
X354067Y650000D02*
D03*
X345996D02*
D03*
X345996Y640000D02*
D03*
X354067D02*
D03*
X345965Y670000D02*
D03*
X354035D02*
D03*
X354035Y660000D02*
D03*
X345965D02*
D03*
D59*
X424890Y260000D02*
D03*
X411110D02*
D03*
X587890D02*
D03*
X574110D02*
D03*
D60*
X677000Y190000D02*
D03*
X682000D02*
D03*
X687000D02*
D03*
Y195000D02*
D03*
X682000D02*
D03*
X677000D02*
D03*
D61*
X642858Y173350D02*
D03*
X625142D02*
D03*
X642858Y204650D02*
D03*
X625142D02*
D03*
M02*
