G04*
G04 #@! TF.GenerationSoftware,Altium Limited,Altium Designer,20.2.3 (150)*
G04*
G04 Layer_Color=16711935*
%FSLAX25Y25*%
%MOIN*%
G70*
G04*
G04 #@! TF.SameCoordinates,4877317F-2E7F-43E9-A464-E33F9C0CD60A*
G04*
G04*
G04 #@! TF.FilePolarity,Negative*
G04*
G01*
G75*
%ADD19R,0.05315X0.02362*%
%ADD20R,0.05315X0.01575*%
%ADD23R,0.06693X0.06496*%
%ADD24R,0.06496X0.06693*%
%ADD27R,0.07874X0.02362*%
%ADD28C,0.06181*%
%ADD29P,0.08741X4X270.0*%
%ADD30C,0.20276*%
%ADD31C,0.08268*%
%ADD32R,0.08268X0.08268*%
%ADD33C,0.04491*%
%ADD34C,0.09941*%
%ADD35C,0.06693*%
%ADD36R,0.06693X0.06693*%
%ADD37C,0.07087*%
%ADD38R,0.07087X0.07087*%
%ADD39R,0.07087X0.07087*%
%ADD40C,0.06575*%
%ADD41C,0.02953*%
%ADD42C,0.05591*%
%ADD59R,0.05906X0.05906*%
%ADD62R,0.05512X0.06693*%
%ADD63C,0.03691*%
%ADD64R,0.05709X0.06693*%
D19*
X366484Y712972D02*
D03*
Y747028D02*
D03*
X389516D02*
D03*
Y712972D02*
D03*
X609516D02*
D03*
Y747028D02*
D03*
X586484D02*
D03*
Y712972D02*
D03*
D20*
X366484Y715925D02*
D03*
Y718484D02*
D03*
Y721043D02*
D03*
Y723602D02*
D03*
Y726161D02*
D03*
Y728721D02*
D03*
Y731280D02*
D03*
Y733839D02*
D03*
Y736398D02*
D03*
Y738957D02*
D03*
Y741516D02*
D03*
Y744075D02*
D03*
X389516D02*
D03*
Y741516D02*
D03*
Y738957D02*
D03*
Y736398D02*
D03*
Y733839D02*
D03*
Y731280D02*
D03*
Y728721D02*
D03*
Y726161D02*
D03*
Y723602D02*
D03*
Y721043D02*
D03*
Y718484D02*
D03*
Y715925D02*
D03*
X609516D02*
D03*
Y718484D02*
D03*
Y721043D02*
D03*
Y723602D02*
D03*
Y726161D02*
D03*
Y728721D02*
D03*
Y731280D02*
D03*
Y733839D02*
D03*
Y736398D02*
D03*
Y738957D02*
D03*
Y741516D02*
D03*
Y744075D02*
D03*
X586484D02*
D03*
Y741516D02*
D03*
Y738957D02*
D03*
Y736398D02*
D03*
Y733839D02*
D03*
Y731280D02*
D03*
Y728721D02*
D03*
Y726161D02*
D03*
Y723602D02*
D03*
Y721043D02*
D03*
Y718484D02*
D03*
Y715925D02*
D03*
D23*
X682000Y744457D02*
D03*
Y751543D02*
D03*
D24*
X608968Y704000D02*
D03*
X601882D02*
D03*
X542457Y749000D02*
D03*
X549543D02*
D03*
X311457D02*
D03*
X318543D02*
D03*
D27*
X668504Y710000D02*
D03*
Y715000D02*
D03*
Y720000D02*
D03*
Y725000D02*
D03*
Y730000D02*
D03*
Y735000D02*
D03*
Y740000D02*
D03*
Y745000D02*
D03*
Y750000D02*
D03*
X631496D02*
D03*
Y745000D02*
D03*
Y740000D02*
D03*
Y735000D02*
D03*
Y730000D02*
D03*
Y725000D02*
D03*
Y720000D02*
D03*
Y715000D02*
D03*
Y710000D02*
D03*
D28*
X325741Y216895D02*
D03*
Y297604D02*
D03*
Y378313D02*
D03*
Y459021D02*
D03*
Y539730D02*
D03*
Y620439D02*
D03*
X348275Y289798D02*
D03*
Y370506D02*
D03*
Y451215D02*
D03*
Y531923D02*
D03*
Y612632D02*
D03*
Y693341D02*
D03*
X429771Y289798D02*
D03*
Y370506D02*
D03*
Y451215D02*
D03*
X429771Y531923D02*
D03*
Y612632D02*
D03*
Y693341D02*
D03*
X511267Y289798D02*
D03*
Y370506D02*
D03*
Y451215D02*
D03*
Y531923D02*
D03*
Y612632D02*
D03*
X511267Y693538D02*
D03*
X592763Y289798D02*
D03*
Y370506D02*
D03*
Y451215D02*
D03*
Y531923D02*
D03*
Y612632D02*
D03*
Y693341D02*
D03*
X674259Y289798D02*
D03*
Y370506D02*
D03*
Y451215D02*
D03*
Y531923D02*
D03*
Y693341D02*
D03*
Y612632D02*
D03*
D29*
X332812Y223966D02*
D03*
Y304675D02*
D03*
Y385384D02*
D03*
Y466092D02*
D03*
Y546801D02*
D03*
Y627510D02*
D03*
X341204Y282727D02*
D03*
Y363435D02*
D03*
Y444144D02*
D03*
Y524853D02*
D03*
Y605561D02*
D03*
Y686270D02*
D03*
X422700Y282727D02*
D03*
Y363435D02*
D03*
Y444144D02*
D03*
X422700Y524853D02*
D03*
Y605561D02*
D03*
Y686270D02*
D03*
X504196Y282727D02*
D03*
Y363435D02*
D03*
Y444144D02*
D03*
Y524853D02*
D03*
Y605561D02*
D03*
X504196Y686467D02*
D03*
X585692Y282727D02*
D03*
Y363435D02*
D03*
Y444144D02*
D03*
Y524853D02*
D03*
Y605561D02*
D03*
Y686270D02*
D03*
X667188Y282727D02*
D03*
Y363435D02*
D03*
Y444144D02*
D03*
Y524853D02*
D03*
Y686270D02*
D03*
Y605561D02*
D03*
D30*
X296260Y253346D02*
D03*
Y334055D02*
D03*
Y414764D02*
D03*
Y495472D02*
D03*
Y576181D02*
D03*
Y656890D02*
D03*
X377756Y253346D02*
D03*
Y334055D02*
D03*
Y414764D02*
D03*
Y495472D02*
D03*
Y576181D02*
D03*
Y656890D02*
D03*
X459252Y253346D02*
D03*
Y334055D02*
D03*
Y414764D02*
D03*
X459252Y495472D02*
D03*
Y576181D02*
D03*
Y656890D02*
D03*
X540748Y253346D02*
D03*
Y334055D02*
D03*
Y414764D02*
D03*
Y495472D02*
D03*
Y576181D02*
D03*
X540748Y657087D02*
D03*
X622244Y253346D02*
D03*
Y334055D02*
D03*
Y414764D02*
D03*
Y495472D02*
D03*
Y576181D02*
D03*
Y656890D02*
D03*
X703740Y253346D02*
D03*
Y334055D02*
D03*
Y414764D02*
D03*
Y495472D02*
D03*
Y656890D02*
D03*
Y576181D02*
D03*
D31*
X315158Y185228D02*
D03*
D32*
X334842D02*
D03*
D33*
X692000Y188500D02*
D03*
Y196500D02*
D03*
X672000Y192500D02*
D03*
D34*
Y182500D02*
D03*
X684500D02*
D03*
Y202500D02*
D03*
X672000D02*
D03*
D35*
X700000Y707000D02*
D03*
Y717000D02*
D03*
Y727000D02*
D03*
Y737000D02*
D03*
Y164400D02*
D03*
Y174400D02*
D03*
Y184400D02*
D03*
Y194400D02*
D03*
D36*
Y747000D02*
D03*
Y204400D02*
D03*
D37*
X272638Y164370D02*
D03*
Y174370D02*
D03*
Y194370D02*
D03*
Y184370D02*
D03*
Y707047D02*
D03*
Y717047D02*
D03*
Y737047D02*
D03*
Y727047D02*
D03*
X595472Y203819D02*
D03*
X585472D02*
D03*
X565472D02*
D03*
X575472D02*
D03*
X416968D02*
D03*
X406968D02*
D03*
X386968D02*
D03*
X396969D02*
D03*
D38*
X272638Y204370D02*
D03*
Y747047D02*
D03*
D39*
X555472Y203819D02*
D03*
X376969D02*
D03*
D40*
X539213Y189882D02*
D03*
X433228Y194882D02*
D03*
X539213Y199882D02*
D03*
D41*
X663062Y156438D02*
D03*
X616563D02*
D03*
X472774Y156270D02*
D03*
X613000Y159750D02*
D03*
X622000Y752000D02*
D03*
X495000Y190000D02*
D03*
X479000Y186000D02*
D03*
X476819Y190000D02*
D03*
X597000Y178000D02*
D03*
X470823Y160011D02*
D03*
X578000Y168000D02*
D03*
X509000Y163000D02*
D03*
X653000Y159750D02*
D03*
X492924Y170163D02*
D03*
X652537Y182013D02*
D03*
X495519Y211000D02*
D03*
X601246Y238273D02*
D03*
X601449Y234000D02*
D03*
X623075Y725094D02*
D03*
X623000Y716000D02*
D03*
X622883Y710893D02*
D03*
X625210Y717819D02*
D03*
X625000Y712819D02*
D03*
X621124Y720960D02*
D03*
X625181Y722819D02*
D03*
X625000Y727819D02*
D03*
X623000Y731000D02*
D03*
X361000Y638000D02*
D03*
X346000Y677000D02*
D03*
X360000Y721000D02*
D03*
X595000Y704000D02*
D03*
X564000Y632000D02*
D03*
Y697000D02*
D03*
Y597000D02*
D03*
Y553000D02*
D03*
X649000Y597000D02*
D03*
X651000Y553000D02*
D03*
X649000Y633000D02*
D03*
X654176Y677749D02*
D03*
X641181Y670000D02*
D03*
X625210Y732819D02*
D03*
X623000Y736000D02*
D03*
X625210Y737819D02*
D03*
X622568Y740638D02*
D03*
X622000Y745000D02*
D03*
X625000Y742819D02*
D03*
Y748000D02*
D03*
X397000Y724000D02*
D03*
X394000Y637000D02*
D03*
X416000Y670000D02*
D03*
X396927Y714927D02*
D03*
X397000Y719000D02*
D03*
X582747Y695000D02*
D03*
X583000Y699000D02*
D03*
X592000Y677173D02*
D03*
X596000Y677000D02*
D03*
X600073Y677073D02*
D03*
X604000Y677000D02*
D03*
X641000Y650000D02*
D03*
X410000Y715000D02*
D03*
Y749069D02*
D03*
X345000Y725000D02*
D03*
X571000Y710000D02*
D03*
X570958Y720042D02*
D03*
X571000Y715000D02*
D03*
Y725000D02*
D03*
Y730000D02*
D03*
Y735000D02*
D03*
Y740000D02*
D03*
Y745000D02*
D03*
X345000D02*
D03*
Y740000D02*
D03*
Y735000D02*
D03*
Y730000D02*
D03*
Y720000D02*
D03*
Y715000D02*
D03*
Y710000D02*
D03*
X410000Y745000D02*
D03*
X409910Y740090D02*
D03*
X409808Y735000D02*
D03*
X410000Y730000D02*
D03*
Y725000D02*
D03*
Y720000D02*
D03*
D42*
X599000Y754587D02*
D03*
X433000Y220000D02*
D03*
X532000Y185000D02*
D03*
X598750Y715000D02*
D03*
X459000Y700000D02*
D03*
X464131Y694061D02*
D03*
X653000Y694000D02*
D03*
X557000Y750000D02*
D03*
X436000Y735000D02*
D03*
X389000Y702000D02*
D03*
X304000Y750000D02*
D03*
X326000D02*
D03*
X384000Y754587D02*
D03*
X454000Y750000D02*
D03*
X416968Y164291D02*
D03*
X439000Y173000D02*
D03*
X654000Y725000D02*
D03*
X383000Y713000D02*
D03*
X535000Y750000D02*
D03*
X373000Y747000D02*
D03*
X677000Y715000D02*
D03*
Y721000D02*
D03*
X541000Y710000D02*
D03*
Y715500D02*
D03*
X442000Y740000D02*
D03*
X448000Y745000D02*
D03*
X263399Y289399D02*
D03*
X260000Y370000D02*
D03*
D59*
X424890Y260000D02*
D03*
X411110D02*
D03*
X587890D02*
D03*
X574110D02*
D03*
D62*
X645965Y670000D02*
D03*
X654035D02*
D03*
X654035Y660000D02*
D03*
X645965D02*
D03*
X414965Y246000D02*
D03*
X423035D02*
D03*
X577965Y247000D02*
D03*
X586035D02*
D03*
X654036Y639968D02*
D03*
X645965D02*
D03*
X645965Y649968D02*
D03*
X654035D02*
D03*
X654035Y590000D02*
D03*
X645965D02*
D03*
X645964Y580000D02*
D03*
X654035D02*
D03*
X645964Y570000D02*
D03*
X654035D02*
D03*
X654035Y560000D02*
D03*
X645965D02*
D03*
X563965Y590000D02*
D03*
X572035D02*
D03*
X572035Y570000D02*
D03*
X563965D02*
D03*
X563965Y560000D02*
D03*
X572035D02*
D03*
X572035Y580000D02*
D03*
X563965D02*
D03*
X563965Y640000D02*
D03*
X572035D02*
D03*
X563965Y670000D02*
D03*
X572035D02*
D03*
X572035Y650000D02*
D03*
X563965D02*
D03*
X572035Y660000D02*
D03*
X563965D02*
D03*
X400965Y650000D02*
D03*
X409035D02*
D03*
X409035Y640000D02*
D03*
X400965D02*
D03*
X409035Y670000D02*
D03*
X400965D02*
D03*
X400965Y660000D02*
D03*
X409035D02*
D03*
X354067Y650000D02*
D03*
X345996D02*
D03*
X345996Y640000D02*
D03*
X354067D02*
D03*
X345965Y670000D02*
D03*
X354035D02*
D03*
X354035Y660000D02*
D03*
X345965D02*
D03*
D63*
X677000Y190000D02*
D03*
X682000D02*
D03*
X687000D02*
D03*
Y195000D02*
D03*
X682000D02*
D03*
X677000D02*
D03*
D64*
X642858Y173350D02*
D03*
X625142D02*
D03*
X642858Y204650D02*
D03*
X625142D02*
D03*
M02*
