G04*
G04 #@! TF.GenerationSoftware,Altium Limited,Altium Designer,20.2.3 (150)*
G04*
G04 Layer_Color=128*
%FSLAX25Y25*%
%MOIN*%
G70*
G04*
G04 #@! TF.SameCoordinates,4877317F-2E7F-43E9-A464-E33F9C0CD60A*
G04*
G04*
G04 #@! TF.FilePolarity,Positive*
G04*
G01*
G75*
%ADD10R,0.07677X0.02165*%
%ADD15R,0.06102X0.05906*%
%ADD16R,0.05906X0.06102*%
%ADD19R,0.05315X0.02362*%
%ADD20R,0.05315X0.01575*%
%ADD58R,0.04921X0.06102*%
%ADD59R,0.05906X0.05906*%
%ADD60C,0.03100*%
%ADD61R,0.05118X0.06102*%
D10*
X631496Y710000D02*
D03*
Y715000D02*
D03*
Y720000D02*
D03*
Y725000D02*
D03*
Y730000D02*
D03*
Y735000D02*
D03*
Y740000D02*
D03*
Y745000D02*
D03*
Y750000D02*
D03*
X668504Y710000D02*
D03*
Y715000D02*
D03*
Y720000D02*
D03*
Y725000D02*
D03*
Y730000D02*
D03*
Y735000D02*
D03*
Y740000D02*
D03*
Y745000D02*
D03*
Y750000D02*
D03*
D15*
X682000Y744457D02*
D03*
Y751543D02*
D03*
D16*
X608968Y704000D02*
D03*
X601882D02*
D03*
X542457Y749000D02*
D03*
X549543D02*
D03*
X311457D02*
D03*
X318543D02*
D03*
D19*
X366484Y712972D02*
D03*
Y747028D02*
D03*
X389516D02*
D03*
Y712972D02*
D03*
X609516D02*
D03*
Y747028D02*
D03*
X586484D02*
D03*
Y712972D02*
D03*
D20*
X366484Y715925D02*
D03*
Y718484D02*
D03*
Y721043D02*
D03*
Y723602D02*
D03*
Y726161D02*
D03*
Y728721D02*
D03*
Y731280D02*
D03*
Y733839D02*
D03*
Y736398D02*
D03*
Y738957D02*
D03*
Y741516D02*
D03*
Y744075D02*
D03*
X389516D02*
D03*
Y741516D02*
D03*
Y738957D02*
D03*
Y736398D02*
D03*
Y733839D02*
D03*
Y731280D02*
D03*
Y728721D02*
D03*
Y726161D02*
D03*
Y723602D02*
D03*
Y721043D02*
D03*
Y718484D02*
D03*
Y715925D02*
D03*
X609516D02*
D03*
Y718484D02*
D03*
Y721043D02*
D03*
Y723602D02*
D03*
Y726161D02*
D03*
Y728721D02*
D03*
Y731280D02*
D03*
Y733839D02*
D03*
Y736398D02*
D03*
Y738957D02*
D03*
Y741516D02*
D03*
Y744075D02*
D03*
X586484D02*
D03*
Y741516D02*
D03*
Y738957D02*
D03*
Y736398D02*
D03*
Y733839D02*
D03*
Y731280D02*
D03*
Y728721D02*
D03*
Y726161D02*
D03*
Y723602D02*
D03*
Y721043D02*
D03*
Y718484D02*
D03*
Y715925D02*
D03*
D58*
X645965Y670000D02*
D03*
X654035D02*
D03*
X654035Y660000D02*
D03*
X645965D02*
D03*
X414965Y246000D02*
D03*
X423035D02*
D03*
X577965Y247000D02*
D03*
X586035D02*
D03*
X654036Y639968D02*
D03*
X645965D02*
D03*
X645965Y649968D02*
D03*
X654035D02*
D03*
X654035Y590000D02*
D03*
X645965D02*
D03*
X645964Y580000D02*
D03*
X654035D02*
D03*
X645964Y570000D02*
D03*
X654035D02*
D03*
X654035Y560000D02*
D03*
X645965D02*
D03*
X563965Y590000D02*
D03*
X572035D02*
D03*
X572035Y570000D02*
D03*
X563965D02*
D03*
X563965Y560000D02*
D03*
X572035D02*
D03*
X572035Y580000D02*
D03*
X563965D02*
D03*
X563965Y640000D02*
D03*
X572035D02*
D03*
X563965Y670000D02*
D03*
X572035D02*
D03*
X572035Y650000D02*
D03*
X563965D02*
D03*
X572035Y660000D02*
D03*
X563965D02*
D03*
X400965Y650000D02*
D03*
X409035D02*
D03*
X409035Y640000D02*
D03*
X400965D02*
D03*
X409035Y670000D02*
D03*
X400965D02*
D03*
X400965Y660000D02*
D03*
X409035D02*
D03*
X354067Y650000D02*
D03*
X345996D02*
D03*
X345996Y640000D02*
D03*
X354067D02*
D03*
X345965Y670000D02*
D03*
X354035D02*
D03*
X354035Y660000D02*
D03*
X345965D02*
D03*
D59*
X424890Y260000D02*
D03*
X411110D02*
D03*
X587890D02*
D03*
X574110D02*
D03*
D60*
X677000Y190000D02*
D03*
X682000D02*
D03*
X687000D02*
D03*
Y195000D02*
D03*
X682000D02*
D03*
X677000D02*
D03*
D61*
X642858Y173350D02*
D03*
X625142D02*
D03*
X642858Y204650D02*
D03*
X625142D02*
D03*
M02*
